<svg width="47" height="62" viewBox="0 0 47 62" fill="none" xmlns="http://www.w3.org/2000/svg">
<path d="M6.13965 19.0227C9.53009 19.0227 12.2793 21.7719 12.2793 25.1623V49.4513H23.7057C27.0962 49.4513 29.8453 52.2006 29.8454 55.591C29.8454 58.9814 27.0962 61.7306 23.7057 61.7306H12.3475C5.52912 61.7306 0 56.2015 0 49.3831V25.1623C0 21.7719 2.7492 19.0227 6.13965 19.0227ZM27.1679 0C37.5643 0 46.2725 8.22721 46.4704 18.6237C46.5658 23.7161 44.6455 28.3652 41.4563 31.8307C44.5704 35.2143 46.4738 39.727 46.4738 44.6762C46.4738 48.0666 43.7245 50.8158 40.3341 50.8158C36.9437 50.8158 34.1945 48.0666 34.1945 44.6762C34.1945 40.9719 31.1928 37.9703 27.4886 37.9703H24.0572C20.7282 37.9703 17.8937 35.3815 17.7742 32.0559C17.6514 28.5631 20.445 25.691 23.9105 25.691H27.3248C30.9574 25.691 34.0546 22.8735 34.1911 19.2443C34.3343 15.4275 31.2747 12.2793 27.4886 12.2793H6.13965C2.7492 12.2793 1.29108e-06 9.53009 0 6.13965C0 2.7492 2.7492 0 6.13965 0H27.1679Z" fill="url(#paint0_radial_18_3588)"/>
<defs>
<radialGradient id="paint0_radial_18_3588" cx="0" cy="0" r="1" gradientUnits="userSpaceOnUse" gradientTransform="translate(7.64632 61.7243) rotate(-57.8007) scale(72.9429 96.5772)">
<stop stop-color="#C59CF0"/>
<stop offset="0.642631" stop-color="#5E29FD"/>
<stop offset="1" stop-color="#3336FE"/>
</radialGradient>
</defs>
</svg>
