<svg width="74" height="30" viewBox="0 0 74 30" fill="none" xmlns="http://www.w3.org/2000/svg">
<path d="M2 13C0.89543 13 -9.65645e-08 13.8954 0 15C9.65645e-08 16.1046 0.895431 17 2 17L2 15L2 13ZM73.4142 16.4142C74.1953 15.6332 74.1953 14.3668 73.4142 13.5858L60.6863 0.857859C59.9052 0.0768105 58.6389 0.0768107 57.8579 0.857859C57.0768 1.63891 57.0768 2.90524 57.8579 3.68629L69.1716 15L57.8579 26.3137C57.0768 27.0948 57.0768 28.3611 57.8579 29.1421C58.6389 29.9232 59.9052 29.9232 60.6863 29.1421L73.4142 16.4142ZM2 15L2 17L72 17L72 15L72 13L2 13L2 15Z" fill="url(#paint0_linear_18_3601)"/>
<defs>
<linearGradient id="paint0_linear_18_3601" x1="2" y1="14.5" x2="72" y2="14.5" gradientUnits="userSpaceOnUse">
<stop stop-color="#AB77F4"/>
<stop offset="1" stop-color="#0658EF"/>
</linearGradient>
</defs>
</svg>
