<svg width="415" height="25" viewBox="0 0 415 25" fill="none" xmlns="http://www.w3.org/2000/svg">
<path d="M5.17341 6.99417C6.21905 6.63309 7.31403 7.15932 7.36031 7.18187C7.5856 7.29205 7.67933 7.56362 7.57009 7.78938C7.54778 7.83566 7.01098 8.9257 5.96557 9.28678C5.56456 9.42538 5.15791 9.49844 4.7973 9.49844C4.72236 9.49844 4.6493 9.49515 4.57882 9.48881C3.99175 9.43572 3.72793 9.18247 3.60977 8.9741C3.5508 8.98796 3.48479 8.99735 3.41149 8.99735C3.1963 8.99735 2.92097 8.91983 2.5996 8.66259C2.27822 8.40558 1.97259 8.01279 1.73884 7.55657C1.2347 6.57224 1.60212 5.41384 1.61809 5.36498C1.69562 5.12677 1.95121 4.99568 2.19013 5.07203C2.23899 5.08777 3.39364 5.46646 3.89778 6.45079C4.07632 6.79965 4.19378 7.14123 4.25157 7.45555C4.51375 7.27255 4.82995 7.11304 5.17341 6.99417Z" fill="#F7B34C"/>
<path d="M0.602755 10.4755C0.654203 10.4715 1.8664 10.3876 2.70414 11.1098C2.98933 11.3555 3.23178 11.6313 3.40961 11.908C3.58369 11.6393 3.8165 11.3722 4.09042 11.1323C4.92275 10.4043 6.13565 10.4792 6.1871 10.4828C6.43706 10.4999 6.62617 10.716 6.6102 10.9665C6.60691 11.0175 6.52022 12.2297 5.68766 12.9579C5.30191 13.2955 4.87271 13.5473 4.47898 13.6674C4.29151 13.7247 4.12871 13.7477 3.98823 13.7477C3.70632 13.7477 3.51345 13.6545 3.38776 13.5556C3.23131 13.6664 3.03561 13.7205 2.81479 13.7205C2.32309 13.7205 1.70689 13.4524 1.12052 12.9471C0.28279 12.225 0.186942 11.0137 0.183183 10.9625C0.165329 10.7123 0.352797 10.4947 0.602755 10.4755Z" fill="#F7B34C"/>
<path d="M0.807373 16.1226C0.858586 16.097 2.07713 15.5002 3.24493 15.894C3.66756 16.0363 4.07115 16.2412 4.39488 16.4848C4.45666 16.0946 4.59691 15.6793 4.79119 15.2928C5.34467 14.192 6.63087 13.7595 6.68537 13.7416C6.92382 13.6636 7.18036 13.7926 7.25953 14.0303C7.27785 14.0848 7.69766 15.375 7.14418 16.4759C6.88623 16.989 6.54794 17.4311 6.1911 17.7207C5.83707 18.0083 5.53566 18.0938 5.30191 18.0938C5.18516 18.0938 5.08579 18.0722 5.00474 18.044C4.92745 18.1814 4.8114 18.2994 4.66292 18.3903C4.41579 18.5416 4.07609 18.6172 3.68565 18.6172C3.29497 18.6172 2.85331 18.5413 2.40344 18.3896C1.23587 17.9958 0.627422 16.7832 0.60205 16.7317C0.491167 16.5067 0.583022 16.2346 0.807373 16.1226Z" fill="#F7B34C"/>
<path d="M5.90026 20.5431C6.46831 20.4712 6.95342 20.4938 7.3488 20.5821C7.21794 20.1752 7.15005 19.6924 7.15757 19.1897C7.1773 17.8704 8.21636 16.852 8.26053 16.8092C8.44095 16.6349 8.72803 16.6394 8.90328 16.8189C8.94604 16.8628 9.95456 17.9117 9.93459 19.2311C9.91086 20.8257 9.25355 21.6804 8.59013 21.7363C8.58355 22.0055 8.4527 22.4117 7.84942 22.7805C7.42914 23.0373 6.86063 23.2215 6.24842 23.2987C6.13683 23.3128 6.02642 23.3194 5.91765 23.3194C4.75079 23.3194 3.78126 22.5749 3.73686 22.5404C3.53929 22.3863 3.50311 22.1013 3.65628 21.9028C3.69387 21.8542 4.59104 20.7087 5.90026 20.5431Z" fill="#F7B34C"/>
<path d="M10.6441 23.1961C10.8217 23.1961 10.9903 23.0918 11.0639 22.9179C11.1618 22.6863 11.0533 22.4187 10.8217 22.3208C6.61114 20.54 3.8905 16.4355 3.8905 11.8641C3.8905 9.12844 4.87741 6.48626 6.66916 4.42411C6.83431 4.23406 6.81411 3.94628 6.62429 3.78113C6.43448 3.61621 6.1467 3.63642 5.98155 3.82623C4.04555 6.05424 2.97923 8.90879 2.97923 11.8641C2.97923 16.8024 5.91835 21.2364 10.4667 23.1601C10.5247 23.1846 10.5849 23.1961 10.6441 23.1961Z" fill="#F7B34C"/>
<path d="M25.9824 6.99417C24.9368 6.63309 23.8418 7.15932 23.7955 7.18187C23.5704 7.29205 23.4765 7.56362 23.5857 7.78938C23.608 7.83566 24.1448 8.9257 25.1902 9.28678C25.5912 9.42538 25.9979 9.49844 26.3585 9.49844C26.4334 9.49844 26.5065 9.49515 26.5772 9.48881C27.1641 9.43572 27.4279 9.18247 27.546 8.9741C27.605 8.98796 27.671 8.99735 27.7443 8.99735C27.9595 8.99735 28.2348 8.91983 28.5562 8.66259C28.8778 8.40558 29.1835 8.01279 29.417 7.55657C29.9213 6.57224 29.5537 5.41384 29.538 5.36498C29.4602 5.12677 29.2046 4.99568 28.9659 5.07203C28.9168 5.08777 27.7622 5.46646 27.258 6.45079C27.0795 6.79965 26.962 7.14123 26.9042 7.45555C26.6421 7.27255 26.3261 7.11304 25.9824 6.99417Z" fill="#F7B34C"/>
<path d="M30.5531 10.4755C30.5018 10.4715 29.2896 10.3876 28.4517 11.1098C28.1665 11.3555 27.924 11.6313 27.7462 11.908C27.5724 11.6393 27.3393 11.3722 27.0654 11.1323C26.2331 10.4043 25.0202 10.4792 24.9687 10.4828C24.7187 10.4999 24.5296 10.716 24.5456 10.9665C24.5489 11.0175 24.6358 12.2297 25.4681 12.9579C25.8539 13.2955 26.2831 13.5473 26.6768 13.6674C26.8643 13.7247 27.0271 13.7477 27.1676 13.7477C27.4495 13.7477 27.6426 13.6545 27.768 13.5556C27.9247 13.6664 28.1202 13.7205 28.3413 13.7205C28.8327 13.7205 29.4489 13.4524 30.0353 12.9471C30.8733 12.225 30.9689 11.0135 30.9726 10.9622C30.9905 10.7123 30.803 10.4947 30.5531 10.4755Z" fill="#F7B34C"/>
<path d="M30.3484 16.1226C30.2972 16.097 29.0787 15.5002 27.9109 15.894C27.4882 16.0363 27.0847 16.2412 26.7612 16.4848C26.6991 16.0946 26.5589 15.6793 26.3646 15.2928C25.8111 14.192 24.5249 13.7595 24.4704 13.7416C24.232 13.6636 23.9754 13.7926 23.8963 14.0303C23.878 14.0848 23.4582 15.375 24.0116 16.4759C24.2696 16.989 24.6081 17.4311 24.9647 17.7207C25.3187 18.0083 25.6204 18.0938 25.8539 18.0938C25.9709 18.0938 26.0703 18.0722 26.1511 18.044C26.2284 18.1814 26.3444 18.2994 26.4929 18.3903C26.74 18.5416 27.0797 18.6172 27.4702 18.6172C27.8611 18.6172 28.3025 18.5413 28.7524 18.3896C29.9199 17.9958 30.5286 16.7832 30.5538 16.7317C30.6646 16.5067 30.5728 16.2346 30.3484 16.1226Z" fill="#F7B34C"/>
<path d="M25.2555 20.5431C24.6875 20.4712 24.2024 20.4938 23.807 20.5821C23.9379 20.1752 24.0058 19.6924 23.9982 19.1897C23.9785 17.8704 22.9394 16.852 22.8953 16.8092C22.7149 16.6349 22.4278 16.6394 22.2528 16.8189C22.2098 16.8628 21.2015 17.9117 21.2212 19.2311C21.2449 20.8257 21.9023 21.6804 22.5657 21.7363C22.5725 22.0055 22.7033 22.4117 23.3064 22.7805C23.7267 23.0373 24.2952 23.2215 24.9074 23.2987C25.019 23.3128 25.1294 23.3194 25.2382 23.3194C26.4053 23.3194 27.3745 22.5749 27.4189 22.5404C27.6168 22.3863 27.6527 22.1013 27.4995 21.9028C27.4619 21.8542 26.5648 20.7087 25.2555 20.5431Z" fill="#F7B34C"/>
<path d="M20.5117 23.1961C20.3344 23.1961 20.1655 23.0918 20.0922 22.9179C19.994 22.6863 20.1025 22.4187 20.3341 22.3208C24.5447 20.5398 27.2653 16.4352 27.2653 11.8639C27.2653 9.12844 26.2786 6.48626 24.4866 4.42388C24.3215 4.23406 24.3417 3.94628 24.5317 3.78113C24.7213 3.61598 25.0093 3.63618 25.1745 3.82623C27.1105 6.05424 28.1766 8.90879 28.1766 11.8639C28.1766 16.8022 25.2377 21.2361 20.6891 23.1601C20.6313 23.1846 20.5709 23.1961 20.5117 23.1961Z" fill="#F7B34C"/>
<path d="M19.5535 24.4684H11.3747C10.8736 24.4684 10.4634 24.0585 10.4634 23.5572V22.2383C10.4634 21.7372 10.8736 21.327 11.3747 21.327H19.5535C20.0546 21.327 20.4648 21.7372 20.4648 22.2383V23.5572C20.4648 24.0585 20.0546 24.4684 19.5535 24.4684Z" fill="#FDE467"/>
<path d="M19.5535 21.327H17.731C18.2323 21.327 18.6422 21.7372 18.6422 22.2383V23.5572C18.6422 24.0585 18.2323 24.4684 17.731 24.4684H19.5535C20.0546 24.4684 20.4648 24.0585 20.4648 23.5572V22.2383C20.4648 21.7372 20.0546 21.327 19.5535 21.327Z" fill="#F7B34C"/>
<path d="M21.805 9.27691C21.7479 9.10119 21.5903 8.97738 21.4061 8.96329L17.4103 8.65836L15.8854 4.95222C15.8152 4.78143 15.6486 4.67008 15.464 4.67008C15.2793 4.67008 15.113 4.78143 15.0428 4.95222L13.5179 8.65836L9.52183 8.96329C9.33789 8.97738 9.18025 9.10119 9.12317 9.27691C9.06608 9.4524 9.12082 9.64527 9.26154 9.76484L12.3151 12.3603L11.3702 16.2548C11.3267 16.4343 11.3958 16.6222 11.5452 16.7308C11.6946 16.8393 11.8948 16.8471 12.0519 16.75L15.464 14.6479L18.876 16.75C18.9495 16.7954 19.0322 16.8179 19.1149 16.8179C19.2093 16.8179 19.3033 16.7888 19.3829 16.7308C19.5324 16.6222 19.6014 16.4343 19.558 16.2548L18.6129 12.3603L21.6666 9.76484C21.8073 9.64527 21.8619 9.45263 21.805 9.27691Z" fill="#FDE467"/>
<path d="M21.805 9.27691C21.7479 9.10119 21.5903 8.97738 21.4061 8.96329L17.4103 8.65836L15.8854 4.95222C15.8152 4.78143 15.6486 4.67008 15.464 4.67008C15.2793 4.67008 15.113 4.78143 15.0428 4.95222L14.4529 6.38595L15.5878 9.14441L19.5836 9.44934C19.7677 9.46344 19.9251 9.58724 19.9825 9.76297C20.0393 9.93845 19.9848 10.1311 19.8441 10.2509L16.7906 12.8463L17.5376 15.9257L18.8762 16.7503C18.9495 16.7954 19.0324 16.8179 19.1151 16.8179C19.2093 16.8179 19.3033 16.7888 19.3829 16.7308C19.5324 16.6222 19.6014 16.4343 19.558 16.2548L18.6131 12.3603L21.6666 9.76484C21.8073 9.64527 21.8619 9.45263 21.805 9.27691Z" fill="#F7B34C"/>
<path d="M9.65621 5.20781C9.61932 5.24094 8.7729 5.99387 7.72185 5.99387C7.68333 5.99387 7.64456 5.99269 7.60557 5.99058C7.09367 5.96333 6.61043 5.84422 6.24489 5.65558C5.72125 5.38542 5.57231 5.05159 5.54107 4.81385C4.92956 4.71753 4.43951 3.91386 4.34155 2.7961C4.24523 1.69431 5.02212 0.759553 5.05501 0.720321C5.21687 0.528624 5.50301 0.503722 5.69541 0.664409C5.73488 0.697298 6.66188 1.48311 6.7582 2.5849C6.79226 2.97511 6.77253 3.33572 6.70746 3.64863C7.01943 3.57769 7.37229 3.54903 7.73524 3.56852C8.83961 3.62749 9.65621 4.52748 9.69051 4.56577C9.85754 4.75277 9.84227 5.03961 9.65621 5.20781Z" fill="#F7B34C"/>
<path d="M21.4996 5.20781C21.5365 5.24094 22.3827 5.99387 23.434 5.99387C23.4725 5.99387 23.5112 5.99269 23.5502 5.99058C24.0619 5.96333 24.5454 5.84422 24.9109 5.65558C25.4346 5.38542 25.5835 5.05159 25.6147 4.81385C26.2262 4.71753 26.7163 3.91386 26.8143 2.7961C26.9103 1.69431 26.1337 0.759553 26.1006 0.720321C25.9389 0.528624 25.6528 0.503722 25.4604 0.664409C25.4209 0.697298 24.4939 1.48311 24.3976 2.5849C24.3635 2.97511 24.3833 3.33572 24.4483 3.64863C24.1364 3.57769 23.7835 3.54903 23.4203 3.56852C22.3162 3.62749 21.4996 4.52748 21.4653 4.56577C21.2983 4.75277 21.3135 5.03961 21.4996 5.20781Z" fill="#F7B34C"/>
<path d="M44.2613 7.54107C46.3588 7.54107 47.9019 8.91941 47.9019 10.8671C47.9019 12.1705 47.2727 13.1443 45.6995 14.4328C44.6808 15.2718 43.677 16.0358 43.677 16.0358H47.9918V18.0135H40.5757V16.2456L44.501 12.8746C45.325 12.1555 45.6696 11.6162 45.6696 11.0169C45.6696 10.1929 45.0553 9.60858 44.2613 9.60858C43.3624 9.60858 42.7931 10.3277 42.7781 11.3615H40.6057C40.6057 9.03927 42.044 7.54107 44.2613 7.54107ZM48.7459 12.8746C48.7459 10.073 50.2441 7.54107 53.1506 7.54107C56.0571 7.54107 57.5553 10.073 57.5553 12.8746C57.5553 15.6763 56.0571 18.2082 53.1506 18.2082C50.2441 18.2082 48.7459 15.6763 48.7459 12.8746ZM55.323 12.8746C55.323 11.2266 54.6638 9.62356 53.1506 9.62356C51.6374 9.62356 50.9782 11.2266 50.9782 12.8746C50.9782 14.5227 51.6374 16.1257 53.1506 16.1257C54.6638 16.1257 55.323 14.5227 55.323 12.8746ZM61.8703 7.54107C63.9678 7.54107 65.511 8.91941 65.511 10.8671C65.511 12.1705 64.8817 13.1443 63.3086 14.4328C62.2898 15.2718 61.286 16.0358 61.286 16.0358H65.6008V18.0135H58.1848V16.2456L62.1101 12.8746C62.9341 12.1555 63.2786 11.6162 63.2786 11.0169C63.2786 10.1929 62.6644 9.60858 61.8703 9.60858C60.9714 9.60858 60.4021 10.3277 60.3871 11.3615H58.2147C58.2147 9.03927 59.653 7.54107 61.8703 7.54107ZM68.5124 13.6687L66.5348 13.2642L67.2988 7.72086H73.2017V9.63854H68.9768L68.6922 11.6012C69.1716 11.2116 69.8757 10.9869 70.5949 10.9869C72.5575 10.9869 73.9358 12.5301 73.9358 14.4028C73.9358 16.5752 72.2728 18.2082 70.1005 18.2082C67.8382 18.2082 66.325 16.8299 66.2801 14.8373H68.4225C68.4974 15.5714 69.0967 16.2006 70.0855 16.2006C71.0293 16.2006 71.7485 15.4515 71.7485 14.5077C71.7485 13.5488 71.0144 12.8297 70.0555 12.8297C69.3813 12.8297 68.842 13.1893 68.5124 13.6687ZM81.373 7.52609H83.3656L87.5755 18.0135H85.2233L84.3394 15.7512H80.3392L79.4553 18.0135H77.1481L81.373 7.52609ZM82.3318 10.3876L81.0284 13.8185H83.6652L82.3318 10.3876ZM91.4712 18.0135H89.6434L86.0477 7.52609H88.3999L90.5872 14.4627L92.8195 7.52609H94.6473L96.8647 14.4627L99.067 7.52609H101.374L97.7786 18.0135H95.9358L93.7035 11.0169L91.4712 18.0135ZM104.074 7.52609H106.066L110.276 18.0135H107.924L107.04 15.7512H103.04L102.156 18.0135H99.8486L104.074 7.52609ZM105.032 10.3876L103.729 13.8185H106.366L105.032 10.3876ZM113.286 14.1781V18.0135H111.054V7.52609H114.545C116.807 7.52609 118.38 8.73963 118.38 10.882C118.38 12.3802 117.481 13.429 116.223 13.9084L119.114 18.0135H116.462L113.885 14.1781H113.286ZM113.286 9.54865V12.3203H114.56C115.459 12.3203 116.118 11.7959 116.118 10.927C116.118 10.0431 115.459 9.54865 114.56 9.54865H113.286ZM128.809 12.7698C128.809 15.7212 126.411 18.0135 123.475 18.0135H119.924V7.52609H123.475C126.411 7.52609 128.809 9.81833 128.809 12.7698ZM126.501 12.7698C126.501 11.0319 125.153 9.63854 123.415 9.63854H122.172V15.901H123.415C125.153 15.901 126.501 14.5077 126.501 12.7698ZM137.564 18.0135H135.736L132.141 7.52609H134.493L136.68 14.4627L138.912 7.52609H140.74L142.958 14.4627L145.16 7.52609H147.467L143.871 18.0135H142.029L139.796 11.0169L137.564 18.0135ZM148.247 7.52609H150.509V18.0135H148.247V7.52609ZM159.451 7.52609H161.638V18.0135H159.391L154.462 11.0918V18.0135H152.275V7.52609H154.567L159.451 14.4777V7.52609ZM170.589 7.52609H172.777V18.0135H170.529L165.6 11.0918V18.0135H163.413V7.52609H165.705L170.589 14.4777V7.52609ZM174.551 7.52609H176.813V18.0135H174.551V7.52609ZM185.755 7.52609H187.942V18.0135H185.695L180.766 11.0918V18.0135H178.579V7.52609H180.871L185.755 14.4777V7.52609ZM199.44 10.0431L197.402 11.0319C196.878 10.0281 195.904 9.45876 194.691 9.45876C192.908 9.45876 191.5 10.927 191.5 12.7698C191.5 14.6126 192.908 16.0958 194.706 16.0958C196.099 16.0958 197.193 15.2718 197.462 14.0732H194.421V12.1855H199.874V13.0245C199.874 15.9459 197.687 18.2082 194.691 18.2082C191.634 18.2082 189.222 15.7662 189.222 12.7698C189.222 9.77338 191.694 7.33132 194.706 7.33132C196.803 7.33132 198.586 8.36508 199.44 10.0431ZM204.136 7.52609H207.702C209.979 7.52609 211.552 8.75461 211.552 10.912C211.552 13.0544 209.979 14.2979 207.702 14.2979H206.384V18.0135H204.136V7.52609ZM206.384 9.54865V12.3053H207.747C208.646 12.3053 209.29 11.7959 209.29 10.927C209.29 10.058 208.646 9.54865 207.747 9.54865H206.384ZM214.771 14.1781V18.0135H212.538V7.52609H216.029C218.291 7.52609 219.865 8.73963 219.865 10.882C219.865 12.3802 218.966 13.429 217.707 13.9084L220.599 18.0135H217.947L215.37 14.1781H214.771ZM214.771 9.54865V12.3203H216.044C216.943 12.3203 217.602 11.7959 217.602 10.927C217.602 10.0431 216.943 9.54865 216.044 9.54865H214.771ZM231.662 12.7698C231.662 15.7961 229.22 18.2082 226.178 18.2082C223.137 18.2082 220.695 15.7961 220.695 12.7698C220.695 9.74342 223.137 7.33132 226.178 7.33132C229.22 7.33132 231.662 9.74342 231.662 12.7698ZM229.354 12.7698C229.354 10.957 227.961 9.51869 226.178 9.51869C224.395 9.51869 223.002 10.957 223.002 12.7698C223.002 14.5826 224.395 16.0209 226.178 16.0209C227.961 16.0209 229.354 14.5826 229.354 12.7698ZM242.738 10.0431L240.701 11.0319C240.176 10.0281 239.203 9.45876 237.989 9.45876C236.206 9.45876 234.798 10.927 234.798 12.7698C234.798 14.6126 236.206 16.0958 238.004 16.0958C239.397 16.0958 240.491 15.2718 240.761 14.0732H237.719V12.1855H243.173V13.0245C243.173 15.9459 240.986 18.2082 237.989 18.2082C234.933 18.2082 232.521 15.7662 232.521 12.7698C232.521 9.77338 234.993 7.33132 238.004 7.33132C240.102 7.33132 241.884 8.36508 242.738 10.0431ZM246.62 14.1781V18.0135H244.387V7.52609H247.878C250.14 7.52609 251.714 8.73963 251.714 10.882C251.714 12.3802 250.815 13.429 249.556 13.9084L252.448 18.0135H249.796L247.219 14.1781H246.62ZM246.62 9.54865V12.3203H247.893C248.792 12.3203 249.451 11.7959 249.451 10.927C249.451 10.0431 248.792 9.54865 247.893 9.54865H246.62ZM256.713 7.52609H258.706L262.916 18.0135H260.564L259.68 15.7512H255.68L254.796 18.0135H252.488L256.713 7.52609ZM257.672 10.3876L256.369 13.8185H259.006L257.672 10.3876ZM273.027 7.52609H275.694V18.0135H273.507V11.2566L270.42 18.0135H268.952L265.881 11.2866V18.0135H263.694V7.52609H266.435L269.731 14.8223L273.027 7.52609Z" fill="url(#paint0_linear_6844_5266)"/>
<path d="M285.193 9.62356C285.592 9.62356 285.956 9.67949 286.283 9.79136C286.619 9.89523 286.907 10.051 287.146 10.2588C287.386 10.4665 287.57 10.7222 287.698 11.0259C287.834 11.3215 287.902 11.6611 287.902 12.0446C287.902 12.4282 287.834 12.7718 287.698 13.0754C287.57 13.371 287.386 13.6227 287.146 13.8305C286.907 14.0303 286.619 14.1861 286.283 14.2979C285.956 14.4018 285.592 14.4537 285.193 14.4537H283.659V18.0135H282.592V9.62356H285.193ZM283.659 13.4709H285.193C285.672 13.4709 286.064 13.3471 286.367 13.0994C286.671 12.8517 286.823 12.5001 286.823 12.0446C286.823 11.5812 286.671 11.2256 286.367 10.9779C286.064 10.7302 285.672 10.6064 285.193 10.6064H283.659V13.4709ZM291.852 13.1473C291.836 13.1473 291.812 13.1433 291.78 13.1353C291.756 13.1353 291.724 13.1353 291.684 13.1353C291.644 13.1273 291.604 13.1233 291.564 13.1233C291.021 13.1233 290.593 13.3191 290.282 13.7106C289.978 14.1022 289.826 14.6136 289.826 15.2448V18.0135H288.808V12.1885H289.814V13.2192C289.878 13.0514 289.97 12.8996 290.09 12.7638C290.218 12.62 290.362 12.5001 290.521 12.4042C290.681 12.3083 290.853 12.2324 291.037 12.1765C291.221 12.1206 291.408 12.0926 291.6 12.0926C291.64 12.0926 291.672 12.0966 291.696 12.1046C291.728 12.1046 291.756 12.1046 291.78 12.1046C291.812 12.1126 291.836 12.1166 291.852 12.1166V13.1473ZM295.086 18.1453C294.654 18.1453 294.255 18.0694 293.887 17.9176C293.528 17.7658 293.216 17.558 292.952 17.2943C292.689 17.0226 292.481 16.703 292.329 16.3355C292.185 15.9599 292.113 15.5484 292.113 15.101C292.113 14.6695 292.185 14.27 292.329 13.9024C292.481 13.5269 292.685 13.2032 292.94 12.9316C293.204 12.6599 293.512 12.4482 293.863 12.2963C294.215 12.1365 294.598 12.0566 295.014 12.0566C295.421 12.0566 295.797 12.1365 296.141 12.2963C296.492 12.4482 296.792 12.6599 297.039 12.9316C297.295 13.2032 297.491 13.5229 297.627 13.8904C297.771 14.25 297.842 14.6375 297.842 15.053C297.842 15.1169 297.839 15.1729 297.831 15.2208C297.831 15.2608 297.831 15.2967 297.831 15.3287V15.4246H293.144C293.16 15.6803 293.224 15.92 293.336 16.1437C293.448 16.3594 293.592 16.5472 293.767 16.707C293.943 16.8668 294.143 16.9947 294.367 17.0906C294.598 17.1785 294.842 17.2224 295.098 17.2224C295.537 17.2224 295.881 17.1305 296.129 16.9467C296.384 16.755 296.604 16.5153 296.788 16.2276L297.627 16.6591C297.387 17.0986 297.051 17.4581 296.62 17.7378C296.188 18.0095 295.677 18.1453 295.086 18.1453ZM296.8 14.5736C296.776 14.3419 296.712 14.1301 296.608 13.9384C296.504 13.7386 296.372 13.5668 296.212 13.423C296.053 13.2792 295.869 13.1673 295.661 13.0874C295.453 12.9995 295.23 12.9555 294.99 12.9555C294.75 12.9555 294.526 13.0035 294.319 13.0994C294.111 13.1953 293.923 13.3191 293.755 13.4709C293.596 13.6227 293.464 13.7945 293.36 13.9863C293.256 14.1781 293.192 14.3738 293.168 14.5736H296.8ZM299.345 16.2156C299.433 16.5272 299.593 16.7789 299.824 16.9707C300.064 17.1545 300.336 17.2464 300.639 17.2464C300.887 17.2464 301.111 17.1745 301.311 17.0306C301.51 16.8868 301.61 16.6871 301.61 16.4314C301.61 16.0558 301.335 15.7761 300.783 15.5924L300.136 15.3766C299.609 15.2008 299.225 14.9771 298.985 14.7054C298.754 14.4258 298.638 14.0982 298.638 13.7226C298.638 13.4749 298.686 13.2512 298.782 13.0514C298.878 12.8437 299.009 12.6679 299.177 12.5241C299.345 12.3723 299.545 12.2564 299.776 12.1765C300.008 12.0966 300.26 12.0566 300.532 12.0566C301.011 12.0566 301.422 12.1845 301.766 12.4402C302.11 12.6879 302.361 13.0315 302.521 13.4709L301.622 13.8305C301.518 13.5508 301.371 13.3351 301.179 13.1833C300.987 13.0235 300.763 12.9436 300.508 12.9436C300.268 12.9436 300.064 13.0115 299.896 13.1473C299.737 13.2752 299.657 13.443 299.657 13.6507C299.657 13.9943 299.94 14.266 300.508 14.4657L301.107 14.6695C301.634 14.8533 302.018 15.089 302.257 15.3766C302.505 15.6563 302.629 15.9879 302.629 16.3714C302.629 16.6271 302.577 16.8668 302.473 17.0906C302.369 17.3063 302.226 17.4941 302.042 17.6539C301.866 17.8057 301.654 17.9256 301.407 18.0135C301.167 18.1013 300.903 18.1453 300.615 18.1453C300.072 18.1453 299.605 18.0015 299.213 17.7138C298.83 17.4262 298.57 17.0426 298.434 16.5632L299.345 16.2156ZM306.27 18.1453C305.839 18.1453 305.439 18.0694 305.072 17.9176C304.712 17.7658 304.401 17.558 304.137 17.2943C303.873 17.0226 303.665 16.703 303.514 16.3355C303.37 15.9599 303.298 15.5484 303.298 15.101C303.298 14.6695 303.37 14.27 303.514 13.9024C303.665 13.5269 303.869 13.2032 304.125 12.9316C304.389 12.6599 304.696 12.4482 305.048 12.2963C305.399 12.1365 305.783 12.0566 306.198 12.0566C306.606 12.0566 306.981 12.1365 307.325 12.2963C307.677 12.4482 307.976 12.6599 308.224 12.9316C308.48 13.2032 308.675 13.5229 308.811 13.8904C308.955 14.25 309.027 14.6375 309.027 15.053C309.027 15.1169 309.023 15.1729 309.015 15.2208C309.015 15.2608 309.015 15.2967 309.015 15.3287V15.4246H304.329C304.345 15.6803 304.409 15.92 304.52 16.1437C304.632 16.3594 304.776 16.5472 304.952 16.707C305.128 16.8668 305.327 16.9947 305.551 17.0906C305.783 17.1785 306.027 17.2224 306.282 17.2224C306.722 17.2224 307.065 17.1305 307.313 16.9467C307.569 16.755 307.788 16.5153 307.972 16.2276L308.811 16.6591C308.572 17.0986 308.236 17.4581 307.804 17.7378C307.373 18.0095 306.862 18.1453 306.27 18.1453ZM307.984 14.5736C307.96 14.3419 307.896 14.1301 307.792 13.9384C307.689 13.7386 307.557 13.5668 307.397 13.423C307.237 13.2792 307.053 13.1673 306.846 13.0874C306.638 12.9995 306.414 12.9555 306.174 12.9555C305.935 12.9555 305.711 13.0035 305.503 13.0994C305.295 13.1953 305.108 13.3191 304.94 13.4709C304.78 13.6227 304.648 13.7945 304.544 13.9863C304.441 14.1781 304.377 14.3738 304.353 14.5736H307.984ZM311.142 18.0135H310.111V12.1885H311.142V13.0275C311.326 12.7398 311.57 12.5081 311.873 12.3323C312.185 12.1485 312.56 12.0566 313 12.0566C313.751 12.0566 314.33 12.2884 314.738 12.7518C315.145 13.2072 315.349 13.8225 315.349 14.5976V18.0135H314.318V14.7174C314.318 14.1901 314.186 13.7746 313.923 13.4709C313.667 13.1673 313.288 13.0155 312.784 13.0155C312.281 13.0155 311.881 13.1913 311.586 13.5428C311.29 13.8944 311.142 14.3698 311.142 14.9691V18.0135ZM318.021 10.4386V12.1885H319.651V13.1114H318.021V16.1916C318.021 16.5352 318.097 16.7869 318.249 16.9467C318.409 17.1065 318.657 17.1865 318.992 17.1865C319.104 17.1865 319.22 17.1745 319.34 17.1505C319.46 17.1185 319.564 17.0706 319.651 17.0067V17.9655C319.548 18.0214 319.42 18.0654 319.268 18.0974C319.124 18.1293 318.952 18.1453 318.753 18.1453C318.201 18.1453 317.77 17.9855 317.458 17.6659C317.146 17.3463 316.991 16.9028 316.991 16.3355V13.1114H316.092V12.1885H316.991V10.4386H318.021ZM323.158 18.1453C322.727 18.1453 322.327 18.0694 321.96 17.9176C321.6 17.7658 321.289 17.558 321.025 17.2943C320.761 17.0226 320.553 16.703 320.402 16.3355C320.258 15.9599 320.186 15.5484 320.186 15.101C320.186 14.6695 320.258 14.27 320.402 13.9024C320.553 13.5269 320.757 13.2032 321.013 12.9316C321.277 12.6599 321.584 12.4482 321.936 12.2963C322.287 12.1365 322.671 12.0566 323.086 12.0566C323.494 12.0566 323.869 12.1365 324.213 12.2963C324.565 12.4482 324.864 12.6599 325.112 12.9316C325.368 13.2032 325.563 13.5229 325.699 13.8904C325.843 14.25 325.915 14.6375 325.915 15.053C325.915 15.1169 325.911 15.1729 325.903 15.2208C325.903 15.2608 325.903 15.2967 325.903 15.3287V15.4246H321.217C321.233 15.6803 321.296 15.92 321.408 16.1437C321.52 16.3594 321.664 16.5472 321.84 16.707C322.016 16.8668 322.215 16.9947 322.439 17.0906C322.671 17.1785 322.915 17.2224 323.17 17.2224C323.61 17.2224 323.953 17.1305 324.201 16.9467C324.457 16.755 324.676 16.5153 324.86 16.2276L325.699 16.6591C325.459 17.0986 325.124 17.4581 324.692 17.7378C324.261 18.0095 323.75 18.1453 323.158 18.1453ZM324.872 14.5736C324.848 14.3419 324.784 14.1301 324.68 13.9384C324.577 13.7386 324.445 13.5668 324.285 13.423C324.125 13.2792 323.941 13.1673 323.734 13.0874C323.526 12.9995 323.302 12.9555 323.062 12.9555C322.823 12.9555 322.599 13.0035 322.391 13.0994C322.183 13.1953 321.996 13.3191 321.828 13.4709C321.668 13.6227 321.536 13.7945 321.432 13.9863C321.328 14.1781 321.265 14.3738 321.241 14.5736H324.872ZM332.643 9.62356V18.0135H331.624V17.0906C331.417 17.4102 331.129 17.6659 330.761 17.8576C330.394 18.0494 329.994 18.1453 329.563 18.1453C329.147 18.1453 328.76 18.0694 328.4 17.9176C328.049 17.7578 327.741 17.542 327.477 17.2703C327.214 16.9987 327.006 16.6791 326.854 16.3115C326.71 15.936 326.638 15.5324 326.638 15.101C326.638 14.6695 326.71 14.27 326.854 13.9024C327.006 13.5349 327.214 13.2152 327.477 12.9436C327.741 12.6639 328.049 12.4482 328.4 12.2963C328.76 12.1365 329.147 12.0566 329.563 12.0566C329.994 12.0566 330.39 12.1445 330.749 12.3203C331.117 12.4961 331.409 12.7438 331.624 13.0634V9.62356H332.643ZM331.684 15.101C331.684 14.8053 331.632 14.5297 331.528 14.274C331.433 14.0183 331.293 13.7985 331.109 13.6148C330.933 13.423 330.721 13.2752 330.474 13.1713C330.234 13.0594 329.97 13.0035 329.683 13.0035C329.395 13.0035 329.127 13.0594 328.88 13.1713C328.64 13.2752 328.428 13.423 328.244 13.6148C328.069 13.7985 327.929 14.0183 327.825 14.274C327.729 14.5297 327.681 14.8053 327.681 15.101C327.681 15.3966 327.729 15.6723 327.825 15.928C327.929 16.1837 328.069 16.4074 328.244 16.5992C328.428 16.7829 328.64 16.9308 328.88 17.0426C329.127 17.1465 329.395 17.1984 329.683 17.1984C329.97 17.1984 330.234 17.1465 330.474 17.0426C330.721 16.9308 330.933 16.7829 331.109 16.5992C331.293 16.4074 331.433 16.1837 331.528 15.928C331.632 15.6723 331.684 15.3966 331.684 15.101ZM336.779 18.0135V9.62356H337.798V13.1114C338.006 12.7917 338.293 12.5361 338.661 12.3443C339.029 12.1525 339.428 12.0566 339.86 12.0566C340.275 12.0566 340.659 12.1365 341.01 12.2963C341.37 12.4482 341.681 12.6599 341.945 12.9316C342.209 13.2032 342.412 13.5269 342.556 13.9024C342.708 14.27 342.784 14.6695 342.784 15.101C342.784 15.5324 342.708 15.932 342.556 16.2995C342.412 16.6671 342.209 16.9907 341.945 17.2703C341.681 17.542 341.37 17.7578 341.01 17.9176C340.659 18.0694 340.275 18.1453 339.86 18.1453C339.428 18.1453 339.029 18.0574 338.661 17.8816C338.301 17.7058 338.014 17.4581 337.798 17.1385V18.0135H336.779ZM341.741 15.101C341.741 14.8053 341.689 14.5297 341.585 14.274C341.49 14.0183 341.35 13.7985 341.166 13.6148C340.99 13.423 340.778 13.2752 340.531 13.1713C340.291 13.0594 340.027 13.0035 339.74 13.0035C339.452 13.0035 339.184 13.0594 338.937 13.1713C338.697 13.2752 338.485 13.423 338.301 13.6148C338.126 13.7985 337.986 14.0183 337.882 14.274C337.786 14.5297 337.738 14.8053 337.738 15.101C337.738 15.3966 337.786 15.6723 337.882 15.928C337.986 16.1837 338.126 16.4074 338.301 16.5992C338.485 16.7829 338.697 16.9308 338.937 17.0426C339.184 17.1465 339.452 17.1984 339.74 17.1984C340.027 17.1984 340.291 17.1465 340.531 17.0426C340.778 16.9308 340.99 16.7829 341.166 16.5992C341.35 16.4074 341.49 16.1837 341.585 15.928C341.689 15.6723 341.741 15.3966 341.741 15.101ZM345.916 18.9004C345.653 19.5316 345.377 19.9791 345.089 20.2428C344.802 20.5144 344.438 20.6503 343.999 20.6503C343.759 20.6503 343.547 20.6103 343.363 20.5304V19.6195C343.427 19.6435 343.507 19.6635 343.603 19.6794C343.699 19.7034 343.803 19.7154 343.915 19.7154C344.146 19.7154 344.338 19.6395 344.49 19.4877C344.65 19.3359 344.81 19.0722 344.969 18.6966L345.317 17.8576L343.004 12.1885H344.106L345.856 16.6831L347.654 12.1885H348.721L345.916 18.9004ZM351.775 13.8185C351.775 13.2112 351.883 12.6439 352.099 12.1166C352.322 11.5892 352.626 11.1297 353.009 10.7382C353.401 10.3467 353.856 10.0391 354.376 9.81533C354.903 9.5916 355.466 9.47974 356.066 9.47974C356.945 9.47974 357.764 9.73143 358.523 10.2348V11.4214C357.716 10.8141 356.889 10.5105 356.042 10.5105C355.594 10.5105 355.179 10.5984 354.795 10.7742C354.412 10.942 354.076 11.1737 353.788 11.4693C353.509 11.765 353.285 12.1166 353.117 12.5241C352.957 12.9236 352.878 13.3551 352.878 13.8185C352.878 14.274 352.957 14.7054 353.117 15.1129C353.285 15.5125 353.509 15.86 353.788 16.1557C354.076 16.4513 354.412 16.6871 354.795 16.8628C355.179 17.0306 355.594 17.1145 356.042 17.1145C356.889 17.1145 357.724 16.8189 358.547 16.2276V17.4142C357.764 17.9016 356.933 18.1453 356.054 18.1453C355.454 18.1453 354.895 18.0334 354.376 17.8097C353.856 17.586 353.401 17.2823 353.009 16.8988C352.626 16.5073 352.322 16.0478 352.099 15.5205C351.883 14.9931 351.775 14.4258 351.775 13.8185ZM360.706 9.62356V18.0135H359.675V9.62356H360.706ZM363.476 10.4626C363.476 10.6543 363.408 10.8181 363.272 10.954C363.136 11.0898 362.972 11.1577 362.78 11.1577C362.589 11.1577 362.425 11.0898 362.289 10.954C362.153 10.8181 362.085 10.6543 362.085 10.4626C362.085 10.2708 362.153 10.107 362.289 9.97114C362.425 9.83531 362.589 9.76739 362.78 9.76739C362.972 9.76739 363.136 9.83531 363.272 9.97114C363.408 10.107 363.476 10.2708 363.476 10.4626ZM363.296 12.1885V18.0135H362.265V12.1885H363.296ZM364.435 15.101C364.435 14.6775 364.507 14.282 364.651 13.9144C364.803 13.5388 365.015 13.2152 365.286 12.9436C365.558 12.6639 365.878 12.4482 366.245 12.2963C366.621 12.1365 367.032 12.0566 367.48 12.0566C368.087 12.0566 368.638 12.2244 369.134 12.56V13.6028C368.622 13.2112 368.087 13.0155 367.528 13.0155C367.232 13.0155 366.956 13.0714 366.701 13.1833C366.453 13.2871 366.237 13.435 366.054 13.6267C365.878 13.8105 365.738 14.0303 365.634 14.2859C365.53 14.5336 365.478 14.8053 365.478 15.101C365.478 15.3886 365.53 15.6603 365.634 15.916C365.738 16.1717 365.878 16.3954 366.054 16.5872C366.237 16.771 366.453 16.9188 366.701 17.0306C366.956 17.1345 367.232 17.1865 367.528 17.1865C367.831 17.1865 368.123 17.1305 368.403 17.0187C368.682 16.8988 368.938 16.763 369.17 16.6111V17.6539C368.914 17.8137 368.646 17.9336 368.367 18.0135C368.087 18.1013 367.795 18.1453 367.492 18.1453C367.036 18.1453 366.621 18.0694 366.245 17.9176C365.87 17.7578 365.546 17.542 365.274 17.2703C365.011 16.9907 364.803 16.6671 364.651 16.2995C364.507 15.932 364.435 15.5324 364.435 15.101ZM371.296 14.5017L373.741 12.1885H375.06L372.411 14.6695L375.287 18.0135H373.981L371.692 15.3047L371.296 15.6763V18.0135H370.278V9.62356H371.296V14.5017ZM377.191 18.0135H376.124V9.62356H380.691V10.6064H377.191V13.1713H380.499V14.1421H377.191V18.0135ZM385.853 12.1885H386.884V18.0135H385.853V17.1745C385.67 17.4621 385.426 17.6978 385.122 17.8816C384.819 18.0574 384.447 18.1453 384.008 18.1453C383.265 18.1453 382.689 17.9176 382.282 17.4621C381.882 16.9987 381.682 16.3794 381.682 15.6044V12.1885H382.713V15.4845C382.713 16.0119 382.841 16.4274 383.097 16.731C383.352 17.0346 383.728 17.1865 384.223 17.1865C384.719 17.1865 385.114 17.0107 385.41 16.6591C385.706 16.3075 385.853 15.8321 385.853 15.2328V12.1885ZM389.472 18.0135H388.441V12.1885H389.472V13.0275C389.656 12.7398 389.899 12.5081 390.203 12.3323C390.515 12.1485 390.89 12.0566 391.33 12.0566C392.081 12.0566 392.66 12.2884 393.068 12.7518C393.475 13.2072 393.679 13.8225 393.679 14.5976V18.0135H392.648V14.7174C392.648 14.1901 392.516 13.7746 392.253 13.4709C391.997 13.1673 391.617 13.0155 391.114 13.0155C390.611 13.0155 390.211 13.1913 389.915 13.5428C389.62 13.8944 389.472 14.3698 389.472 14.9691V18.0135ZM396.182 18.0135H395.151V12.1885H396.182V13.0275C396.366 12.7398 396.61 12.5081 396.913 12.3323C397.225 12.1485 397.6 12.0566 398.04 12.0566C398.791 12.0566 399.37 12.2884 399.778 12.7518C400.185 13.2072 400.389 13.8225 400.389 14.5976V18.0135H399.358V14.7174C399.358 14.1901 399.226 13.7746 398.963 13.4709C398.707 13.1673 398.327 13.0155 397.824 13.0155C397.321 13.0155 396.921 13.1913 396.626 13.5428C396.33 13.8944 396.182 14.3698 396.182 14.9691V18.0135ZM404.414 18.1453C403.983 18.1453 403.583 18.0694 403.216 17.9176C402.856 17.7658 402.545 17.558 402.281 17.2943C402.017 17.0226 401.809 16.703 401.658 16.3355C401.514 15.9599 401.442 15.5484 401.442 15.101C401.442 14.6695 401.514 14.27 401.658 13.9024C401.809 13.5269 402.013 13.2032 402.269 12.9316C402.533 12.6599 402.84 12.4482 403.192 12.2963C403.543 12.1365 403.927 12.0566 404.342 12.0566C404.75 12.0566 405.125 12.1365 405.469 12.2963C405.821 12.4482 406.12 12.6599 406.368 12.9316C406.624 13.2032 406.819 13.5229 406.955 13.8904C407.099 14.25 407.171 14.6375 407.171 15.053C407.171 15.1169 407.167 15.1729 407.159 15.2208C407.159 15.2608 407.159 15.2967 407.159 15.3287V15.4246H402.473C402.489 15.6803 402.553 15.92 402.664 16.1437C402.776 16.3594 402.92 16.5472 403.096 16.707C403.272 16.8668 403.471 16.9947 403.695 17.0906C403.927 17.1785 404.171 17.2224 404.426 17.2224C404.866 17.2224 405.209 17.1305 405.457 16.9467C405.713 16.755 405.932 16.5153 406.116 16.2276L406.955 16.6591C406.715 17.0986 406.38 17.4581 405.948 17.7378C405.517 18.0095 405.006 18.1453 404.414 18.1453ZM406.128 14.5736C406.104 14.3419 406.04 14.1301 405.936 13.9384C405.833 13.7386 405.701 13.5668 405.541 13.423C405.381 13.2792 405.197 13.1673 404.99 13.0874C404.782 12.9995 404.558 12.9555 404.318 12.9555C404.079 12.9555 403.855 13.0035 403.647 13.0994C403.439 13.1953 403.252 13.3191 403.084 13.4709C402.924 13.6227 402.792 13.7945 402.688 13.9863C402.584 14.1781 402.521 14.3738 402.497 14.5736H406.128ZM409.286 9.62356V18.0135H408.255V9.62356H409.286ZM411.205 16.2156C411.293 16.5272 411.453 16.7789 411.684 16.9707C411.924 17.1545 412.196 17.2464 412.499 17.2464C412.747 17.2464 412.971 17.1745 413.171 17.0306C413.37 16.8868 413.47 16.6871 413.47 16.4314C413.47 16.0558 413.195 15.7761 412.643 15.5924L411.996 15.3766C411.469 15.2008 411.085 14.9771 410.845 14.7054C410.614 14.4258 410.498 14.0982 410.498 13.7226C410.498 13.4749 410.546 13.2512 410.642 13.0514C410.737 12.8437 410.869 12.6679 411.037 12.5241C411.205 12.3723 411.405 12.2564 411.636 12.1765C411.868 12.0966 412.12 12.0566 412.391 12.0566C412.871 12.0566 413.282 12.1845 413.626 12.4402C413.97 12.6879 414.221 13.0315 414.381 13.4709L413.482 13.8305C413.378 13.5508 413.23 13.3351 413.039 13.1833C412.847 13.0235 412.623 12.9436 412.368 12.9436C412.128 12.9436 411.924 13.0115 411.756 13.1473C411.596 13.2752 411.517 13.443 411.517 13.6507C411.517 13.9943 411.8 14.266 412.368 14.4657L412.967 14.6695C413.494 14.8533 413.878 15.089 414.117 15.3766C414.365 15.6563 414.489 15.9879 414.489 16.3714C414.489 16.6271 414.437 16.8668 414.333 17.0906C414.229 17.3063 414.085 17.4941 413.902 17.6539C413.726 17.8057 413.514 17.9256 413.266 18.0135C413.027 18.1013 412.763 18.1453 412.475 18.1453C411.932 18.1453 411.465 18.0015 411.073 17.7138C410.69 17.4262 410.43 17.0426 410.294 16.5632L411.205 16.2156Z" fill="white"/>
<defs>
<linearGradient id="paint0_linear_6844_5266" x1="94.9693" y1="4.96738" x2="103.775" y2="56.9654" gradientUnits="userSpaceOnUse">
<stop stop-color="#FADB0E"/>
<stop offset="1" stop-color="#C07102"/>
</linearGradient>
</defs>
</svg>
