<svg width="462" height="220" viewBox="0 0 462 220" fill="none" xmlns="http://www.w3.org/2000/svg">
<path d="M460.386 120.333C460.334 123.3 460.323 113.393 460.257 119.972C460.242 118.6 460.226 117.219 460.21 115.847C460.247 115.5 460.285 115.143 460.323 114.795C460.344 116.637 460.365 118.481 460.386 120.333C460.386 120.333 460.386 120.333 460.386 120.333ZM460.864 122.848C460.758 121.16 460.711 115.795 460.628 121.59C460.666 122.051 460.704 122.523 460.742 122.983C460.718 124.996 460.696 127.02 460.675 129.032C460.69 129.756 460.705 130.478 460.72 131.202C460.664 132.123 460.609 133.037 460.555 133.958C460.56 133.14 460.565 132.311 460.571 131.493C460.51 128.258 460.482 125.38 460.453 120.989C460.439 121.375 460.426 121.761 460.413 122.147C460.427 119.918 460.444 117.691 460.461 115.472C460.496 117.399 460.533 119.554 460.563 121.34C460.654 118.482 460.584 113.44 460.551 110.816C460.507 107.243 460.563 108.05 460.531 105.399C460.526 104.976 460.484 104.928 460.48 104.091C460.46 99.8687 460.456 91.668 460.577 96.464C460.585 103.413 460.679 109.34 460.669 116.158C460.77 114.355 460.815 117.946 460.864 122.848ZM444.423 4.19623C446.441 4.36204 450.361 5.90195 452.499 7.71271C452.502 7.71463 452.504 7.71655 452.507 7.71846C452.99 8.09888 453.98 9.05756 452.428 7.82356C449.818 5.92564 448.349 5.23384 446.698 4.8218C445.98 4.57319 445.204 4.35987 444.423 4.19623ZM437.202 3.92462C435.115 3.88065 436.062 3.72334 438.676 3.75886C438.676 3.75874 438.676 3.75862 438.676 3.7585C439.713 3.7724 437.829 3.88697 441 3.78451C441.16 3.7792 441.332 3.77524 441.518 3.77365C442.282 3.8865 443.028 4.0346 443.755 4.2294C442.855 4.10516 442.027 4.04675 441.073 4.04603C441.249 4.00413 441.203 3.97788 441 3.96242C440.437 3.92233 438.72 3.95611 437.202 3.92462ZM460.514 92.9361C460.424 92.6077 460.429 93.9825 460.379 96.3237C460.373 94.114 460.367 91.904 460.361 89.7038C460.413 90.7848 460.464 91.8551 460.514 92.9361ZM460.676 144.847C460.676 144.851 460.676 144.854 460.677 144.858C460.688 145.582 460.699 146.308 460.71 147.022C460.692 147.455 460.674 147.883 460.656 148.315C460.685 150.873 460.712 153.445 460.737 156.003C460.682 155.692 460.673 151.1 460.621 148.571C460.622 144.81 460.652 142.997 460.705 142.753C460.695 143.448 460.686 144.142 460.676 144.847ZM2.31431 34.468C2.38534 35.3234 2.4564 36.1682 2.52735 37.0237C2.5599 35.8863 2.58479 34.7579 2.62253 33.611C2.31364 30.6115 2.58717 30.3297 2.56856 26.3999C2.56234 25.1018 2.5512 23.9808 2.53714 23C2.56603 19.0391 3.14397 17.4444 3.74148 15.7391C4.45287 14.1066 5.23908 12.0399 8.80692 8.96112C5.79744 11.9229 5.46505 13.3198 5.10401 14.0902C4.82543 14.9196 4.65047 15.3612 4.0335 17.7492C3.48457 18.6905 4.74085 13.8136 3.50819 16.9977C2.94489 18.9653 2.70408 20.9806 2.76939 23C2.89357 26.9711 3.00479 31.01 3.09046 35.4351C3.12399 35.2377 3.15763 35.0413 3.19116 34.8438C3.1703 33.7718 3.14928 32.7086 3.12836 31.6366C3.21782 32.7933 3.30645 33.9239 3.39679 35.0994C3.1937 33.6137 3.30639 37.4001 3.07282 36.8934C2.96886 36.6677 2.82483 34.9943 2.7255 34.0069C2.67104 36.5549 2.62116 39.1681 2.56836 41.7443C2.48574 40.4094 2.40295 39.0758 2.32017 37.7503C2.31768 36.6601 2.31591 35.5782 2.3134 34.488C2.31371 34.4813 2.31401 34.4747 2.31431 34.468ZM375.461 217.734C372.226 217.767 366.347 217.762 363.253 217.691C367.325 217.705 371.389 217.719 375.461 217.734ZM460.749 142.507C460.74 142.874 460.731 143.228 460.722 143.595C460.698 141.978 460.674 140.351 460.648 138.734C460.678 138.424 460.708 138.106 460.738 137.787C460.741 139.357 460.745 140.937 460.749 142.507ZM460.43 39.0452C460.437 40.2283 460.435 40.333 460.43 41.8064C460.431 41.8047 460.431 41.803 460.431 41.8014C460.429 42.3854 460.408 47.2721 460.363 46.7274C460.355 44.3012 460.348 41.7132 460.341 39.2306C460.371 39.1554 460.4 39.1391 460.43 39.0452ZM460.48 67.6042C460.48 67.6076 460.48 67.6109 460.48 67.6143C460.476 68.4974 460.467 69.3338 460.467 70.2452C460.395 66.9642 460.506 66.4457 460.466 63.465C460.426 60.4845 460.353 58.6426 460.509 56.1135C460.536 57.0538 460.573 58.0664 460.603 59.035C460.548 63.2663 460.611 64.4058 460.677 67.7997C460.612 67.7339 460.546 67.67 460.48 67.6042ZM32.7452 4.03526C33.5537 3.85935 34.4556 4.03187 34.5492 4.03394C34.5476 4.03414 34.5459 4.03434 34.5442 4.03455C41.707 3.87121 33.612 4.13201 40.3723 4.15883C39.3665 4.20286 38.377 4.24935 37.3806 4.29391C35.8389 4.20926 34.2493 4.11327 32.7452 4.03526ZM265.482 3.90745C265.548 3.95157 265.627 3.99575 265.693 4.03984C261.63 4.03477 260.594 4.21177 257.219 4.0565C259.973 4.00595 262.727 3.95616 265.482 3.90693C265.482 3.9071 265.482 3.90728 265.482 3.90745ZM460.107 18.6952C460.467 20.2116 460.618 21.6314 460.629 23C460.647 25.5522 460.641 27.934 460.594 30.7315C460.594 30.7349 460.594 30.7382 460.593 30.7416C460.589 30.991 460.532 29.7846 460.518 30.1101C460.528 31.0027 460.543 31.9243 460.554 32.8262C460.511 32.9484 460.467 33.0649 460.424 33.187C460.431 30.6483 460.437 28.1081 460.444 25.5599C460.419 25.9361 460.394 26.3213 460.368 26.6975C460.358 25.4634 460.347 24.2319 460.336 23C460.327 22.0999 460.258 21.2096 460.126 20.3203C460.303 21.0289 460.439 21.7524 460.534 22.4737C460.514 21.2059 460.371 19.9374 460.107 18.6952ZM197.851 3.45621C198.565 3.50776 197.242 3.59543 198.352 3.6395C199.462 3.68291 201.507 3.58513 201.028 3.73148C199.534 3.75209 197.965 3.7757 196.442 3.79742C201.342 4.05783 206.229 3.81519 206.304 4.13899C201.603 4.05998 197.737 4.10221 193.185 4.19758C193.373 3.937 197.926 3.71013 195.059 3.46811C195.98 3.46437 196.948 3.45906 197.841 3.45678C197.844 3.45659 197.847 3.4564 197.851 3.45621ZM458.538 207.942C457.332 210.517 452.592 215.111 449.204 216.313C448.429 216.72 445.65 217.526 445.655 217.481C445.744 217.487 449.134 216.525 445.493 217.513C446.731 217.233 447.908 216.848 449.064 216.345C448.855 216.432 448.646 216.514 448.444 216.591C447.019 217.159 445.525 217.56 444.007 217.784C443.933 217.795 443.859 217.805 443.785 217.815C449.177 216.696 446.011 217.39 448.709 216.471C446.277 217.485 443.624 218.005 441 218C442.516 218.011 444.299 217.787 445.596 217.472C445.779 217.478 442.637 218.013 442.082 217.971C440.531 217.975 443.751 218.176 447.272 216.991C450.846 215.913 454.158 213.12 454.573 212.653C452.746 214.357 450.489 215.779 448.099 216.687C448.784 216.424 449.461 216.119 450.112 215.781C455.277 213.197 459.842 207.615 460.768 200.865C460.853 200.262 460.91 199.654 460.94 199.052C460.92 199.231 460.899 199.398 460.875 199.575C460.914 199.052 460.933 198.529 460.931 198C460.929 197.6 460.928 197.201 460.926 196.804C460.969 199.521 460.96 195.758 460.985 191.216C461.001 193.633 460.992 196.614 461.017 196.408C460.997 188.115 461.039 178.402 461.006 170.335C460.997 168.332 460.938 168.338 460.939 163.63C460.946 163.789 460.958 163.817 460.967 163.92C460.934 155.776 460.902 150.836 460.935 142.372C460.906 142.861 460.877 143.341 460.849 143.83C460.866 145.626 460.883 147.426 460.899 149.212C460.856 150.435 460.833 148.628 460.844 153.988C460.853 158.38 460.866 155.765 460.88 156.96C460.899 158.577 460.87 159.996 460.89 161.735C460.905 163.08 460.934 161.625 460.93 165.133C460.89 163.722 460.846 162.283 460.8 160.863C460.807 160.008 460.814 159.158 460.822 158.303C460.835 159.168 460.848 160.018 460.861 160.883C460.835 157.837 460.809 154.958 460.777 151.808C460.847 152.833 460.815 149.577 460.802 147.809C460.783 145.055 460.837 147.415 460.825 145.609C460.814 143.804 460.752 141.856 460.756 138.593C460.794 140.342 460.82 137.963 460.853 138.423C460.886 138.884 460.896 142.335 460.928 139.019C460.895 132.644 460.78 139.562 460.751 135.256C460.711 130.084 460.928 128.854 460.975 130.395C461.011 131.608 461.004 135.782 461.038 137.005C461.105 129.529 460.977 129.464 460.95 128.185C460.852 123.54 461.11 126.66 461.017 121.159C461.067 121.263 461.112 121.347 461.159 121.45C461.151 120.501 461.14 119.871 461.134 118.724C461.033 122.106 461.039 119.338 461.039 117.917C461.039 115.679 460.99 119.136 460.978 118.543C460.944 116.945 460.958 114.417 460.914 115.968C460.935 115.272 460.955 114.518 460.976 113.803C460.952 111.188 460.712 105.043 460.769 110.891C460.684 110.346 460.72 108.454 460.73 106.978C460.74 105.502 460.685 105.529 460.692 104.231C460.723 99.0693 460.829 102.446 460.904 103.264C460.846 96.4468 460.818 103.121 460.767 93.2969C460.699 92.3471 460.64 96.8865 460.593 93.1064C460.705 92.4101 460.783 89.6268 460.818 84.2015C460.789 83.6748 460.76 83.1495 460.731 82.6229C460.84 79.6607 460.964 81.1748 460.815 75.6924C461.084 78.6357 460.91 76.612 461.021 71.7034C461.044 70.7066 461.1 73.01 461.129 71.6182C461.143 70.9873 461.1 69.4557 461.135 67.9149C461.152 67.1627 461.266 63.6455 461.216 61.2099C461.075 62.9966 460.955 58.369 460.841 62.3374C460.863 55.0023 460.794 49.8688 460.992 58.0879C461.036 56.2259 461.08 54.3623 461.125 52.5004C461.091 51.2026 461.056 49.8937 461.021 48.5866C461.144 48.3893 461.178 48.5875 461.16 43.4751C461.188 45.6933 461.216 47.9024 461.242 50.13C461.267 50.2052 461.292 50.5152 461.316 50.4407C461.274 47.7123 461.262 40.03 461.229 38.1682C461.197 36.3062 461.184 39.9019 461.152 39.3659C460.88 34.9 461.081 35.2541 461.034 32.0495C461.006 30.1687 460.975 34.6593 460.963 33.6531C460.917 29.9222 461.068 28.1916 461.071 24.8834C460.984 26.0585 460.896 27.2243 460.81 28.3712C460.811 26.6369 460.811 24.8032 460.807 23C460.805 21.2087 460.547 19.459 460.121 17.9208C459.77 16.7186 459.964 17.6478 459.904 17.4522C459.711 16.4421 457.878 12.7592 457.553 12.4477C455.685 9.78158 455.661 9.62982 453.255 7.54794C454.24 8.31986 455.099 9.1333 455.91 10.0513C456.393 10.3697 456.873 10.7229 457.334 11.0927C455.458 8.49737 452.956 6.35074 450.086 4.89361C452.163 5.99857 454.042 7.46998 455.606 9.20254C453.013 6.63411 449.73 4.81788 446.246 4.00261C444.556 3.45955 442.795 3.14618 441 3.06895C440.908 3.06502 440.817 3.06108 440.725 3.05713C435.592 3.07888 436.626 3.41719 434.191 3.12235C432.677 3.14802 431.164 3.17403 429.65 3.20008C429.867 3.15701 430.081 3.11394 430.297 3.07104C428.473 3.0978 426.649 3.12481 424.825 3.15277C426.743 3.3062 428.623 3.46496 430.522 3.60858C426.932 3.64863 426.863 3.51876 426.328 3.48697C424.908 3.40256 422.089 3.52353 420.961 3.44435C420.58 3.41675 424.098 3.32625 422.885 3.22757C422.648 3.20972 417.938 2.83946 414.932 2.92385C414.989 2.992 415.221 3.07547 415.343 3.14942C411.301 3.19378 409.24 2.83316 409.776 2.7319C407.622 2.80116 404.475 2.80565 404.033 2.9179C402.933 2.9204 401.841 2.92278 400.741 2.92533C401.887 2.65047 397.298 2.69649 396.997 2.93652C398.887 2.94276 400.78 2.94923 402.67 2.95529C401.241 3.24474 406.984 3.419 395.033 3.15431C392.748 3.00141 399.095 3.17392 397.233 3.0599C393.998 2.99343 390.962 3.05023 387.887 2.94137C384.061 2.80454 388.768 2.67314 379.854 2.84473C399.517 3.28393 377.157 3.14069 367.922 3.28831C365.383 2.84289 357.584 2.68879 346.845 2.82328C347.964 2.95411 351.342 2.88754 353.289 2.93047C355.236 2.97301 353.13 3.04947 355.554 3.10902C357.98 3.16853 363.131 3.24702 365.587 3.33369C363.507 3.40553 353.242 3.58651 360.029 3.37541C354.963 3.25348 352.583 3.12243 346.304 3.09933C344.423 3.30379 344.562 3.43148 338.441 3.44275C342.061 3.15381 335.105 2.95575 336.637 2.65679C340.978 2.72878 338.551 3.01613 341.062 3.15351C341.319 3.16706 345.364 3.09427 346.304 3.09933C342.222 2.84442 340.811 2.74475 343.322 2.44135C340.435 2.46509 338.639 2.42445 338.376 2.57168C337.774 2.50723 337.169 2.44249 336.577 2.37761C335.637 2.3781 334.791 2.38308 333.795 2.38074C335.167 2.60642 332.508 2.46554 330.618 2.56613C328.728 2.66738 331.264 2.84681 326.073 2.84785C327.803 2.90157 329.385 2.94727 331.059 2.99725C327.712 3.05524 324.354 3.11468 321.007 3.17477C323.358 3.31489 328.452 3.51705 328.313 3.69881C326.771 3.63172 321.49 3.75978 320.912 3.76591C318.673 3.78782 319.893 3.6695 319.724 3.66688C316.208 3.61402 313.312 3.65736 311.977 3.47943C309.334 3.56251 307.342 3.51824 304.54 3.5251C302.998 3.52889 303.297 3.66213 302.395 3.6377C296.396 3.47444 302.111 3.29258 290.538 3.636C291.939 3.72947 293.322 3.82453 294.723 3.91762C293.416 3.955 292.116 3.99276 290.809 4.03053C289.934 4.01465 289.068 3.99855 288.193 3.98252C288.212 3.77622 288.234 3.56951 288.253 3.36325C287.294 3.35252 286.331 3.34207 285.372 3.33124C287.018 3.31004 288.667 3.28899 290.313 3.26807C290.463 3.23183 290.604 3.1956 290.754 3.15941C288.309 3.10398 285.873 3.04743 283.427 2.99035C283.381 3.0626 283.334 3.13537 283.287 3.20766C277.777 3.10871 277.645 3.04522 272.408 3.24866C268.373 3.24731 265.088 3.55789 262.756 3.69116C261.919 3.65025 261.082 3.60868 260.235 3.56751C259.699 3.62991 259.158 3.69217 258.622 3.75482C257.559 3.66938 256.482 3.58358 255.42 3.49789C254.827 3.69523 254.521 3.75759 258.667 3.82223C257.247 4.06775 249.947 3.96973 246.976 3.88927C244.721 3.82841 247.223 3.61935 246.941 3.59461C245.999 3.50988 242.284 3.586 241.503 3.57236C238.203 3.51514 235.89 3.52685 232.909 3.48209C232.329 3.47318 230.707 3.3407 230.569 3.33652C229.497 3.31416 226.851 3.24995 226.55 3.24812C211.028 3.15216 227.614 3.72968 213.18 3.67688C213.612 3.75423 214.01 3.83099 214.433 3.90816C213.343 3.91385 212.241 3.91933 211.15 3.92503C209.768 3.86121 211.44 3.74145 208.695 3.83911C208.874 3.74289 209.053 3.64668 209.241 3.55103C208.047 3.60347 206.896 3.65563 205.673 3.70842C203.755 3.37558 196.751 3.30077 197.249 2.90488C197.418 2.77003 202.384 2.63393 199.76 2.48964C197.628 2.46043 199.071 2.62158 198.201 2.62969C191.92 2.68655 192.285 2.46044 189.717 2.51973C189.313 2.61674 188.888 2.71575 188.474 2.81393C187.506 2.78523 186.535 2.75645 185.558 2.72762C185.332 2.79309 185.097 2.85867 184.871 2.92422C185.784 2.92865 186.811 2.93313 187.648 2.93754C186.481 3.19042 175.763 3.30739 179.85 3.08925C181.514 3.00087 184.563 3.03857 182.636 2.73788C179.768 2.78058 176.514 2.82448 173.496 2.86779C173.402 2.80262 173.314 2.73732 173.22 2.67212C169.152 2.71342 172.852 2.97514 172.844 3.11459C171.914 3.11859 170.974 3.12211 170.043 3.12612C169.649 3.06286 169.274 2.99659 168.86 2.93518C168.823 3.03594 168.302 3.27046 165.528 3.18377C163.745 3.12714 166.553 2.87208 163.153 2.90727C163.407 3.06528 164.635 3.25711 160.848 3.30884C160.471 3.14386 159.951 2.99259 159.66 2.81894C154.949 2.97752 152.806 2.72113 147.277 2.90632C143.77 3.02327 138.965 3.44442 136.698 2.79687C134.133 2.77951 134.947 2.94103 134.188 2.97731C130.605 3.14935 127.94 2.84129 127.272 2.82292C123.014 2.70603 121.105 2.81291 117.636 2.66619C117.824 2.78726 117.926 2.90184 118.077 3.01983C121.255 2.83857 122.865 2.8475 127.322 2.88655C125.827 2.91066 124.332 2.93538 122.837 2.9596C123.082 3.0576 123.324 3.15558 123.559 3.25301C137.345 2.86715 134.129 3.47338 122.572 3.61044C121.575 3.42935 120.542 3.24849 119.555 3.06637C112.878 3.34224 109.737 3.10357 102.186 3.04582C101.288 3.03921 98.0187 3.14481 96.6135 3.15013C96.6368 3.15083 96.6602 3.15154 96.6836 3.15224C95.8094 3.32544 96.9935 3.40503 97.1346 3.55969C96.3731 3.57924 95.611 3.59873 94.8495 3.61831C93.1487 3.50061 93.7466 3.40347 90.3995 3.43207C90.8508 3.54972 91.2962 3.66735 91.7475 3.7849C88.08 3.78998 85.6799 3.66242 82.2663 3.71848C82.8399 3.67372 83.4065 3.62886 83.9801 3.58414C76.551 3.47141 82.4633 2.77635 76.8491 3.12225C76.4919 3.06165 76.144 3.00044 75.7867 2.9398C78.0997 2.92494 80.4137 2.91055 82.7173 2.89574C82.7643 2.8101 82.815 2.72483 82.8526 2.63919C80.3793 2.66459 77.8942 2.69086 75.4209 2.71638C77.2265 2.65894 79.0425 2.6015 80.8481 2.54424C77.9803 2.50282 75.1116 2.46131 72.2438 2.41977C75.2893 2.73584 71.341 2.77407 72.0834 3.08689C67.0053 2.82679 63.0165 2.48225 55.1454 2.70213C53.585 2.74594 54.4327 2.96537 50.0039 2.69826C51.0758 3.04734 45.5276 3.21128 46.2405 3.54348C47.7822 3.52738 49.3811 3.5172 50.8759 3.49749C49.1738 3.38245 48.8917 3.06549 51.4772 2.9715C54.7778 2.85177 59.5919 3.07116 59.395 2.71998C60.711 2.73654 61.9351 2.74633 63.2135 2.7603C62.6872 2.84733 62.1719 2.93493 61.655 3.02202C65.2928 2.8855 67.5785 2.93007 69.3272 3.14918C64.9928 3.19976 60.6676 3.24993 56.3331 3.30019C56.9716 3.3151 57.6189 3.33013 58.2574 3.34451C54.9754 3.56918 58.3609 3.78149 52.2389 3.83023C52.2765 3.72749 52.3066 3.62469 52.3442 3.52144C50.1154 3.79632 44.0132 3.7955 45.9598 4.11156C44.1168 4.01464 43.7411 3.95319 42.6975 4.12383C37.8357 3.88398 34.7132 3.5798 36.4435 3.21668C34.6383 3.27514 32.8321 3.3337 31.0364 3.39218C32.08 3.49148 33.1248 3.59029 34.1684 3.68955C31.0275 3.68347 27.8637 3.67744 24.7322 3.67177C24.4313 3.37791 30.7777 3.58254 28.9467 3.3199C28.5803 3.26718 26.8901 3.38013 26.4461 3.35043C21.7633 3.02915 29.1146 3.26125 27.734 3.01508C22.8296 2.96162 24.1308 2.74193 22 2.73648C22 2.73648 22 2.73648 22 2.73648C21.0941 2.75557 19.5189 2.74321 16.7553 3.56337C16.4861 3.54783 16.1968 3.54195 15.9436 3.53247C12.7408 4.66942 13.0708 4.78871 10.6449 6.34005C9.16772 7.35692 7.21366 8.67602 6.14226 10.4143C6.04658 10.5655 6.60819 10.0524 6.63495 10.1897C6.70371 10.3519 5.98228 10.9815 4.32955 14.037C2.20348 18.9803 2.8326 16.8551 2.05025 19.7082C1.88186 20.5448 1.76436 21.718 1.78775 23C1.84122 26.1481 1.95213 29.9765 1.62767 31.3911C1.68787 29.8493 1.72031 27.8854 1.76976 26.1744C1.68099 25.4786 1.59315 24.8011 1.50485 24.1147C1.61966 28.0268 1.48512 32.0704 1.69658 34.7035C1.37406 39.9227 1.67429 45.7596 2.03802 44.1797C1.98555 42.4618 1.82678 44.3307 1.92792 41.9447C2.0128 41.7002 2.09727 41.4425 2.18217 41.1981C2.1717 45.2605 2.17402 48.0819 1.91557 46.2293C1.90942 46.8594 1.90328 47.4835 1.89714 48.1136C2.0841 48.2264 2.27174 48.3264 2.45867 48.4393C2.47964 49.1916 2.50042 49.9471 2.52135 50.6994C2.48019 51.5358 2.43859 52.3742 2.39697 53.22C2.1017 52.0821 2.09165 50.144 1.92669 56.5575C2.02866 56.5763 2.13022 56.6038 2.23219 56.6226C2.10219 61.992 1.85576 62.1337 1.8653 68.8751C1.51197 63.7032 2.13798 60.8734 1.42889 60.8922C1.47521 59.5945 1.52222 58.2862 1.56867 56.9885C1.46567 56.7909 1.3625 56.5953 1.25946 56.4072C1.31636 63.3749 1.99115 74.9491 1.54581 79.6142C1.60027 80.1783 1.64759 80.7445 1.70605 81.318C1.43856 85.8884 2.04026 87.862 1.69471 92.4981C1.6586 92.9764 1.09425 91.9755 1.11729 98.0105C1.1903 97.8602 1.31327 97.7819 1.40542 97.6597C1.36097 98.9664 1.31454 100.266 1.26929 101.563C1.33674 101.798 1.40416 102.045 1.47207 102.28C1.49759 100.051 1.52366 97.8288 1.5494 95.6001C1.57301 97.4519 1.59659 99.3157 1.62009 101.168C1.72976 98.7515 1.731 97.6616 1.90776 99.118C1.91843 101.215 1.92972 103.315 1.94033 105.412C1.98545 105.628 2.03108 105.843 2.07616 106.059C2.21066 105.043 2.34242 104.017 2.47937 103.002C2.3681 108.465 2.36079 113.215 2.09771 117.409C2.05332 118.124 1.87943 115.596 2.03621 120.466C1.94421 120.541 1.86952 120.672 1.7845 120.756C2.04278 126.719 1.96465 128.677 1.78127 134.893C1.95287 130.868 1.84142 134.46 1.93359 135.485C1.99706 136.187 1.98765 133.446 2.05422 133.756C2.1205 134.066 2.38613 137.628 2.41901 134.583C1.8727 127.116 2.52919 125.082 2.26646 115.49C2.33759 116.966 2.40869 118.453 2.47942 119.93C2.52787 119.234 2.57187 118.612 2.62344 117.86C2.51343 123.21 2.58467 120.608 2.6687 122.806C2.75277 125.007 2.82261 129.006 2.84424 131.686C2.85106 132.53 2.72869 131.64 2.71633 133.545C2.70796 134.843 2.88726 138.389 2.6732 139.208C2.5344 139.744 2.15189 134.047 2.15193 141.924C2.01583 143.407 2.05824 139.63 2.04183 139.549C1.87949 138.862 1.75865 143.705 1.8822 145.943C1.89279 146.124 2.01859 144.357 2.06785 146.279C2.18524 150.84 2.04071 153.474 1.84771 156.427C2.07502 156.746 2.34457 160.584 2.25979 165.362C2.32419 165.606 2.38912 165.839 2.45391 166.083C2.42011 165.341 2.3867 164.6 2.35277 163.858C2.39349 163.049 2.42328 162.193 2.4714 161.403C2.52518 166.207 2.83472 166.886 2.94596 169.19C3.32442 177.074 2.51418 172.296 2.3732 170.874C2.43053 169.849 2.49464 168.858 2.55516 167.842C2.47683 167.955 2.39793 168.069 2.31917 168.173C2.31852 179.974 1.81196 169.97 1.66812 175.96C2.05125 177.502 2.0857 181.902 1.84637 187.506C1.84835 188.127 1.84893 188.75 1.85138 189.37C1.90641 189.474 1.99051 189.472 2.02674 189.641C2.08286 195.658 1.63116 197.268 1.49427 198C1.47753 198.092 1.46603 198.171 1.46096 198.243C1.25231 201.193 2.25113 203.371 2.5036 204.163C3.71472 207.542 4.15518 208.576 6.33306 211.237C8.89075 213.908 7.2521 211.975 8.10415 212.701C8.77265 213.294 11.0746 215.024 12.1748 215.484C11.7333 215.313 11.2518 215.096 10.8214 214.891C13.9474 217.006 16.9999 218.221 21.341 218.44C21.5622 218.425 21.7819 218.409 22 218.392C26.5082 218.035 30.1578 218.746 28.5778 218.118C25.6698 218.086 23.6881 218.038 22 217.95C21.3501 217.915 20.7517 217.846 20.1661 217.745C20.7756 217.796 21.3854 217.819 22 217.814C24.0256 217.798 26.0517 217.783 28.0767 217.767C28.8475 217.839 29.3947 217.91 30.3067 217.983C32.2811 217.83 36.8584 217.897 38.6554 217.853C47.0718 217.646 44.4682 217.395 52.1506 217.824C46.6134 217.863 46.6222 218.072 41.1309 218.044C42.3158 218.194 45.1064 218.161 43.3008 218.341C48.6133 218.295 46.8959 218.136 48.9635 217.995C50.7469 217.874 54.3379 217.868 54.1351 217.712C54.5023 217.798 54.7862 217.881 55.1524 217.967C58.5935 217.966 62.0345 217.966 65.4756 217.966C64.0087 218.054 62.5425 218.143 61.0757 218.232C62.1843 218.265 63.2945 218.298 64.4032 218.331C72.8665 218.055 87.4611 218.541 85.1296 217.873C89.2106 217.853 89.7211 217.937 91.9399 218.061C92.1844 218.011 92.422 217.97 92.6666 217.914C95.2989 217.966 97.3198 217.78 99.6422 217.83C101.964 217.878 102.541 218.052 102.879 217.76C104.384 217.844 105.879 217.914 107.375 217.991C108.277 217.926 109.178 217.861 110.071 217.796C111.481 217.831 112.895 217.865 114.305 217.9C115.059 217.764 120.605 217.824 123.05 217.735C125.371 217.881 125.307 218.333 130.767 218.249C130.626 218.138 130.487 218.027 130.346 217.916C131.597 217.94 132.85 217.963 134.109 217.986C134.185 218.022 134.25 218.058 134.325 218.094C133.686 218.083 133.055 218.072 132.416 218.06C132.971 218.121 133.514 218.182 134.059 218.242C135.968 218.151 137.879 218.061 139.797 217.972C137.212 217.905 134.625 217.836 132.04 217.766C135.284 217.687 137.542 217.769 140.364 217.682C142.818 217.833 141.911 217.918 140.915 218.08C141.827 218.066 142.749 218.053 143.661 218.039C143.059 218.2 144.602 218.296 139.271 218.286C139.638 218.332 140.011 218.376 140.369 218.424C141.243 218.416 141.81 218.454 142.769 218.436C145.383 218.384 147.388 218.102 147.209 218.004C147.112 217.952 144.535 218.051 144.638 217.978C144.893 217.798 150.806 217.883 142.278 217.698C145.108 217.585 145.741 217.673 148.863 217.707C148.618 217.648 148.381 217.589 148.146 217.53C149.594 217.559 151.043 217.587 152.491 217.615C150.478 217.917 161.152 218.025 151.544 218.292C154.383 218.304 157.213 218.315 160.043 218.326C159.46 218.357 158.877 218.388 158.294 218.419C157.015 218.404 155.744 218.39 154.465 218.375C155.969 218.43 157.476 218.483 158.98 218.537C162.535 218.463 163.928 218.357 165.555 218.228C161.418 218.136 162.77 218.264 159.547 218.292C159.659 218.209 159.51 218.133 159.792 218.047C161.458 218.217 166.891 218.091 168.151 218.083C171.985 218.057 168.978 218.222 171.543 218.224C174.111 218.225 177.139 218.129 179.236 218.285C179.198 218.197 179.03 218.106 178.88 218.025C182.877 217.996 182.079 218.099 182.493 218.113C189.094 218.329 192.676 218.141 200.228 218.118C199.269 218.093 198.3 218.07 197.331 218.045C203.028 217.868 199.19 217.923 194.244 217.862C198.881 217.881 201.535 217.732 204.808 217.692C208.08 217.652 213.692 217.733 215.743 217.791C211.05 217.88 205.989 217.817 200.779 217.84C201.371 217.924 201.947 217.996 202.558 218.088C205.727 217.912 207.563 218.03 208.607 218.052C211.672 218.118 211.575 217.972 213.427 218.128C213.352 218.074 213.297 218.029 213.222 217.978C219.55 218.003 226.377 218.09 230.496 217.903C230.872 218.025 231.156 218.142 231.588 218.265C234.268 218.172 236.563 218.263 238.819 218.239C241.067 218.216 240.211 218.122 242.853 218.085C243.342 218.079 244.361 218.136 245.564 218.093C246.78 218.048 251.262 217.737 251.798 218.009C254.065 218.011 256.209 218.02 258.428 218.024C256.266 218.04 254.102 218.055 251.949 218.071C253.792 218.136 255.623 218.199 257.466 218.261C257.701 218.204 257.937 218.145 258.163 218.089C263.128 218.019 266.731 218.109 271.743 218.085C272.58 218.081 270.606 217.976 274.319 218.003C278.033 218.031 280.79 218.216 287.118 218.139C287.437 218.134 289.311 217.997 291.578 218.09C292.093 218.111 289.923 218.144 291.107 218.171C292.292 218.198 297.578 218.215 297.992 218.278C297.936 218.255 297.606 218.232 297.446 218.209C298.348 218.197 299.26 218.185 300.172 218.174C300.257 218.213 300.348 218.252 300.433 218.291C305.623 218.189 308.306 218.048 315.997 218.09C313.835 218.04 311.671 217.987 309.518 217.932C308.925 217.97 308.332 218.008 307.749 218.046C304.204 218.032 300.65 218.017 297.105 218.001C296.522 218.047 295.949 218.094 295.366 218.142C294.426 218.137 293.495 218.131 292.555 218.126C292.79 218.091 293.027 218.057 293.271 218.022C291.41 218.031 289.546 218.04 287.694 218.049C291.465 217.841 298.224 218.065 297.737 217.897C298.573 217.924 299.411 217.95 300.247 217.975C300.614 217.896 302.315 217.92 305.313 217.934C304.627 217.896 303.869 217.858 303.239 217.818C306.154 217.875 311.325 217.874 314.344 217.896C315.67 217.905 314.345 217.956 314.74 217.963C316.761 217.994 320.626 217.907 321.435 217.915C326.268 217.961 329.409 218.111 334.684 218.011C329.24 217.987 332.202 217.997 330.264 217.941C329.658 217.923 322.624 217.88 331.432 217.904C332.465 217.91 348.447 218.011 343.193 218.082C345.78 218.057 347.804 218.03 350.174 218.007C355.967 218.179 353.962 218.018 352.279 217.927C353.229 217.928 354.132 217.927 355.11 217.928C353.032 218.022 363.62 218.022 367.212 217.982C368.416 217.969 365.05 217.942 367.834 217.932C369.159 217.938 370.663 217.947 372.063 217.953C370.032 217.904 374.018 217.89 373.962 217.844C376.511 217.892 378.46 217.975 377.059 218.021C379.165 218.002 381.283 217.984 383.389 217.969C382.411 217.958 381.42 217.948 380.442 217.937C387.326 217.966 396.177 217.928 397.616 217.994C398.528 217.994 399.45 217.994 400.362 217.993C400.644 217.983 400.916 217.973 401.199 217.963C405.326 217.976 409.444 217.986 413.571 217.993C409.896 217.996 409.021 218.009 405.167 217.999C406.653 218.009 408.165 218.019 409.622 218.027C415.425 217.998 416.216 217.99 424.952 217.996C425.347 217.998 431.947 218.005 432.173 218.005C433.207 218.006 431.637 218.012 432.098 218.013C433.365 218.017 441 218.002 441 218C441 218 441 218 441 218C441 218 440.999 218 440.998 218C439.098 217.999 412.951 218.142 405.879 218.178C332.529 218.627 260.794 218.804 187.905 219.04C187.156 219.043 187.483 219.102 187.164 219.105C185.18 219.127 183.231 219.039 182.498 219.037C180.931 219.034 181.794 219.119 180.649 219.123C168.819 219.161 157.655 219.14 145.816 219.19C145.045 219.193 145.832 219.113 144.478 219.131C143.779 219.14 141.59 219.266 140.013 219.273C134.502 219.295 129.873 219.269 124.062 219.287C120.883 219.297 116.115 219.299 112.561 219.311C110.992 219.316 109.356 219.379 107.806 219.385C105.605 219.394 106.054 219.272 105.716 219.266C104.23 219.237 104.024 219.37 102.614 219.37C99.9902 219.371 99.849 219.282 96.5202 219.298C94.141 219.309 88.6958 219.394 85.6959 219.423C78.6807 219.334 69.8406 219.395 63.2957 219.447C59.4216 219.478 59.0624 219.345 57.4826 219.348C51.9164 219.362 47.692 219.544 42.4639 219.562C35.5255 219.585 29.3767 219.481 22.6545 219.484C22.3521 219.484 22.1529 219.495 22 219.509C21.5698 219.543 21.4792 219.619 20.6449 219.578C16.3393 219.455 11.0783 217.245 8.20861 214.705C5.03971 211.871 4.20698 210.432 2.35473 206.76C1.87193 205.651 1.53654 205.391 0.96728 203.415C0.488207 201.658 0.293484 199.731 0.335935 198C0.365995 196.719 0.398025 195.544 0.403972 194.607C0.421677 191.72 0.251192 194.231 0.267771 190.338C0.268486 190.178 0.392821 189.595 0.385514 188.759C0.364648 186.323 0.265948 186.565 0.269361 183.001C0.269937 182.659 0.382946 177.933 0.382878 177.464C0.380483 174.699 0.415052 169.133 0.38688 167.496C0.286425 161.647 0.0989844 166.252 0.512075 161.277C0.406492 159.087 0.29902 156.915 0.195154 154.592C0.29085 156.142 0.41797 149.853 0.408862 149.411C0.33359 145.755 0.170898 147.933 0.192017 143.297C0.582563 149.419 0.234163 137.317 0.220517 134.618C0.156282 121.622 0.240626 109.809 0.226798 96.7476C0.221944 92.375 0.133326 86.5154 0.131615 81.8893C0.13088 80.811 0.225492 81.6258 0.226809 80.6766C0.227492 79.7298 0.122748 80.7802 0.127493 79.6994C0.158639 72.976 0.355841 67.708 0.101536 61.5487C0.137595 61.2489 0.166238 61.2584 0.205765 60.7619C-0.0221963 55.7214 0.2754 46.0143 0.315999 42.3657C0.378612 36.659 0.225349 35.2012 0.254827 31.0553C0.273438 28.4691 0.349406 25.2711 0.372819 23C0.435384 20.2546 0.756982 18.7641 0.204372 20.8345C0.593586 16.7352 2.11571 12.8782 4.69119 9.61806C4.98013 9.25708 4.88242 9.58581 4.99874 9.44288C5.74578 8.55106 5.92881 8.20314 6.47625 7.6319C8.00835 6.13681 5.56183 8.6255 7.77322 6.53319C9.01657 5.5443 9.54294 4.62307 13.6412 2.77159C16.2603 1.68417 19.123 1.11319 22 1.11562C22 1.11562 22 1.11562 22 1.11562C44.4848 1.1138 68.3622 1.15074 91.041 1.17883C92.7807 1.18088 91.6355 1.05985 93.8172 1.06894C101.397 1.10062 114.964 1.31175 121.499 1.28959C128.035 1.26765 126.56 1.09297 130.65 1.02455C131.44 1.01127 130.792 1.10925 131.507 1.11146C136.312 1.1254 142.041 1.28442 145.934 1.31115C148.509 1.3291 148.302 1.17521 150.088 1.16628C152.75 1.15346 155.489 1.31128 156.909 1.31771C163.584 1.34661 168.174 1.22869 174.408 1.29949C174.164 1.26596 174.003 1.23498 173.797 1.20195C181.178 1.2172 188.55 1.23309 195.931 1.24958C195.583 1.21922 195.247 1.1886 194.899 1.1577C203.559 1.18811 202.571 1.50807 201.809 0.827596C202.439 0.804899 203.107 0.778525 203.709 0.757782C203.464 1.10704 208.703 1.37105 215.37 1.46859C215.859 1.47564 219.14 1.14521 218.782 1.54126C219.638 1.4455 220.148 1.37953 220.872 1.2957C222.282 1.41796 223.712 1.53834 225.122 1.65914C225.883 1.64242 226.655 1.62639 227.417 1.60977C227.53 1.53292 227.443 1.45279 227.687 1.3776C231.223 1.37217 238.474 1.47925 241.268 1.47433C248.208 1.46116 255.274 1.27443 260.671 1.50201C263.301 1.48506 260.69 1.33456 264.6 1.36121C265.042 1.43542 265.458 1.50642 265.918 1.58264C269.114 1.26232 269.782 1.4632 274.162 1.53917C277.124 1.59083 279.063 1.51608 281.884 1.53737C282.599 1.5428 282.497 1.63634 282.986 1.63424C284.624 1.62752 289.297 1.50916 290.453 1.50854C300.928 1.49839 309.927 1.53503 319.904 1.59182C320.976 1.59776 319.586 1.5071 320.696 1.51365C322.481 1.52408 321.431 1.65498 322.465 1.664C325.35 1.6882 325.372 1.54808 329.396 1.55156C342.645 1.56378 357.879 1.70714 371.72 1.75355C372.153 1.75477 372.127 1.68007 372.597 1.68075C375.662 1.68656 378.765 1.79537 381.548 1.80196C386.165 1.81333 389.635 1.72285 394.196 1.73818C403.111 1.76754 411.076 1.84271 420.244 1.875C427.289 1.90025 433.463 1.9136 441 1.93919C441.521 1.94094 442.04 1.9612 442.572 2.00221C453.151 2.59767 462.227 12.3372 461.978 23C461.925 49.2409 461.854 75.6892 461.681 101.881C461.675 102.802 461.644 102.427 461.645 102.708C461.646 105.379 461.687 105.617 461.594 106.567C461.597 109.969 461.656 111.042 461.631 115.151C461.617 117.341 461.531 115.706 461.562 119.41C461.59 122.756 461.656 119.064 461.556 129.012C461.553 129.275 461.495 130.572 461.499 132.64C461.502 134.718 461.55 132.313 461.534 137.316C461.492 149.061 461.375 163.927 461.308 177.581C461.304 178.437 461.269 186.678 461.264 188.305C461.255 191.453 461.275 190.796 461.249 194.885C461.243 195.966 461.234 196.982 461.225 198C461.199 199.979 460.943 201.974 460.167 204.316C459.999 204.714 459.903 205.478 458.538 207.942ZM2.62107 48.1035C2.77679 48.8747 3.34943 50.2663 3.17344 54.9288C3.15695 55.3708 2.76395 52.9849 2.70077 55.5603C2.65978 53.0402 2.64676 50.586 2.62046 48.1035C2.62067 48.1035 2.62087 48.1035 2.62107 48.1035ZM441.892 217.977C445.379 217.818 448.823 216.716 451.748 214.824C449.731 216.13 447.468 217.065 445.123 217.563C444.057 217.788 442.983 217.925 441.892 217.977ZM243.638 3.82217C243.642 3.82217 243.645 3.82216 243.648 3.82216C239.981 3.89169 236.311 3.96209 232.644 4.03307C233.029 3.98343 233.416 3.93363 233.801 3.88411C236.697 3.80389 239.594 3.72445 242.481 3.64564C242.866 3.70457 243.253 3.7634 243.638 3.82217ZM272.613 3.29656C274.955 3.35126 274.382 3.44521 275.67 3.5355C275.67 3.53532 275.67 3.53515 275.67 3.53498C276.01 3.55847 277.594 3.57793 278.206 3.58096C277.98 3.52279 277.689 3.46536 277.444 3.40752C282.908 3.26639 293.592 3.74933 279.759 3.96797C279.966 3.89416 280.164 3.82079 280.371 3.74711C273.496 3.77614 265.833 3.61938 272.613 3.29656ZM2.85056 103.378C3.12414 109.246 3.17956 111.127 2.98733 118.246C2.91027 117.24 2.83307 116.235 2.75571 115.229C2.8356 114.054 2.9151 112.887 2.99529 111.711C2.99529 111.708 2.9953 111.705 2.9953 111.701C2.91191 111.466 2.82834 111.23 2.74488 111.005C2.77999 108.466 2.81524 105.916 2.85056 103.378ZM460.737 47.8199C460.469 49.4554 460.626 48.9836 460.555 44.312C460.53 42.6945 460.485 44.2709 460.475 43.2646C460.417 37.8309 460.606 37.3964 460.707 38.6092C460.717 41.6843 460.727 44.7912 460.737 47.8098C460.737 47.8132 460.737 47.8165 460.737 47.8199ZM460.948 188.801C460.948 188.804 460.948 188.808 460.948 188.811C460.932 188.952 460.923 186.762 460.912 189.232C460.908 187.353 460.904 185.473 460.9 183.584C460.903 184.138 460.906 184.704 460.909 185.258C460.914 184.769 460.92 184.279 460.925 183.79C460.903 183.122 460.914 182.502 460.918 180.528C460.895 181.073 460.872 181.616 460.85 182.161C460.85 179.867 460.851 177.565 460.853 175.271C460.86 175.243 460.866 175.214 460.873 175.186C460.862 174.321 460.851 173.465 460.84 172.6C460.848 172.365 460.856 172.138 460.864 171.903C460.855 170.86 460.846 169.815 460.836 168.771C460.857 168.454 460.872 170.753 460.857 166.676C460.883 167.927 460.908 169.175 460.931 170.435C460.936 176.557 460.942 182.679 460.948 188.801ZM453.42 7.85222C455.947 9.98942 456.512 11.0988 456.619 11.2195C456.696 11.373 456.149 10.7242 455.586 10.2107C454.935 9.3742 454.206 8.57939 453.42 7.85222ZM107.368 3.46903C105.412 3.65814 103.447 3.84579 101.444 4.02911C97.457 4.13645 93.4683 3.79211 96.4681 3.65592C100.079 3.49285 103.851 3.67337 107.368 3.46903ZM16.7699 4.27407C21.4151 3.36561 17.0706 4.4181 16.1532 4.92949C14.8787 5.13495 13.1339 5.76359 10.7527 7.42834C12.9171 5.75964 15.997 4.43126 16.7698 4.27348C16.7698 4.27368 16.7699 4.27387 16.7699 4.27407ZM185.874 3.64971C187.829 3.64325 189.773 3.5922 191.521 3.6521C190.994 3.82374 187.497 3.67009 189.998 3.92273C188.747 3.92804 187.496 3.93323 186.255 3.93902C187.043 3.83277 185.982 3.75455 185.879 3.65028C185.877 3.65009 185.875 3.6499 185.874 3.64971ZM389.41 3.64862C385.573 3.50504 384.846 3.56853 380.981 3.68042C380.437 3.55653 385.045 3.34402 387.932 3.29766C388.421 3.41505 388.912 3.5321 389.41 3.64862ZM324.276 217.724C323.355 217.794 316.558 217.795 313.181 217.766C313.583 217.755 313.987 217.744 314.389 217.733C317.68 217.729 320.985 217.726 324.276 217.724ZM9.65358 8.26585C10.0304 7.95843 10.3985 7.68005 10.7527 7.42834C10.3626 7.71353 9.99309 7.99908 9.65358 8.26585ZM5.23663 209.237C4.22254 207.953 6.65853 212.159 3.74456 207.022C3.7444 207.022 3.74423 207.022 3.74407 207.022C2.1988 203.447 2.03443 202.536 1.73703 198.955C1.85995 199.593 2.20291 201.639 2.45287 202.357C2.77675 203.07 2.23991 202.575 2.09697 198C2.0979 197.836 2.09881 197.668 2.09972 197.494C2.09996 197.363 1.95339 197.623 1.97338 196.035C1.97957 195.545 2.10016 193.976 2.13578 191.59C2.14708 190.819 2.18562 185.025 2.18646 192.923C2.35908 192.688 2.53356 193.113 2.70088 193.094C2.72747 194.863 2.62711 196.397 2.53852 198C2.47399 199.159 2.50907 200.371 2.76674 201.709C3.77033 206.394 5.69862 208.141 5.78185 209.15C3.06561 206.013 1.97633 198.934 2.48093 198.069C2.48089 198.046 2.48087 198.023 2.48089 198C2.48377 194.117 2.26491 193.018 2.15608 196.176C2.16269 196.838 2.16788 197.444 2.17179 198C2.44262 203.392 3.14219 203.914 3.17172 204.597C3.44528 205.183 3.10081 206.259 6.59442 210.747C6.73044 210.818 7.09897 211.144 7.09357 211.049C9.40415 213.849 5.49005 209.8 5.23663 209.237ZM2.2977 181.357C2.4303 183.708 2.56305 186.052 2.69424 188.393C2.47854 188.393 2.28581 187.102 2.16425 183.397C2.20881 182.72 2.25344 182.034 2.2977 181.357ZM171.704 217.748C172.042 217.664 172.945 217.588 173.603 217.509C174.318 217.582 191.245 217.665 182.633 217.724C181.383 217.734 173.754 217.579 171.704 217.748ZM416.05 3.48001C414.056 3.42742 412.071 3.37378 410.087 3.31928C413.141 3.2809 416.198 3.24247 419.252 3.20523C418.182 3.29597 417.12 3.38761 416.05 3.48001ZM74.9148 3.24934C75.7568 3.25407 72.96 3.43038 76.2778 3.40231C73.8046 3.51511 71.4885 3.61079 69.0717 3.71721C68.3476 3.63393 67.6159 3.55094 66.8918 3.46757C66.3275 3.52119 65.7522 3.57451 65.188 3.62816C65.5265 3.50653 65.8279 3.38776 66.1852 3.26411C70.2571 3.52441 71.1908 3.2289 74.9148 3.24934ZM195.991 2.78929C196.724 3.03575 190.827 3.1837 196.628 3.22217C195.527 3.38441 193.758 3.47032 190.364 3.48623C189.819 3.42415 189.275 3.36243 188.73 3.30017C188.655 3.46715 187.781 3.52944 185.874 3.64971C185.872 3.64952 185.87 3.64933 185.869 3.64914C180.708 3.66398 181.016 3.60798 179.775 3.33195C185.239 3.48624 185.402 3.23385 189.126 3.0846C191.684 2.98204 195.023 3.02821 195.991 2.78929ZM153.668 217.738C157.532 217.587 154.065 217.444 160.92 217.611C160.478 217.649 160.034 217.687 159.592 217.725C157.617 217.729 155.643 217.734 153.668 217.738ZM215.059 3.62406C214.617 3.24952 210.98 2.95599 210.359 3.56977C213.904 3.6924 212.172 3.34697 215.059 3.62406ZM18.2234 3.27386C19.9705 2.95179 21.2071 2.96352 22 3.01201C22 3.01201 22 3.01201 22 3.01201C23.8429 3.13508 23.3617 3.35596 22 3.52651C21.6944 3.56552 21.3477 3.60913 20.9768 3.66049C20.551 3.59821 20.1287 3.54908 19.704 3.51416C18.5449 3.68772 17.4056 3.96489 16.3021 4.34097C16.9118 3.95428 17.5546 3.59651 18.2234 3.27386ZM335.244 3.17904C330.034 3.40876 340.867 3.30158 337.228 3.44495C334.322 3.56086 330.493 3.3346 331.941 3.18939C332.948 3.18502 334.068 3.18183 335.234 3.17904C335.237 3.17904 335.24 3.17904 335.244 3.17904ZM305.096 3.25702C305.951 3.5118 304.718 3.43789 308.834 3.38957C310.01 3.37606 319.351 3.46418 315.429 3.25877C312.092 3.26024 308.565 3.25812 305.096 3.25702ZM2.37194 74.167C2.23784 74.2297 1.94255 67.0371 2.01639 66.1139C2.01619 66.1139 2.01599 66.1139 2.01579 66.1139C2.21777 63.622 2.24571 71.209 2.52273 67.918C2.27844 75.2057 2.86515 77.3859 2.09193 76.8781C2.05812 72.5851 2.21762 74.6176 2.37194 74.167ZM413.516 217.983C413.52 217.983 413.523 217.983 413.526 217.983C413.043 217.983 409.063 217.961 409.547 217.954C414.333 217.967 413.48 217.974 417.936 217.965C418.18 217.97 418.39 217.975 418.653 217.98C416.885 217.981 415.905 217.987 413.516 217.983ZM190.005 217.931C188.246 217.953 185.037 217.86 183.034 217.864C189.41 217.512 197.029 217.848 190.005 217.931ZM460.865 122.863C460.865 122.858 460.864 122.853 460.864 122.848C460.864 122.85 460.865 122.852 460.865 122.853C460.865 122.857 460.865 122.86 460.865 122.863ZM53.7342 217.624C53.961 217.654 54.0892 217.681 54.1351 217.704C54.1351 217.707 54.1351 217.709 54.1351 217.711C54.0126 217.682 53.8821 217.653 53.7342 217.624ZM2.40987 89.1155C2.22362 92.1112 1.92775 82.1301 1.99832 78.9026C2.08368 79.1282 2.16107 79.1634 2.25904 79.6894C2.0381 82.2945 2.44166 88.6172 2.40987 89.1155ZM152.028 3.33554C144.138 3.33156 154.406 2.60836 154.829 3.18422C154.813 3.19531 152.232 3.33446 152.028 3.33554ZM2.33939 26.896C2.11908 24.9439 2.05578 28.6971 2.08831 23C2.08928 22.8303 2.09245 22.6527 2.09847 22.467C2.16706 22.0956 2.24617 21.7256 2.3352 21.361C2.29742 21.9076 2.28236 22.4506 2.28942 23C2.3061 24.2987 2.32283 25.5976 2.33939 26.896ZM100.342 2.37141C90.4117 2.49371 80.9146 2.71557 87.3827 3.33701C88.1343 3.31697 88.8963 3.2976 89.6478 3.27759C89.7606 2.97461 92.5339 3.13997 96.5934 3.14953C97.172 3.0295 99.4233 3.00176 99.8457 2.89993C100.663 2.70318 98.0758 2.56429 100.342 2.37141ZM461.059 70.16C461.037 70.0001 461.015 69.8438 460.993 69.6839C460.967 68.1134 460.942 66.5388 460.915 64.9683C460.959 65.222 461.003 65.4763 461.047 65.73C461.051 67.2057 461.055 68.6743 461.06 70.1499C461.059 70.1533 461.059 70.1566 461.059 70.16ZM1.70294 171.681C2.23451 172.583 2.13841 169.43 1.86703 163.036C1.81191 165.914 1.7572 168.803 1.70294 171.681ZM259.91 2.64855C260.117 2.79063 260.32 2.93216 260.536 3.07402C263.931 2.92599 263.301 2.76507 261.674 2.5766C261.082 2.60047 260.502 2.62456 259.91 2.64855ZM308.809 2.6163C307.401 2.58778 308.12 2.69518 307.973 2.69293C304.408 2.63499 303.906 2.58458 299.534 2.66369C298.998 2.69188 298.471 2.72162 297.935 2.75081C299.957 3.03307 301.424 2.88017 305.702 3.04429C304.931 2.94879 304.163 2.85281 303.392 2.75618C305.771 2.77738 308.14 2.79808 310.518 2.81884C310.8 2.78969 311.083 2.76085 311.365 2.73179C310.519 2.69389 309.646 2.65116 308.809 2.6163ZM460.996 88.3207C460.991 90.634 460.986 92.958 460.982 95.2713C461.013 95.3559 461.044 95.4372 461.074 95.5218C461.05 93.1244 461.024 90.7181 460.996 88.3207ZM12.1748 215.484C12.348 215.551 12.5181 215.614 12.6708 215.664C12.6419 215.686 12.4524 215.616 12.1748 215.484ZM419.62 218.016C422.243 218.018 426.023 218.012 428.901 218.01C428.675 218.003 421.361 218.008 418.793 218C418.38 218.003 418.511 218.015 419.62 218.016ZM27.6488 2.93788C28.307 2.83234 28.9644 2.7273 29.6132 2.62178C31.2024 2.63318 32.7952 2.64522 34.3939 2.65664C34.4409 2.57025 34.4872 2.48312 34.5342 2.39674C27.4919 2.50877 29.1156 2.2597 25.6292 2.01388C26.3062 2.32171 26.9718 2.62955 27.6488 2.93788ZM461.105 161.926C461.102 156.838 461.078 155.034 461.023 157.902C461.035 159.697 461.046 161.503 461.056 163.299C461.072 162.838 461.088 162.377 461.105 161.926ZM104.413 218.194C108.67 218.119 108.741 218.382 112.902 218.233C110.674 218.186 108.446 218.138 106.227 218.09C105.627 218.124 105.012 218.159 104.413 218.194ZM0.824993 103.032C0.709085 104.828 1.26784 108.185 0.860248 113.235C0.983443 114.438 1.10067 115.192 1.22086 116.226C1.09094 116.828 0.959564 117.512 0.830924 118.086C0.830927 118.089 0.830929 118.092 0.830932 118.096C0.878024 122.675 1.0387 119.706 1.17677 119.809C1.23392 119.858 1.14018 123.257 1.26387 122.195C1.47632 120.361 1.35105 113.509 1.61236 113.49C1.52759 115.898 1.6001 120.598 1.77343 119.208C1.96417 117.685 1.64335 113.255 1.80177 110.433C1.3845 114.476 1.51105 106.126 1.83345 105.177C1.58519 100.277 1.48469 104.78 1.49786 109.802C1.25046 106.736 1.385 111.249 1.18087 111.992C1.05583 108.831 1.15349 97.9824 0.824993 103.032ZM141.7 2.2838C138.313 2.29846 133.023 2.15479 130.705 2.36289C129.355 2.48437 134.657 2.57967 131.001 2.77013C134.3 2.75186 135.053 2.67754 134.488 2.51019C135.24 2.49031 136.002 2.47095 136.753 2.45162C137.101 2.48432 137.458 2.51656 137.806 2.54922C138.201 2.48064 138.598 2.41265 138.983 2.34415C139.782 2.35796 140.59 2.37178 141.389 2.38606C141.483 2.35163 141.643 2.3217 141.7 2.2838ZM226.652 218.133C225.712 218.135 224.781 218.136 223.841 218.138C223.944 218.161 224.068 218.185 224.187 218.209C224.272 218.228 224.357 218.246 224.442 218.265C223.897 218.199 219.418 218.088 217.532 218.162C216.583 218.2 218.742 218.328 214.72 218.356C217.635 218.346 220.334 218.325 223.164 218.311C222.91 218.349 222.666 218.388 222.413 218.426C222.414 218.426 222.416 218.427 222.418 218.427C223.358 218.434 224.309 218.441 225.249 218.448C225.719 218.343 226.182 218.238 226.652 218.133ZM257.154 2.36558C253.947 2.48081 252.873 2.54233 254.387 2.73395C254.391 2.73404 254.394 2.73413 254.397 2.73422C255.591 2.64997 256.786 2.56613 257.98 2.48265C257.708 2.44372 257.436 2.40461 257.154 2.36558ZM39.382 218.662C46.1996 217.955 30.8462 218.393 33.7694 218.634C33.9011 218.645 38.7425 218.585 39.382 218.662ZM16.9331 3.30052C18.5804 2.87148 20.2867 2.65226 22 2.64671C22 2.64671 22 2.64671 22 2.64671C22.1974 2.64602 22.3949 2.64532 22.5924 2.64461C22.3964 2.59842 22.1983 2.5523 22 2.50619C22 2.50619 22 2.50619 22 2.50619C21.7534 2.45053 21.5056 2.39929 21.26 2.35216C19.7792 2.51222 18.3232 2.83206 16.9331 3.30052ZM461.233 139.776C461.295 137.807 461.336 132.751 461.273 130.28C461.262 131.578 461.25 132.876 461.24 134.174C461.238 131.72 461.234 129.294 461.232 126.822C461.141 126.69 461.189 129.54 461.158 133.828C461.151 134.492 461.045 138.736 461.12 140.202C461.134 140.497 461.153 135.982 461.193 139.12C461.199 137.747 461.201 136.563 461.205 135.266C461.225 135.172 461.246 135.079 461.266 134.975C461.255 136.579 461.244 138.172 461.233 139.776ZM121.985 2.30051C117.334 2.28182 116.76 2.4057 115.791 2.62495C117.954 2.60048 120.118 2.57646 122.281 2.55216C122.178 2.46846 122.088 2.38473 121.985 2.30051ZM461.355 98.2029C461.375 95.6565 461.306 96.7471 461.295 95.7223C461.254 91.8483 461.308 89.2059 461.283 85.3791C461.297 85.633 461.309 85.8663 461.322 86.1107C461.322 86.1074 461.322 86.1041 461.322 86.1007C461.421 67.9804 461.231 77.4982 461.244 88.3407C461.217 88.5947 461.191 88.8385 461.165 89.0924C461.206 93.9446 461.239 98.4192 461.355 98.2029ZM1.26273 186.228C1.22424 186.435 0.976657 184.677 1.09478 187.977C1.4552 190.591 1.27403 186.304 1.41163 185.231C1.44664 186.124 1.48064 187.038 1.51547 187.922C1.61458 182.581 1.52852 181.801 1.26651 183.748C1.24895 183.887 1.30118 186.021 1.26273 186.228ZM13.7853 217.201C14.2357 217.11 12.8177 216.478 11.4375 215.655C10.0438 214.853 8.69925 213.841 8.74525 213.982C9.48841 214.601 10.1454 214.974 10.987 215.552C11.8512 216.113 12.0029 216.397 13.7853 217.201ZM1.14225 28.2039C1.13967 28.4014 0.897035 30.3854 1.0872 30.1884C1.53706 27.7339 1.24679 22.7885 1.08987 23.6537C1.09786 25.2894 1.1656 26.3801 1.14164 28.2039C1.14184 28.2039 1.14204 28.2039 1.14225 28.2039ZM461.18 170.455C461.183 170.361 461.216 165.411 461.201 164.772C461.184 164.246 461.163 163.984 461.144 163.59C461.157 166.317 461.13 171.837 461.18 170.445C461.18 170.448 461.18 170.452 461.18 170.455Z" fill="url(#paint0_linear_866_162)"/>
<defs>
<linearGradient id="paint0_linear_866_162" x1="419" y1="11.6869" x2="310.893" y2="214.356" gradientUnits="userSpaceOnUse">
<stop stop-color="#00DCFF"/>
<stop offset="0.989484" stop-color="#017FF8"/>
</linearGradient>
</defs>
</svg>
