<svg width="88" height="88" viewBox="0 0 88 88" fill="none" xmlns="http://www.w3.org/2000/svg">
<g filter="url(#filter0_i_33_701)">
<path fill-rule="evenodd" clip-rule="evenodd" d="M46.3833 60.2078H69.8152C69.9609 60.2075 70.1007 60.1494 70.2038 60.0464C70.3068 59.9433 70.3649 59.8035 70.3652 59.6578V36.2267C70.3649 36.0809 70.3068 35.9412 70.2038 35.8381C70.1007 35.735 69.9609 35.677 69.8152 35.6767H62.2453C62.0996 35.677 61.9598 35.735 61.8567 35.8381C61.7537 35.9412 61.6956 36.0809 61.6953 36.2267V38.0367C61.6953 38.509 61.6023 38.9766 61.4216 39.4129C61.2409 39.8493 60.976 40.2457 60.642 40.5797C60.3081 40.9136 59.9116 41.1785 59.4753 41.3592C59.039 41.54 58.5713 41.633 58.0991 41.633C57.6268 41.633 57.1592 41.54 56.7228 41.3592C56.2865 41.1785 55.8901 40.9136 55.5561 40.5797C55.2222 40.2457 54.9573 39.8493 54.7766 39.4129C54.5958 38.9766 54.5028 38.509 54.5028 38.0367V36.2267C54.5025 36.0809 54.4445 35.9412 54.3414 35.8381C54.2383 35.735 54.0986 35.677 53.9528 35.6767H46.3833C46.2376 35.677 46.0978 35.735 45.9947 35.8381C45.8917 35.9412 45.8336 36.0809 45.8333 36.2267V43.7963C45.8333 43.9422 45.7754 44.0821 45.6722 44.1852C45.5691 44.2884 45.4292 44.3463 45.2833 44.3463H43.4733C42.5239 44.3531 41.6157 44.735 40.9468 45.4087C40.2779 46.0824 39.9025 46.9933 39.9025 47.9427C39.9025 48.8921 40.2779 49.8029 40.9468 50.4767C41.6157 51.1504 42.5239 51.5323 43.4733 51.539H45.2833C45.4291 51.5393 45.5688 51.5974 45.6719 51.7004C45.775 51.8035 45.833 51.9433 45.8333 52.089V59.6587C45.8336 59.8045 45.8917 59.9442 45.9947 60.0473C46.0978 60.1504 46.2376 60.2084 46.3833 60.2087V60.2078ZM1.37225 72.6587H4.50267C4.86642 72.6593 5.21508 72.8041 5.47231 73.0613C5.72954 73.3185 5.87437 73.6672 5.8751 74.0309V86.6278C5.87437 86.9915 5.72954 87.3401 5.47231 87.5973C5.21508 87.8545 4.86642 87.9993 4.50267 88H1.37225C1.00853 87.9993 0.659915 87.8545 0.402725 87.5973C0.145536 87.3401 0.000726716 86.9915 0 86.6278V74.0309C0.000726716 73.6672 0.145536 73.3186 0.402725 73.0614C0.659915 72.8042 1.00853 72.6594 1.37225 72.6587ZM20.6762 84.6148C19.4563 85.3191 18.0695 86.0183 16.2164 86.0497H8.44158V74.6004C8.96238 74.5595 9.45038 74.3301 9.81402 73.955L15.1635 68.6055C15.49 68.2547 15.8885 67.9785 16.3316 67.7961C16.7748 67.6136 17.2522 67.529 17.7311 67.5483H19.468V77.055C19.468 77.1193 19.485 77.1825 19.5172 77.2383C19.5494 77.294 19.5957 77.3402 19.6514 77.3724C19.7071 77.4046 19.7704 77.4215 19.8347 77.4215C19.899 77.4215 19.9623 77.4045 20.018 77.3724L26.5861 73.573C26.9619 73.3541 27.3772 73.2116 27.8083 73.1536C28.2393 73.0957 28.6775 73.1234 29.0978 73.2351C29.5181 73.3469 29.9122 73.5406 30.2575 73.805C30.6027 74.0694 30.8924 74.3994 31.1099 74.7761C31.3273 75.1527 31.4683 75.5686 31.5246 75.9998C31.581 76.431 31.5517 76.8691 31.4383 77.289C31.325 77.7089 31.1299 78.1023 30.8642 78.4465C30.5984 78.7908 30.2674 79.0793 29.8899 79.2953L20.676 84.6149L20.6762 84.6148ZM19.468 53.7086C19.4683 53.5628 19.5263 53.4231 19.6294 53.32C19.7325 53.2169 19.8722 53.1589 20.018 53.1586H27.5876C27.7334 53.1583 27.8731 53.1003 27.9762 52.9972C28.0793 52.8941 28.1373 52.7544 28.1376 52.6086V50.7986C28.1444 49.8492 28.5263 48.941 29.2 48.2721C29.8737 47.6032 30.7846 47.2278 31.734 47.2278C32.6834 47.2278 33.5943 47.6032 34.268 48.2721C34.9417 48.941 35.3236 49.8492 35.3303 50.7986V52.6086C35.3303 52.7545 35.3883 52.8944 35.4914 52.9975C35.5946 53.1007 35.7345 53.1586 35.8804 53.1586H43.45C43.5958 53.1589 43.7355 53.2169 43.8386 53.32C43.9417 53.4231 43.9997 53.5628 44 53.7086V61.2783C43.9997 61.424 43.9417 61.5638 43.8386 61.6668C43.7355 61.7699 43.5958 61.828 43.45 61.8283H41.6399C41.1655 61.8249 40.6951 61.9154 40.2558 62.0946C39.8165 62.2738 39.417 62.5382 39.0803 62.8725C38.7436 63.2068 38.4764 63.6044 38.294 64.0424C38.1117 64.4804 38.0178 64.9502 38.0178 65.4246C38.0178 65.8991 38.1117 66.3688 38.294 66.8068C38.4764 67.2449 38.7436 67.6425 39.0803 67.9767C39.417 68.311 39.8165 68.5754 40.2558 68.7546C40.6951 68.9338 41.1655 69.0244 41.6399 69.021H43.45C43.5958 69.0213 43.7355 69.0793 43.8386 69.1824C43.9417 69.2855 43.9997 69.4252 44 69.571V77.1408C43.9997 77.2866 43.9417 77.4263 43.8386 77.5294C43.7355 77.6325 43.5958 77.6905 43.45 77.6908H33.9654C34.2114 76.5793 34.1285 75.4201 33.7267 74.3549C33.3249 73.2897 32.6218 72.3646 31.703 71.6923C30.7842 71.0201 29.6896 70.6299 28.5528 70.5693C27.416 70.5088 26.2861 70.7805 25.3011 71.3513L22.0346 73.2417V64.9825H19.468V53.7086ZM86.6278 7.5977H83.4973C83.1336 7.59838 82.7849 7.74317 82.5277 8.00036C82.2705 8.25756 82.1256 8.6062 82.1249 8.96995V21.5668C82.1256 21.9305 82.2705 22.2792 82.5277 22.5364C82.7849 22.7936 83.1336 22.9384 83.4973 22.939H86.6278C86.9915 22.9383 87.3401 22.7935 87.5973 22.5363C87.8545 22.2791 87.9993 21.9305 88 21.5668V8.96995C87.9993 8.60623 87.8545 8.25762 87.5973 8.00043C87.3401 7.74324 86.9915 7.59843 86.6278 7.5977ZM67.3239 19.554C68.5438 20.2583 69.9305 20.9576 71.7836 20.9887H79.5584V9.53957C79.0376 9.4987 78.5496 9.26917 78.186 8.89405L72.8365 3.54457C72.5101 3.19386 72.1117 2.91782 71.6687 2.73534C71.2258 2.55286 70.7486 2.46824 70.2698 2.48728H68.5329V12.6297L61.4137 8.5118C60.6549 8.07368 59.7531 7.95496 58.9067 8.18176C58.0603 8.40856 57.3386 8.9623 56.9005 9.72116C56.4624 10.48 56.3437 11.3818 56.5705 12.2282C56.7973 13.0746 57.351 13.7962 58.1099 14.2344L67.3239 19.554ZM68.532 23.9818C68.5317 24.1276 68.4737 24.2673 68.3706 24.3704C68.2675 24.4735 68.1278 24.5315 67.982 24.5318H60.4124C60.2666 24.5321 60.1268 24.5901 60.0237 24.6932C59.9206 24.7963 59.8626 24.936 59.8624 25.0818V26.8919C59.8658 27.3663 59.7752 27.8367 59.596 28.2761C59.4168 28.7154 59.1524 29.1149 58.8181 29.4515C58.4839 29.7882 58.0863 30.0554 57.6482 30.2378C57.2102 30.4201 56.7405 30.514 56.266 30.514C55.7916 30.514 55.3218 30.4201 54.8838 30.2378C54.4458 30.0554 54.0482 29.7882 53.7139 29.4515C53.3796 29.1149 53.1152 28.7154 52.936 28.2761C52.7568 27.8367 52.6663 27.3663 52.6697 26.8919V25.0818C52.6697 24.936 52.6117 24.7961 52.5086 24.6929C52.4054 24.5898 52.2655 24.5318 52.1197 24.5318H44.55C44.4042 24.5315 44.2645 24.4735 44.1614 24.3704C44.0583 24.2673 44.0003 24.1276 44 23.9818V16.412C44.0003 16.2662 44.0583 16.1265 44.1614 16.0234C44.2645 15.9203 44.4042 15.8623 44.55 15.862H46.3601C47.3138 15.862 48.2286 15.4831 48.903 14.8087C49.5774 14.1342 49.9563 13.2195 49.9563 12.2657C49.9563 11.3119 49.5774 10.3972 48.903 9.72279C48.2286 9.04836 47.3138 8.66947 46.3601 8.66947H44.55C44.4042 8.66918 44.2645 8.61114 44.1614 8.50805C44.0583 8.40497 44.0003 8.26525 44 8.11947V0.55C44.0003 0.40422 44.0583 0.264494 44.1614 0.161412C44.2645 0.0583301 44.4042 0.000290688 44.55 0H65.9654V8.17978L62.6989 6.29017C62.0312 5.90233 61.2936 5.65001 60.5283 5.54768C59.7629 5.44534 58.9849 5.49499 58.2388 5.69378C57.4927 5.89257 56.7931 6.2366 56.1802 6.70616C55.5672 7.17572 55.0529 7.76159 54.6667 8.43022C54.2805 9.09885 54.03 9.83709 53.9296 10.6027C53.8291 11.3683 53.8807 12.1461 54.0813 12.8918C54.2819 13.6374 54.6277 14.3361 55.0988 14.9479C55.5698 15.5597 56.157 16.0726 56.8266 16.4571L66.0405 21.7767C66.8335 22.2476 67.6674 22.646 68.532 22.9669V23.9818ZM41.6167 17.98C41.7624 17.9803 41.9022 18.0384 42.0053 18.1415C42.1083 18.2445 42.1664 18.3843 42.1667 18.5301V26.0997C42.1667 26.2456 42.2246 26.3855 42.3278 26.4886C42.4309 26.5918 42.5708 26.6497 42.7167 26.6497H44.5267C45.4761 26.6565 46.3843 27.0384 47.0532 27.7121C47.7221 28.3858 48.0975 29.2967 48.0975 30.2461C48.0975 31.1954 47.7221 32.1063 47.0532 32.78C46.3843 33.4538 45.4761 33.8356 44.5267 33.8424H42.7167C42.5708 33.8424 42.4309 33.9004 42.3278 34.0035C42.2246 34.1067 42.1667 34.2465 42.1667 34.3924V41.9621C42.1664 42.1078 42.1083 42.2476 42.0053 42.3507C41.9022 42.4537 41.7624 42.5118 41.6167 42.5121H34.0468C33.9011 42.5118 33.7613 42.4537 33.6582 42.3507C33.5552 42.2476 33.4971 42.1078 33.4968 41.9621V40.152C33.4968 39.1982 33.1179 38.2835 32.4435 37.6091C31.7691 36.9346 30.8544 36.5558 29.9006 36.5558C28.9468 36.5558 28.0321 36.9346 27.3576 37.6091C26.6832 38.2835 26.3043 39.1982 26.3043 40.152V41.9621C26.304 42.1078 26.246 42.2476 26.1429 42.3507C26.0398 42.4537 25.9001 42.5118 25.7543 42.5121H18.1845C18.0387 42.5118 17.899 42.4537 17.7959 42.3507C17.6928 42.2476 17.6348 42.1078 17.6345 41.9621V18.5301C17.6348 18.3843 17.6928 18.2445 17.7959 18.1415C17.899 18.0384 18.0387 17.9803 18.1845 17.98H41.6167Z" fill="white"/>
<path fill-rule="evenodd" clip-rule="evenodd" d="M46.3833 60.2078H69.8152C69.9609 60.2075 70.1007 60.1494 70.2038 60.0464C70.3068 59.9433 70.3649 59.8035 70.3652 59.6578V36.2267C70.3649 36.0809 70.3068 35.9412 70.2038 35.8381C70.1007 35.735 69.9609 35.677 69.8152 35.6767H62.2453C62.0996 35.677 61.9598 35.735 61.8567 35.8381C61.7537 35.9412 61.6956 36.0809 61.6953 36.2267V38.0367C61.6953 38.509 61.6023 38.9766 61.4216 39.4129C61.2409 39.8493 60.976 40.2457 60.642 40.5797C60.3081 40.9136 59.9116 41.1785 59.4753 41.3592C59.039 41.54 58.5713 41.633 58.0991 41.633C57.6268 41.633 57.1592 41.54 56.7228 41.3592C56.2865 41.1785 55.8901 40.9136 55.5561 40.5797C55.2222 40.2457 54.9573 39.8493 54.7766 39.4129C54.5958 38.9766 54.5028 38.509 54.5028 38.0367V36.2267C54.5025 36.0809 54.4445 35.9412 54.3414 35.8381C54.2383 35.735 54.0986 35.677 53.9528 35.6767H46.3833C46.2376 35.677 46.0978 35.735 45.9947 35.8381C45.8917 35.9412 45.8336 36.0809 45.8333 36.2267V43.7963C45.8333 43.9422 45.7754 44.0821 45.6722 44.1852C45.5691 44.2884 45.4292 44.3463 45.2833 44.3463H43.4733C42.5239 44.3531 41.6157 44.735 40.9468 45.4087C40.2779 46.0824 39.9025 46.9933 39.9025 47.9427C39.9025 48.8921 40.2779 49.8029 40.9468 50.4767C41.6157 51.1504 42.5239 51.5323 43.4733 51.539H45.2833C45.4291 51.5393 45.5688 51.5974 45.6719 51.7004C45.775 51.8035 45.833 51.9433 45.8333 52.089V59.6587C45.8336 59.8045 45.8917 59.9442 45.9947 60.0473C46.0978 60.1504 46.2376 60.2084 46.3833 60.2087V60.2078ZM1.37225 72.6587H4.50267C4.86642 72.6593 5.21508 72.8041 5.47231 73.0613C5.72954 73.3185 5.87437 73.6672 5.8751 74.0309V86.6278C5.87437 86.9915 5.72954 87.3401 5.47231 87.5973C5.21508 87.8545 4.86642 87.9993 4.50267 88H1.37225C1.00853 87.9993 0.659915 87.8545 0.402725 87.5973C0.145536 87.3401 0.000726716 86.9915 0 86.6278V74.0309C0.000726716 73.6672 0.145536 73.3186 0.402725 73.0614C0.659915 72.8042 1.00853 72.6594 1.37225 72.6587ZM20.6762 84.6148C19.4563 85.3191 18.0695 86.0183 16.2164 86.0497H8.44158V74.6004C8.96238 74.5595 9.45038 74.3301 9.81402 73.955L15.1635 68.6055C15.49 68.2547 15.8885 67.9785 16.3316 67.7961C16.7748 67.6136 17.2522 67.529 17.7311 67.5483H19.468V77.055C19.468 77.1193 19.485 77.1825 19.5172 77.2383C19.5494 77.294 19.5957 77.3402 19.6514 77.3724C19.7071 77.4046 19.7704 77.4215 19.8347 77.4215C19.899 77.4215 19.9623 77.4045 20.018 77.3724L26.5861 73.573C26.9619 73.3541 27.3772 73.2116 27.8083 73.1536C28.2393 73.0957 28.6775 73.1234 29.0978 73.2351C29.5181 73.3469 29.9122 73.5406 30.2575 73.805C30.6027 74.0694 30.8924 74.3994 31.1099 74.7761C31.3273 75.1527 31.4683 75.5686 31.5246 75.9998C31.581 76.431 31.5517 76.8691 31.4383 77.289C31.325 77.7089 31.1299 78.1023 30.8642 78.4465C30.5984 78.7908 30.2674 79.0793 29.8899 79.2953L20.676 84.6149L20.6762 84.6148ZM19.468 53.7086C19.4683 53.5628 19.5263 53.4231 19.6294 53.32C19.7325 53.2169 19.8722 53.1589 20.018 53.1586H27.5876C27.7334 53.1583 27.8731 53.1003 27.9762 52.9972C28.0793 52.8941 28.1373 52.7544 28.1376 52.6086V50.7986C28.1444 49.8492 28.5263 48.941 29.2 48.2721C29.8737 47.6032 30.7846 47.2278 31.734 47.2278C32.6834 47.2278 33.5943 47.6032 34.268 48.2721C34.9417 48.941 35.3236 49.8492 35.3303 50.7986V52.6086C35.3303 52.7545 35.3883 52.8944 35.4914 52.9975C35.5946 53.1007 35.7345 53.1586 35.8804 53.1586H43.45C43.5958 53.1589 43.7355 53.2169 43.8386 53.32C43.9417 53.4231 43.9997 53.5628 44 53.7086V61.2783C43.9997 61.424 43.9417 61.5638 43.8386 61.6668C43.7355 61.7699 43.5958 61.828 43.45 61.8283H41.6399C41.1655 61.8249 40.6951 61.9154 40.2558 62.0946C39.8165 62.2738 39.417 62.5382 39.0803 62.8725C38.7436 63.2068 38.4764 63.6044 38.294 64.0424C38.1117 64.4804 38.0178 64.9502 38.0178 65.4246C38.0178 65.8991 38.1117 66.3688 38.294 66.8068C38.4764 67.2449 38.7436 67.6425 39.0803 67.9767C39.417 68.311 39.8165 68.5754 40.2558 68.7546C40.6951 68.9338 41.1655 69.0244 41.6399 69.021H43.45C43.5958 69.0213 43.7355 69.0793 43.8386 69.1824C43.9417 69.2855 43.9997 69.4252 44 69.571V77.1408C43.9997 77.2866 43.9417 77.4263 43.8386 77.5294C43.7355 77.6325 43.5958 77.6905 43.45 77.6908H33.9654C34.2114 76.5793 34.1285 75.4201 33.7267 74.3549C33.3249 73.2897 32.6218 72.3646 31.703 71.6923C30.7842 71.0201 29.6896 70.6299 28.5528 70.5693C27.416 70.5088 26.2861 70.7805 25.3011 71.3513L22.0346 73.2417V64.9825H19.468V53.7086ZM86.6278 7.5977H83.4973C83.1336 7.59838 82.7849 7.74317 82.5277 8.00036C82.2705 8.25756 82.1256 8.6062 82.1249 8.96995V21.5668C82.1256 21.9305 82.2705 22.2792 82.5277 22.5364C82.7849 22.7936 83.1336 22.9384 83.4973 22.939H86.6278C86.9915 22.9383 87.3401 22.7935 87.5973 22.5363C87.8545 22.2791 87.9993 21.9305 88 21.5668V8.96995C87.9993 8.60623 87.8545 8.25762 87.5973 8.00043C87.3401 7.74324 86.9915 7.59843 86.6278 7.5977ZM67.3239 19.554C68.5438 20.2583 69.9305 20.9576 71.7836 20.9887H79.5584V9.53957C79.0376 9.4987 78.5496 9.26917 78.186 8.89405L72.8365 3.54457C72.5101 3.19386 72.1117 2.91782 71.6687 2.73534C71.2258 2.55286 70.7486 2.46824 70.2698 2.48728H68.5329V12.6297L61.4137 8.5118C60.6549 8.07368 59.7531 7.95496 58.9067 8.18176C58.0603 8.40856 57.3386 8.9623 56.9005 9.72116C56.4624 10.48 56.3437 11.3818 56.5705 12.2282C56.7973 13.0746 57.351 13.7962 58.1099 14.2344L67.3239 19.554ZM68.532 23.9818C68.5317 24.1276 68.4737 24.2673 68.3706 24.3704C68.2675 24.4735 68.1278 24.5315 67.982 24.5318H60.4124C60.2666 24.5321 60.1268 24.5901 60.0237 24.6932C59.9206 24.7963 59.8626 24.936 59.8624 25.0818V26.8919C59.8658 27.3663 59.7752 27.8367 59.596 28.2761C59.4168 28.7154 59.1524 29.1149 58.8181 29.4515C58.4839 29.7882 58.0863 30.0554 57.6482 30.2378C57.2102 30.4201 56.7405 30.514 56.266 30.514C55.7916 30.514 55.3218 30.4201 54.8838 30.2378C54.4458 30.0554 54.0482 29.7882 53.7139 29.4515C53.3796 29.1149 53.1152 28.7154 52.936 28.2761C52.7568 27.8367 52.6663 27.3663 52.6697 26.8919V25.0818C52.6697 24.936 52.6117 24.7961 52.5086 24.6929C52.4054 24.5898 52.2655 24.5318 52.1197 24.5318H44.55C44.4042 24.5315 44.2645 24.4735 44.1614 24.3704C44.0583 24.2673 44.0003 24.1276 44 23.9818V16.412C44.0003 16.2662 44.0583 16.1265 44.1614 16.0234C44.2645 15.9203 44.4042 15.8623 44.55 15.862H46.3601C47.3138 15.862 48.2286 15.4831 48.903 14.8087C49.5774 14.1342 49.9563 13.2195 49.9563 12.2657C49.9563 11.3119 49.5774 10.3972 48.903 9.72279C48.2286 9.04836 47.3138 8.66947 46.3601 8.66947H44.55C44.4042 8.66918 44.2645 8.61114 44.1614 8.50805C44.0583 8.40497 44.0003 8.26525 44 8.11947V0.55C44.0003 0.40422 44.0583 0.264494 44.1614 0.161412C44.2645 0.0583301 44.4042 0.000290688 44.55 0H65.9654V8.17978L62.6989 6.29017C62.0312 5.90233 61.2936 5.65001 60.5283 5.54768C59.7629 5.44534 58.9849 5.49499 58.2388 5.69378C57.4927 5.89257 56.7931 6.2366 56.1802 6.70616C55.5672 7.17572 55.0529 7.76159 54.6667 8.43022C54.2805 9.09885 54.03 9.83709 53.9296 10.6027C53.8291 11.3683 53.8807 12.1461 54.0813 12.8918C54.2819 13.6374 54.6277 14.3361 55.0988 14.9479C55.5698 15.5597 56.157 16.0726 56.8266 16.4571L66.0405 21.7767C66.8335 22.2476 67.6674 22.646 68.532 22.9669V23.9818ZM41.6167 17.98C41.7624 17.9803 41.9022 18.0384 42.0053 18.1415C42.1083 18.2445 42.1664 18.3843 42.1667 18.5301V26.0997C42.1667 26.2456 42.2246 26.3855 42.3278 26.4886C42.4309 26.5918 42.5708 26.6497 42.7167 26.6497H44.5267C45.4761 26.6565 46.3843 27.0384 47.0532 27.7121C47.7221 28.3858 48.0975 29.2967 48.0975 30.2461C48.0975 31.1954 47.7221 32.1063 47.0532 32.78C46.3843 33.4538 45.4761 33.8356 44.5267 33.8424H42.7167C42.5708 33.8424 42.4309 33.9004 42.3278 34.0035C42.2246 34.1067 42.1667 34.2465 42.1667 34.3924V41.9621C42.1664 42.1078 42.1083 42.2476 42.0053 42.3507C41.9022 42.4537 41.7624 42.5118 41.6167 42.5121H34.0468C33.9011 42.5118 33.7613 42.4537 33.6582 42.3507C33.5552 42.2476 33.4971 42.1078 33.4968 41.9621V40.152C33.4968 39.1982 33.1179 38.2835 32.4435 37.6091C31.7691 36.9346 30.8544 36.5558 29.9006 36.5558C28.9468 36.5558 28.0321 36.9346 27.3576 37.6091C26.6832 38.2835 26.3043 39.1982 26.3043 40.152V41.9621C26.304 42.1078 26.246 42.2476 26.1429 42.3507C26.0398 42.4537 25.9001 42.5118 25.7543 42.5121H18.1845C18.0387 42.5118 17.899 42.4537 17.7959 42.3507C17.6928 42.2476 17.6348 42.1078 17.6345 41.9621V18.5301C17.6348 18.3843 17.6928 18.2445 17.7959 18.1415C17.899 18.0384 18.0387 17.9803 18.1845 17.98H41.6167Z" fill="#C59CF0"/>
</g>
<defs>
<filter id="filter0_i_33_701" x="0" y="0" width="88" height="92" filterUnits="userSpaceOnUse" color-interpolation-filters="sRGB">
<feFlood flood-opacity="0" result="BackgroundImageFix"/>
<feBlend mode="normal" in="SourceGraphic" in2="BackgroundImageFix" result="shape"/>
<feColorMatrix in="SourceAlpha" type="matrix" values="0 0 0 0 0 0 0 0 0 0 0 0 0 0 0 0 0 0 127 0" result="hardAlpha"/>
<feOffset dy="4"/>
<feGaussianBlur stdDeviation="2"/>
<feComposite in2="hardAlpha" operator="arithmetic" k2="-1" k3="1"/>
<feColorMatrix type="matrix" values="0 0 0 0 0 0 0 0 0 0 0 0 0 0 0 0 0 0 0.25 0"/>
<feBlend mode="normal" in2="shape" result="effect1_innerShadow_33_701"/>
</filter>
</defs>
</svg>
