<svg width="415" height="24" viewBox="0 0 415 24" fill="none" xmlns="http://www.w3.org/2000/svg">
<path d="M4.9914 6.43568C6.03705 6.0746 7.13202 6.60083 7.1783 6.62338C7.40359 6.73356 7.49733 7.00513 7.38809 7.23089C7.36577 7.27717 6.82897 8.36721 5.78356 8.72829C5.38255 8.86689 4.9759 8.93996 4.61529 8.93996C4.54035 8.93996 4.46729 8.93667 4.39682 8.93032C3.80974 8.87723 3.54593 8.62398 3.42776 8.41561C3.36879 8.42947 3.30278 8.43887 3.22948 8.43887C3.0143 8.43887 2.73897 8.36134 2.41759 8.1041C2.09622 7.84709 1.79058 7.4543 1.55683 6.99808C1.05269 6.01376 1.42011 4.85535 1.43608 4.80649C1.51361 4.56828 1.7692 4.43719 2.00812 4.51354C2.05699 4.52928 3.21163 4.90798 3.71577 5.8923C3.89432 6.24116 4.01178 6.58274 4.06957 6.89707C4.33174 6.71406 4.64795 6.55455 4.9914 6.43568Z" fill="#E99A23"/>
<path d="M0.420748 9.917C0.472196 9.913 1.6844 9.82914 2.52213 10.5513C2.80733 10.797 3.04977 11.0728 3.2276 11.3496C3.40168 11.0808 3.63449 10.8137 3.90841 10.5738C4.74074 9.84582 5.95365 9.92076 6.0051 9.92428C6.25505 9.94143 6.44417 10.1576 6.42819 10.408C6.4249 10.459 6.33822 11.6712 5.50565 12.3994C5.11991 12.737 4.6907 12.9888 4.29697 13.1089C4.1095 13.1662 3.9467 13.1892 3.80622 13.1892C3.52431 13.1892 3.33144 13.096 3.20576 12.9971C3.0493 13.108 2.85361 13.162 2.63278 13.162C2.14109 13.162 1.52489 12.8939 0.938518 12.3886C0.100784 11.6665 0.00493518 10.4552 0.00117641 10.404C-0.0166777 10.1538 0.170791 9.93626 0.420748 9.917Z" fill="#E99A23"/>
<path d="M0.625366 15.5641C0.676579 15.5385 1.89512 14.9418 3.06292 15.3355C3.48555 15.4779 3.88915 15.6827 4.21287 15.9263C4.27466 15.5361 4.4149 15.1208 4.60919 14.7343C5.16266 13.6335 6.44886 13.201 6.50337 13.1831C6.74181 13.1051 6.99835 13.2341 7.07752 13.4718C7.09584 13.5264 7.51565 14.8165 6.96217 15.9174C6.70423 16.4305 6.36594 16.8726 6.00909 17.1622C5.65506 17.4498 5.35366 17.5353 5.11991 17.5353C5.00315 17.5353 4.90378 17.5137 4.82273 17.4855C4.74544 17.6229 4.62939 17.7409 4.48092 17.8318C4.23378 17.9831 3.89408 18.0587 3.50364 18.0587C3.11296 18.0587 2.67131 17.9828 2.22143 17.8311C1.05387 17.4373 0.445415 16.2247 0.420044 16.1732C0.30916 15.9482 0.401015 15.6761 0.625366 15.5641Z" fill="#E99A23"/>
<path d="M5.71826 19.9846C6.2863 19.9127 6.77141 19.9353 7.16679 20.0236C7.03594 19.6167 6.96804 19.134 6.97556 18.6312C6.9953 17.3119 8.03436 16.2935 8.07852 16.2507C8.25894 16.0764 8.54602 16.0809 8.72127 16.2604C8.76403 16.3043 9.77255 17.3532 9.75258 18.6726C9.72886 20.2672 9.07154 21.1219 8.40812 21.1778C8.40154 21.447 8.27069 21.8532 7.66741 22.222C7.24713 22.4788 6.67862 22.663 6.06641 22.7403C5.95482 22.7543 5.84441 22.7609 5.73564 22.7609C4.56878 22.7609 3.59925 22.0165 3.55485 21.9819C3.35728 21.8278 3.3211 21.5429 3.47427 21.3443C3.51186 21.2957 4.40903 20.1502 5.71826 19.9846Z" fill="#E99A23"/>
<path d="M10.462 22.6376C10.6397 22.6376 10.8083 22.5333 10.8819 22.3594C10.9798 22.1278 10.8713 21.8602 10.6397 21.7623C6.42913 19.9816 3.70849 15.877 3.70849 11.3056C3.70849 8.56995 4.6954 5.92778 6.48716 3.86562C6.65231 3.67557 6.6321 3.38779 6.44229 3.22264C6.25247 3.05773 5.96469 3.07793 5.79954 3.26775C3.86354 5.49575 2.79723 8.3503 2.79723 11.3056C2.79723 16.2439 5.73634 20.6779 10.2847 22.6017C10.3427 22.6261 10.4028 22.6376 10.462 22.6376Z" fill="#E99A23"/>
<path d="M25.8004 6.43568C24.7547 6.0746 23.6598 6.60083 23.6135 6.62338C23.3884 6.73356 23.2945 7.00513 23.4037 7.23089C23.426 7.27717 23.9628 8.36721 25.0082 8.72829C25.4092 8.86689 25.8159 8.93996 26.1765 8.93996C26.2514 8.93996 26.3245 8.93667 26.3952 8.93032C26.982 8.87723 27.2459 8.62398 27.364 8.41561C27.423 8.42947 27.489 8.43887 27.5623 8.43887C27.7775 8.43887 28.0528 8.36134 28.3742 8.1041C28.6958 7.84709 29.0014 7.4543 29.235 6.99808C29.7393 6.01376 29.3717 4.85535 29.3559 4.80649C29.2782 4.56828 29.0226 4.43719 28.7839 4.51354C28.7348 4.52928 27.5802 4.90798 27.076 5.8923C26.8975 6.24116 26.78 6.58274 26.7222 6.89707C26.4601 6.71406 26.1441 6.55455 25.8004 6.43568Z" fill="#E99A23"/>
<path d="M30.371 9.917C30.3198 9.913 29.1076 9.82914 28.2697 10.5513C27.9845 10.797 27.742 11.0728 27.5642 11.3496C27.3903 11.0808 27.1573 10.8137 26.8834 10.5738C26.0511 9.84582 24.8381 9.92076 24.7867 9.92428C24.5367 9.94143 24.3476 10.1576 24.3636 10.408C24.3669 10.459 24.4538 11.6712 25.2861 12.3994C25.6719 12.737 26.1011 12.9888 26.4948 13.1089C26.6823 13.1662 26.8451 13.1892 26.9856 13.1892C27.2675 13.1892 27.4606 13.096 27.586 12.9971C27.7427 13.108 27.9382 13.162 28.1592 13.162C28.6507 13.162 29.2669 12.8939 29.8533 12.3886C30.6912 11.6665 30.7869 10.455 30.7906 10.4038C30.8085 10.1538 30.621 9.93626 30.371 9.917Z" fill="#E99A23"/>
<path d="M30.1664 15.5641C30.1152 15.5385 28.8967 14.9418 27.7289 15.3355C27.3062 15.4779 26.9026 15.6827 26.5792 15.9263C26.5171 15.5361 26.3769 15.1208 26.1826 14.7343C25.6291 13.6335 24.3429 13.201 24.2884 13.1831C24.05 13.1051 23.7934 13.2341 23.7143 13.4718C23.6959 13.5264 23.2761 14.8165 23.8296 15.9174C24.0876 16.4305 24.4261 16.8726 24.7827 17.1622C25.1367 17.4498 25.4384 17.5353 25.6719 17.5353C25.7889 17.5353 25.8882 17.5137 25.9691 17.4855C26.0464 17.6229 26.1624 17.7409 26.3109 17.8318C26.558 17.9831 26.8977 18.0587 27.2882 18.0587C27.6791 18.0587 28.1205 17.9828 28.5704 17.8311C29.7379 17.4373 30.3466 16.2247 30.3717 16.1732C30.4826 15.9482 30.3908 15.6761 30.1664 15.5641Z" fill="#E99A23"/>
<path d="M25.0735 19.9846C24.5055 19.9127 24.0204 19.9353 23.625 20.0236C23.7559 19.6167 23.8237 19.134 23.8162 18.6312C23.7965 17.3119 22.7574 16.2935 22.7133 16.2507C22.5328 16.0764 22.2458 16.0809 22.0708 16.2604C22.0278 16.3043 21.0195 17.3532 21.0392 18.6726C21.0629 20.2672 21.7203 21.1219 22.3837 21.1778C22.3905 21.447 22.5213 21.8532 23.1244 22.222C23.5447 22.4788 24.1132 22.663 24.7254 22.7403C24.837 22.7543 24.9474 22.7609 25.0562 22.7609C26.2232 22.7609 27.1925 22.0165 27.2369 21.9819C27.4347 21.8278 27.4707 21.5429 27.3175 21.3443C27.2799 21.2957 26.3828 20.1502 25.0735 19.9846Z" fill="#E99A23"/>
<path d="M20.3297 22.6376C20.1524 22.6376 19.9835 22.5333 19.9102 22.3594C19.812 22.1278 19.9205 21.8602 20.1521 21.7623C24.3627 19.9813 27.0833 15.8768 27.0833 11.3054C27.0833 8.56995 26.0966 5.92778 24.3046 3.86539C24.1395 3.67557 24.1597 3.38779 24.3497 3.22264C24.5393 3.05749 24.8273 3.07769 24.9925 3.26775C26.9285 5.49575 27.9946 8.3503 27.9946 11.3054C27.9946 16.2437 25.0557 20.6776 20.5071 22.6017C20.4493 22.6261 20.3889 22.6376 20.3297 22.6376Z" fill="#E99A23"/>
<path d="M19.3715 23.9099H11.1927C10.6916 23.9099 10.2814 23.5 10.2814 22.9987V21.6798C10.2814 21.1787 10.6916 20.7685 11.1927 20.7685H19.3715C19.8726 20.7685 20.2828 21.1787 20.2828 21.6798V22.9987C20.2828 23.5 19.8726 23.9099 19.3715 23.9099Z" fill="#FDE467"/>
<path d="M19.3715 20.7685H17.549C18.0503 20.7685 18.4602 21.1787 18.4602 21.6798V22.9987C18.4602 23.5 18.0503 23.9099 17.549 23.9099H19.3715C19.8726 23.9099 20.2828 23.5 20.2828 22.9987V21.6798C20.2828 21.1787 19.8726 20.7685 19.3715 20.7685Z" fill="#E99A23"/>
<path d="M21.623 8.71842C21.5659 8.5427 21.4083 8.4189 21.2241 8.4048L17.2283 8.09987L15.7034 4.39373C15.6332 4.22294 15.4666 4.11159 15.282 4.11159C15.0973 4.11159 14.931 4.22294 14.8607 4.39373L13.3359 8.09987L9.33982 8.4048C9.15588 8.4189 8.99825 8.5427 8.94116 8.71842C8.88407 8.89391 8.93881 9.08678 9.07953 9.20636L12.1331 11.8018L11.1882 15.6963C11.1447 15.8758 11.2138 16.0638 11.3632 16.1723C11.5126 16.2808 11.7128 16.2886 11.8699 16.1915L15.282 14.0895L18.694 16.1915C18.7675 16.2369 18.8502 16.2594 18.9329 16.2594C19.0273 16.2594 19.1213 16.2303 19.2009 16.1723C19.3503 16.0638 19.4194 15.8758 19.376 15.6963L18.4309 11.8018L21.4846 9.20636C21.6253 9.08678 21.6798 8.89415 21.623 8.71842Z" fill="#FDE467"/>
<path d="M21.623 8.71842C21.5659 8.5427 21.4083 8.4189 21.2241 8.4048L17.2283 8.09987L15.7034 4.39373C15.6332 4.22294 15.4666 4.11159 15.282 4.11159C15.0973 4.11159 14.931 4.22294 14.8607 4.39373L14.2709 5.82746L15.4058 8.58593L19.4016 8.89086C19.5857 8.90495 19.7431 9.02876 19.8005 9.20448C19.8573 9.37997 19.8028 9.5726 19.6621 9.69241L16.6086 12.2878L17.3556 15.3672L18.6942 16.1918C18.7675 16.2369 18.8504 16.2594 18.9331 16.2594C19.0273 16.2594 19.1213 16.2303 19.2009 16.1723C19.3503 16.0638 19.4194 15.8758 19.376 15.6963L18.4311 11.8018L21.4846 9.20636C21.6253 9.08678 21.6798 8.89415 21.623 8.71842Z" fill="#E99A23"/>
<path d="M9.4742 4.64933C9.43732 4.68245 8.59089 5.43538 7.53985 5.43538C7.50132 5.43538 7.46256 5.4342 7.42356 5.43209C6.91166 5.40484 6.42843 5.28573 6.06289 5.09709C5.53924 4.82693 5.3903 4.4931 5.35906 4.25536C4.74755 4.15904 4.25751 3.35537 4.15954 2.23761C4.06323 1.13582 4.84011 0.201066 4.873 0.161834C5.03487 -0.0298632 5.321 -0.0547649 5.5134 0.105922C5.55287 0.138811 6.47988 0.924628 6.57619 2.02642C6.61026 2.41662 6.59052 2.77723 6.52545 3.09015C6.83743 3.0192 7.19028 2.99054 7.55324 3.01004C8.65761 3.069 9.4742 3.96899 9.5085 4.00728C9.67553 4.19428 9.66026 4.48112 9.4742 4.64933Z" fill="#E99A23"/>
<path d="M21.3176 4.64933C21.3545 4.68245 22.2007 5.43538 23.2519 5.43538C23.2905 5.43538 23.3292 5.4342 23.3682 5.43209C23.8799 5.40484 24.3634 5.28573 24.7289 5.09709C25.2525 4.82693 25.4015 4.4931 25.4327 4.25536C26.0442 4.15904 26.5343 3.35537 26.6322 2.23761C26.7283 1.13582 25.9517 0.201066 25.9186 0.161834C25.7569 -0.0298632 25.4708 -0.0547649 25.2784 0.105922C25.2389 0.138811 24.3119 0.924628 24.2156 2.02642C24.1815 2.41662 24.2013 2.77723 24.2663 3.09015C23.9544 3.0192 23.6015 2.99054 23.2383 3.01004C22.1342 3.069 21.3176 3.96899 21.2833 4.00728C21.1163 4.19428 21.1315 4.48112 21.3176 4.64933Z" fill="#E99A23"/>
<path d="M44.0793 6.98257C46.1767 6.98257 47.7199 8.36091 47.7199 10.3086C47.7199 11.612 47.0906 12.5858 45.5175 13.8743C44.4988 14.7133 43.495 15.4773 43.495 15.4773H47.8098V17.455H40.3937V15.6871L44.319 12.3161C45.143 11.597 45.4876 11.0577 45.4876 10.4584C45.4876 9.63438 44.8733 9.05008 44.0793 9.05008C43.1804 9.05008 42.611 9.76922 42.5961 10.803H40.4237C40.4237 8.48077 41.8619 6.98257 44.0793 6.98257ZM48.5639 12.3161C48.5639 9.51452 50.0621 6.98257 52.9686 6.98257C55.8751 6.98257 57.3733 9.51452 57.3733 12.3161C57.3733 15.1178 55.8751 17.6497 52.9686 17.6497C50.0621 17.6497 48.5639 15.1178 48.5639 12.3161ZM55.141 12.3161C55.141 10.6681 54.4818 9.06506 52.9686 9.06506C51.4554 9.06506 50.7962 10.6681 50.7962 12.3161C50.7962 13.9642 51.4554 15.5672 52.9686 15.5672C54.4818 15.5672 55.141 13.9642 55.141 12.3161ZM61.6883 6.98257C63.7858 6.98257 65.3289 8.36091 65.3289 10.3086C65.3289 11.612 64.6997 12.5858 63.1266 13.8743C62.1078 14.7133 61.104 15.4773 61.104 15.4773H65.4188V17.455H58.0028V15.6871L61.928 12.3161C62.7521 11.597 63.0966 11.0577 63.0966 10.4584C63.0966 9.63438 62.4824 9.05008 61.6883 9.05008C60.7894 9.05008 60.2201 9.76922 60.2051 10.803H58.0327C58.0327 8.48077 59.471 6.98257 61.6883 6.98257ZM68.3304 13.1102L66.3528 12.7057L67.1168 7.16236H73.0197V9.08005H68.7948L68.5102 11.0427C68.9896 10.6532 69.6937 10.4284 70.4129 10.4284C72.3755 10.4284 73.7538 11.9716 73.7538 13.8443C73.7538 16.0167 72.0908 17.6497 69.9185 17.6497C67.6562 17.6497 66.143 16.2714 66.0981 14.2788H68.2405C68.3154 15.0129 68.9147 15.6421 69.9035 15.6421C70.8473 15.6421 71.5665 14.893 71.5665 13.9492C71.5665 12.9903 70.8324 12.2712 69.8735 12.2712C69.1993 12.2712 68.66 12.6308 68.3304 13.1102ZM81.191 6.96759H83.1836L87.3935 17.455H85.0413L84.1574 15.1927H80.1572L79.2733 17.455H76.9661L81.191 6.96759ZM82.1498 9.82914L80.8464 13.26H83.4832L82.1498 9.82914ZM91.2892 17.455H89.4614L85.8657 6.96759H88.2179L90.4052 13.9042L92.6375 6.96759H94.4653L96.6827 13.9042L98.885 6.96759H101.192L97.5966 17.455H95.7538L93.5215 10.4584L91.2892 17.455ZM103.892 6.96759H105.884L110.094 17.455H107.742L106.858 15.1927H102.858L101.974 17.455H99.6666L103.892 6.96759ZM104.85 9.82914L103.547 13.26H106.184L104.85 9.82914ZM113.104 13.6196V17.455H110.872V6.96759H114.363C116.625 6.96759 118.198 8.18113 118.198 10.3235C118.198 11.8217 117.299 12.8705 116.041 13.3499L118.932 17.455H116.28L113.703 13.6196H113.104ZM113.104 8.99015V11.7618H114.378C115.277 11.7618 115.936 11.2374 115.936 10.3685C115.936 9.48456 115.277 8.99015 114.378 8.99015H113.104ZM128.627 12.2113C128.627 15.1627 126.229 17.455 123.293 17.455H119.742V6.96759H123.293C126.229 6.96759 128.627 9.25983 128.627 12.2113ZM126.319 12.2113C126.319 10.4734 124.971 9.08005 123.233 9.08005H121.99V15.3425H123.233C124.971 15.3425 126.319 13.9492 126.319 12.2113ZM137.382 17.455H135.554L131.959 6.96759H134.311L136.498 13.9042L138.73 6.96759H140.558L142.776 13.9042L144.978 6.96759H147.285L143.689 17.455H141.847L139.614 10.4584L137.382 17.455ZM148.065 6.96759H150.327V17.455H148.065V6.96759ZM159.269 6.96759H161.456V17.455H159.209L154.28 10.5333V17.455H152.093V6.96759H154.385L159.269 13.9192V6.96759ZM170.407 6.96759H172.595V17.455H170.347L165.418 10.5333V17.455H163.231V6.96759H165.523L170.407 13.9192V6.96759ZM174.369 6.96759H176.631V17.455H174.369V6.96759ZM185.573 6.96759H187.76V17.455H185.513L180.584 10.5333V17.455H178.397V6.96759H180.689L185.573 13.9192V6.96759ZM199.258 9.48456L197.22 10.4734C196.696 9.46958 195.722 8.90026 194.509 8.90026C192.726 8.90026 191.318 10.3685 191.318 12.2113C191.318 14.0541 192.726 15.5373 194.524 15.5373C195.917 15.5373 197.011 14.7133 197.28 13.5147H194.239V11.627H199.692V12.466C199.692 15.3874 197.505 17.6497 194.509 17.6497C191.452 17.6497 189.04 15.2077 189.04 12.2113C189.04 9.21488 191.512 6.77283 194.524 6.77283C196.621 6.77283 198.404 7.80658 199.258 9.48456ZM203.954 6.96759H207.52C209.797 6.96759 211.37 8.19611 211.37 10.3535C211.37 12.4959 209.797 13.7394 207.52 13.7394H206.202V17.455H203.954V6.96759ZM206.202 8.99015V11.7468H207.565C208.464 11.7468 209.108 11.2374 209.108 10.3685C209.108 9.49954 208.464 8.99015 207.565 8.99015H206.202ZM214.589 13.6196V17.455H212.356V6.96759H215.847C218.109 6.96759 219.683 8.18113 219.683 10.3235C219.683 11.8217 218.784 12.8705 217.525 13.3499L220.417 17.455H217.765L215.188 13.6196H214.589ZM214.589 8.99015V11.7618H215.862C216.761 11.7618 217.42 11.2374 217.42 10.3685C217.42 9.48456 216.761 8.99015 215.862 8.99015H214.589ZM231.48 12.2113C231.48 15.2376 229.038 17.6497 225.996 17.6497C222.955 17.6497 220.513 15.2376 220.513 12.2113C220.513 9.18492 222.955 6.77283 225.996 6.77283C229.038 6.77283 231.48 9.18492 231.48 12.2113ZM229.172 12.2113C229.172 10.3985 227.779 8.96019 225.996 8.96019C224.213 8.96019 222.82 10.3985 222.82 12.2113C222.82 14.0241 224.213 15.4624 225.996 15.4624C227.779 15.4624 229.172 14.0241 229.172 12.2113ZM242.556 9.48456L240.519 10.4734C239.994 9.46958 239.021 8.90026 237.807 8.90026C236.024 8.90026 234.616 10.3685 234.616 12.2113C234.616 14.0541 236.024 15.5373 237.822 15.5373C239.215 15.5373 240.309 14.7133 240.579 13.5147H237.537V11.627H242.991V12.466C242.991 15.3874 240.804 17.6497 237.807 17.6497C234.751 17.6497 232.339 15.2077 232.339 12.2113C232.339 9.21488 234.811 6.77283 237.822 6.77283C239.92 6.77283 241.702 7.80658 242.556 9.48456ZM246.438 13.6196V17.455H244.205V6.96759H247.696C249.958 6.96759 251.532 8.18113 251.532 10.3235C251.532 11.8217 250.633 12.8705 249.374 13.3499L252.266 17.455H249.614L247.037 13.6196H246.438ZM246.438 8.99015V11.7618H247.711C248.61 11.7618 249.269 11.2374 249.269 10.3685C249.269 9.48456 248.61 8.99015 247.711 8.99015H246.438ZM256.531 6.96759H258.524L262.734 17.455H260.382L259.498 15.1927H255.498L254.614 17.455H252.306L256.531 6.96759ZM257.49 9.82914L256.187 13.26H258.824L257.49 9.82914ZM272.845 6.96759H275.512V17.455H273.325V10.6981L270.238 17.455H268.77L265.699 10.7281V17.455H263.512V6.96759H266.253L269.549 14.2638L272.845 6.96759Z" fill="#E99A23"/>
<path d="M285.011 9.06506C285.41 9.06506 285.774 9.121 286.101 9.23286C286.437 9.33674 286.725 9.49255 286.964 9.7003C287.204 9.90805 287.388 10.1637 287.516 10.4674C287.652 10.763 287.719 11.1026 287.719 11.4861C287.719 11.8697 287.652 12.2133 287.516 12.5169C287.388 12.8125 287.204 13.0642 286.964 13.272C286.725 13.4718 286.437 13.6276 286.101 13.7394C285.774 13.8433 285.41 13.8952 285.011 13.8952H283.477V17.455H282.41V9.06506H285.011ZM283.477 12.9124H285.011C285.49 12.9124 285.882 12.7886 286.185 12.5409C286.489 12.2932 286.641 11.9416 286.641 11.4861C286.641 11.0227 286.489 10.6671 286.185 10.4194C285.882 10.1717 285.49 10.0479 285.011 10.0479H283.477V12.9124ZM291.67 12.5888C291.654 12.5888 291.63 12.5848 291.598 12.5768C291.574 12.5768 291.542 12.5768 291.502 12.5768C291.462 12.5688 291.422 12.5648 291.382 12.5648C290.839 12.5648 290.411 12.7606 290.1 13.1521C289.796 13.5437 289.644 14.0551 289.644 14.6863V17.455H288.626V11.63H289.632V12.6607C289.696 12.4929 289.788 12.3411 289.908 12.2053C290.036 12.0615 290.18 11.9416 290.339 11.8457C290.499 11.7498 290.671 11.6739 290.855 11.618C291.039 11.5621 291.226 11.5341 291.418 11.5341C291.458 11.5341 291.49 11.5381 291.514 11.5461C291.546 11.5461 291.574 11.5461 291.598 11.5461C291.63 11.5541 291.654 11.5581 291.67 11.5581V12.5888ZM294.904 17.5868C294.472 17.5868 294.073 17.5109 293.705 17.3591C293.346 17.2073 293.034 16.9995 292.77 16.7358C292.507 16.4641 292.299 16.1445 292.147 15.777C292.003 15.4014 291.931 14.9899 291.931 14.5425C291.931 14.111 292.003 13.7115 292.147 13.3439C292.299 12.9684 292.503 12.6448 292.758 12.3731C293.022 12.1014 293.33 11.8897 293.681 11.7378C294.033 11.578 294.416 11.4981 294.832 11.4981C295.239 11.4981 295.615 11.578 295.959 11.7378C296.31 11.8897 296.61 12.1014 296.857 12.3731C297.113 12.6448 297.309 12.9644 297.445 13.3319C297.589 13.6915 297.66 14.079 297.66 14.4945C297.66 14.5584 297.656 14.6144 297.649 14.6623C297.649 14.7023 297.649 14.7382 297.649 14.7702V14.8661H292.962C292.978 15.1218 293.042 15.3615 293.154 15.5852C293.266 15.8009 293.41 15.9887 293.585 16.1485C293.761 16.3083 293.961 16.4362 294.185 16.5321C294.416 16.62 294.66 16.6639 294.916 16.6639C295.355 16.6639 295.699 16.572 295.947 16.3882C296.202 16.1965 296.422 15.9568 296.606 15.6691L297.445 16.1006C297.205 16.5401 296.869 16.8996 296.438 17.1793C296.006 17.451 295.495 17.5868 294.904 17.5868ZM296.618 14.0151C296.594 13.7834 296.53 13.5716 296.426 13.3799C296.322 13.1801 296.19 13.0083 296.03 12.8645C295.871 12.7207 295.687 12.6088 295.479 12.5289C295.271 12.441 295.048 12.397 294.808 12.397C294.568 12.397 294.344 12.445 294.137 12.5409C293.929 12.6368 293.741 12.7606 293.573 12.9124C293.414 13.0642 293.282 13.236 293.178 13.4278C293.074 13.6196 293.01 13.8153 292.986 14.0151H296.618ZM299.163 15.6571C299.251 15.9687 299.411 16.2204 299.642 16.4122C299.882 16.596 300.154 16.6879 300.457 16.6879C300.705 16.6879 300.929 16.616 301.129 16.4721C301.328 16.3283 301.428 16.1286 301.428 15.8729C301.428 15.4973 301.153 15.2177 300.601 15.0339L299.954 14.8181C299.427 14.6423 299.043 14.4186 298.803 14.1469C298.572 13.8673 298.456 13.5397 298.456 13.1641C298.456 12.9164 298.504 12.6927 298.6 12.4929C298.696 12.2852 298.827 12.1094 298.995 11.9656C299.163 11.8138 299.363 11.6979 299.594 11.618C299.826 11.5381 300.078 11.4981 300.35 11.4981C300.829 11.4981 301.24 11.626 301.584 11.8817C301.928 12.1294 302.179 12.473 302.339 12.9124L301.44 13.272C301.336 12.9923 301.189 12.7766 300.997 12.6248C300.805 12.465 300.581 12.3851 300.326 12.3851C300.086 12.3851 299.882 12.453 299.714 12.5888C299.555 12.7167 299.475 12.8845 299.475 13.0922C299.475 13.4358 299.758 13.7075 300.326 13.9072L300.925 14.111C301.452 14.2948 301.836 14.5305 302.075 14.8181C302.323 15.0978 302.447 15.4294 302.447 15.8129C302.447 16.0686 302.395 16.3083 302.291 16.5321C302.187 16.7478 302.044 16.9356 301.86 17.0954C301.684 17.2472 301.472 17.3671 301.225 17.455C300.985 17.5429 300.721 17.5868 300.433 17.5868C299.89 17.5868 299.423 17.443 299.031 17.1553C298.648 16.8677 298.388 16.4841 298.252 16.0047L299.163 15.6571ZM306.088 17.5868C305.657 17.5868 305.257 17.5109 304.89 17.3591C304.53 17.2073 304.219 16.9995 303.955 16.7358C303.691 16.4641 303.483 16.1445 303.332 15.777C303.188 15.4014 303.116 14.9899 303.116 14.5425C303.116 14.111 303.188 13.7115 303.332 13.3439C303.483 12.9684 303.687 12.6448 303.943 12.3731C304.207 12.1014 304.514 11.8897 304.866 11.7378C305.217 11.578 305.601 11.4981 306.016 11.4981C306.424 11.4981 306.799 11.578 307.143 11.7378C307.495 11.8897 307.794 12.1014 308.042 12.3731C308.298 12.6448 308.493 12.9644 308.629 13.3319C308.773 13.6915 308.845 14.079 308.845 14.4945C308.845 14.5584 308.841 14.6144 308.833 14.6623C308.833 14.7023 308.833 14.7382 308.833 14.7702V14.8661H304.147C304.163 15.1218 304.227 15.3615 304.338 15.5852C304.45 15.8009 304.594 15.9887 304.77 16.1485C304.946 16.3083 305.145 16.4362 305.369 16.5321C305.601 16.62 305.845 16.6639 306.1 16.6639C306.54 16.6639 306.883 16.572 307.131 16.3882C307.387 16.1965 307.606 15.9568 307.79 15.6691L308.629 16.1006C308.39 16.5401 308.054 16.8996 307.622 17.1793C307.191 17.451 306.68 17.5868 306.088 17.5868ZM307.802 14.0151C307.778 13.7834 307.714 13.5716 307.61 13.3799C307.507 13.1801 307.375 13.0083 307.215 12.8645C307.055 12.7207 306.871 12.6088 306.664 12.5289C306.456 12.441 306.232 12.397 305.992 12.397C305.753 12.397 305.529 12.445 305.321 12.5409C305.113 12.6368 304.926 12.7606 304.758 12.9124C304.598 13.0642 304.466 13.236 304.362 13.4278C304.259 13.6196 304.195 13.8153 304.171 14.0151H307.802ZM310.96 17.455H309.929V11.63H310.96V12.469C311.144 12.1813 311.388 11.9496 311.691 11.7738C312.003 11.59 312.378 11.4981 312.818 11.4981C313.569 11.4981 314.148 11.7299 314.556 12.1933C314.963 12.6487 315.167 13.264 315.167 14.0391V17.455H314.136V14.1589C314.136 13.6316 314.004 13.2161 313.741 12.9124C313.485 12.6088 313.106 12.457 312.602 12.457C312.099 12.457 311.699 12.6328 311.404 12.9843C311.108 13.3359 310.96 13.8113 310.96 14.4106V17.455ZM317.839 9.88008V11.63H319.469V12.5529H317.839V15.6332C317.839 15.9767 317.915 16.2284 318.067 16.3882C318.227 16.548 318.475 16.628 318.81 16.628C318.922 16.628 319.038 16.616 319.158 16.592C319.278 16.56 319.382 16.5121 319.469 16.4482V17.407C319.366 17.4629 319.238 17.5069 319.086 17.5389C318.942 17.5708 318.77 17.5868 318.571 17.5868C318.019 17.5868 317.588 17.427 317.276 17.1074C316.964 16.7878 316.809 16.3443 316.809 15.777V12.5529H315.91V11.63H316.809V9.88008H317.839ZM322.976 17.5868C322.545 17.5868 322.145 17.5109 321.778 17.3591C321.418 17.2073 321.106 16.9995 320.843 16.7358C320.579 16.4641 320.371 16.1445 320.22 15.777C320.076 15.4014 320.004 14.9899 320.004 14.5425C320.004 14.111 320.076 13.7115 320.22 13.3439C320.371 12.9684 320.575 12.6448 320.831 12.3731C321.095 12.1014 321.402 11.8897 321.754 11.7378C322.105 11.578 322.489 11.4981 322.904 11.4981C323.312 11.4981 323.687 11.578 324.031 11.7378C324.383 11.8897 324.682 12.1014 324.93 12.3731C325.186 12.6448 325.381 12.9644 325.517 13.3319C325.661 13.6915 325.733 14.079 325.733 14.4945C325.733 14.5584 325.729 14.6144 325.721 14.6623C325.721 14.7023 325.721 14.7382 325.721 14.7702V14.8661H321.035C321.051 15.1218 321.114 15.3615 321.226 15.5852C321.338 15.8009 321.482 15.9887 321.658 16.1485C321.834 16.3083 322.033 16.4362 322.257 16.5321C322.489 16.62 322.733 16.6639 322.988 16.6639C323.428 16.6639 323.771 16.572 324.019 16.3882C324.275 16.1965 324.494 15.9568 324.678 15.6691L325.517 16.1006C325.277 16.5401 324.942 16.8996 324.51 17.1793C324.079 17.451 323.568 17.5868 322.976 17.5868ZM324.69 14.0151C324.666 13.7834 324.602 13.5716 324.498 13.3799C324.395 13.1801 324.263 13.0083 324.103 12.8645C323.943 12.7207 323.759 12.6088 323.552 12.5289C323.344 12.441 323.12 12.397 322.88 12.397C322.641 12.397 322.417 12.445 322.209 12.5409C322.001 12.6368 321.814 12.7606 321.646 12.9124C321.486 13.0642 321.354 13.236 321.25 13.4278C321.146 13.6196 321.083 13.8153 321.059 14.0151H324.69ZM332.461 9.06506V17.455H331.442V16.5321C331.235 16.8517 330.947 17.1074 330.579 17.2991C330.212 17.4909 329.812 17.5868 329.381 17.5868C328.965 17.5868 328.578 17.5109 328.218 17.3591C327.867 17.1993 327.559 16.9835 327.295 16.7119C327.032 16.4402 326.824 16.1206 326.672 15.753C326.528 15.3775 326.456 14.9739 326.456 14.5425C326.456 14.111 326.528 13.7115 326.672 13.3439C326.824 12.9764 327.032 12.6567 327.295 12.3851C327.559 12.1054 327.867 11.8897 328.218 11.7378C328.578 11.578 328.965 11.4981 329.381 11.4981C329.812 11.4981 330.208 11.586 330.567 11.7618C330.935 11.9376 331.227 12.1853 331.442 12.5049V9.06506H332.461ZM331.502 14.5425C331.502 14.2468 331.45 13.9712 331.346 13.7155C331.251 13.4598 331.111 13.24 330.927 13.0563C330.751 12.8645 330.539 12.7167 330.292 12.6128C330.052 12.5009 329.788 12.445 329.501 12.445C329.213 12.445 328.945 12.5009 328.698 12.6128C328.458 12.7167 328.246 12.8645 328.062 13.0563C327.887 13.24 327.747 13.4598 327.643 13.7155C327.547 13.9712 327.499 14.2468 327.499 14.5425C327.499 14.8381 327.547 15.1138 327.643 15.3695C327.747 15.6252 327.887 15.8489 328.062 16.0407C328.246 16.2244 328.458 16.3723 328.698 16.4841C328.945 16.588 329.213 16.6399 329.501 16.6399C329.788 16.6399 330.052 16.588 330.292 16.4841C330.539 16.3723 330.751 16.2244 330.927 16.0407C331.111 15.8489 331.251 15.6252 331.346 15.3695C331.45 15.1138 331.502 14.8381 331.502 14.5425ZM336.597 17.455V9.06506H337.616V12.5529C337.824 12.2332 338.111 11.9776 338.479 11.7858C338.847 11.594 339.246 11.4981 339.678 11.4981C340.093 11.4981 340.477 11.578 340.828 11.7378C341.188 11.8897 341.499 12.1014 341.763 12.3731C342.027 12.6448 342.23 12.9684 342.374 13.3439C342.526 13.7115 342.602 14.111 342.602 14.5425C342.602 14.9739 342.526 15.3735 342.374 15.741C342.23 16.1086 342.027 16.4322 341.763 16.7119C341.499 16.9835 341.188 17.1993 340.828 17.3591C340.477 17.5109 340.093 17.5868 339.678 17.5868C339.246 17.5868 338.847 17.4989 338.479 17.3231C338.119 17.1473 337.832 16.8996 337.616 16.58V17.455H336.597ZM341.559 14.5425C341.559 14.2468 341.507 13.9712 341.403 13.7155C341.308 13.4598 341.168 13.24 340.984 13.0563C340.808 12.8645 340.596 12.7167 340.349 12.6128C340.109 12.5009 339.845 12.445 339.558 12.445C339.27 12.445 339.002 12.5009 338.755 12.6128C338.515 12.7167 338.303 12.8645 338.119 13.0563C337.944 13.24 337.804 13.4598 337.7 13.7155C337.604 13.9712 337.556 14.2468 337.556 14.5425C337.556 14.8381 337.604 15.1138 337.7 15.3695C337.804 15.6252 337.944 15.8489 338.119 16.0407C338.303 16.2244 338.515 16.3723 338.755 16.4841C339.002 16.588 339.27 16.6399 339.558 16.6399C339.845 16.6399 340.109 16.588 340.349 16.4841C340.596 16.3723 340.808 16.2244 340.984 16.0407C341.168 15.8489 341.308 15.6252 341.403 15.3695C341.507 15.1138 341.559 14.8381 341.559 14.5425ZM345.734 18.3419C345.471 18.9731 345.195 19.4206 344.907 19.6843C344.62 19.9559 344.256 20.0918 343.816 20.0918C343.577 20.0918 343.365 20.0518 343.181 19.9719V19.061C343.245 19.085 343.325 19.105 343.421 19.1209C343.517 19.1449 343.621 19.1569 343.733 19.1569C343.964 19.1569 344.156 19.081 344.308 18.9292C344.468 18.7774 344.628 18.5137 344.787 18.1381L345.135 17.2991L342.822 11.63H343.924L345.674 16.1246L347.472 11.63H348.539L345.734 18.3419ZM351.593 13.26C351.593 12.6527 351.701 12.0854 351.916 11.5581C352.14 11.0307 352.444 10.5712 352.827 10.1797C353.219 9.78819 353.674 9.48056 354.194 9.25683C354.721 9.0331 355.284 8.92124 355.884 8.92124C356.763 8.92124 357.582 9.17293 358.341 9.67633V10.8629C357.534 10.2556 356.707 9.952 355.86 9.952C355.412 9.952 354.997 10.0399 354.613 10.2157C354.23 10.3835 353.894 10.6152 353.606 10.9108C353.327 11.2065 353.103 11.5581 352.935 11.9656C352.775 12.3651 352.696 12.7966 352.696 13.26C352.696 13.7155 352.775 14.1469 352.935 14.5545C353.103 14.954 353.327 15.3016 353.606 15.5972C353.894 15.8928 354.23 16.1286 354.613 16.3043C354.997 16.4721 355.412 16.556 355.86 16.556C356.707 16.556 357.542 16.2604 358.365 15.6691V16.8557C357.582 17.3431 356.751 17.5868 355.872 17.5868C355.272 17.5868 354.713 17.4749 354.194 17.2512C353.674 17.0275 353.219 16.7238 352.827 16.3403C352.444 15.9488 352.14 15.4893 351.916 14.962C351.701 14.4346 351.593 13.8673 351.593 13.26ZM360.524 9.06506V17.455H359.493V9.06506H360.524ZM363.294 9.90405C363.294 10.0958 363.226 10.2596 363.09 10.3955C362.954 10.5313 362.79 10.5992 362.598 10.5992C362.407 10.5992 362.243 10.5313 362.107 10.3955C361.971 10.2596 361.903 10.0958 361.903 9.90405C361.903 9.71228 361.971 9.54848 362.107 9.41265C362.243 9.27681 362.407 9.20889 362.598 9.20889C362.79 9.20889 362.954 9.27681 363.09 9.41265C363.226 9.54848 363.294 9.71228 363.294 9.90405ZM363.114 11.63V17.455H362.083V11.63H363.114ZM364.253 14.5425C364.253 14.119 364.325 13.7235 364.469 13.3559C364.621 12.9803 364.833 12.6567 365.104 12.3851C365.376 12.1054 365.696 11.8897 366.063 11.7378C366.439 11.578 366.85 11.4981 367.298 11.4981C367.905 11.4981 368.456 11.6659 368.952 12.0015V13.0443C368.44 12.6527 367.905 12.457 367.346 12.457C367.05 12.457 366.774 12.5129 366.519 12.6248C366.271 12.7287 366.055 12.8765 365.872 13.0682C365.696 13.252 365.556 13.4718 365.452 13.7274C365.348 13.9751 365.296 14.2468 365.296 14.5425C365.296 14.8301 365.348 15.1018 365.452 15.3575C365.556 15.6132 365.696 15.8369 365.872 16.0287C366.055 16.2125 366.271 16.3603 366.519 16.4721C366.774 16.576 367.05 16.628 367.346 16.628C367.649 16.628 367.941 16.572 368.221 16.4602C368.5 16.3403 368.756 16.2045 368.988 16.0526V17.0954C368.732 17.2552 368.464 17.3751 368.185 17.455C367.905 17.5429 367.613 17.5868 367.31 17.5868C366.854 17.5868 366.439 17.5109 366.063 17.3591C365.688 17.1993 365.364 16.9835 365.092 16.7119C364.829 16.4322 364.621 16.1086 364.469 15.741C364.325 15.3735 364.253 14.9739 364.253 14.5425ZM371.114 13.9432L373.559 11.63H374.878L372.229 14.111L375.105 17.455H373.799L371.51 14.7462L371.114 15.1178V17.455H370.096V9.06506H371.114V13.9432ZM377.009 17.455H375.942V9.06506H380.509V10.0479H377.009V12.6128H380.317V13.5836H377.009V17.455ZM385.671 11.63H386.702V17.455H385.671V16.616C385.488 16.9036 385.244 17.1393 384.94 17.3231C384.637 17.4989 384.265 17.5868 383.826 17.5868C383.082 17.5868 382.507 17.3591 382.1 16.9036C381.7 16.4402 381.5 15.8209 381.5 15.0459V11.63H382.531V14.926C382.531 15.4534 382.659 15.8689 382.915 16.1725C383.17 16.4761 383.546 16.628 384.041 16.628C384.537 16.628 384.932 16.4522 385.228 16.1006C385.524 15.749 385.671 15.2736 385.671 14.6743V11.63ZM389.29 17.455H388.259V11.63H389.29V12.469C389.474 12.1813 389.717 11.9496 390.021 11.7738C390.333 11.59 390.708 11.4981 391.148 11.4981C391.899 11.4981 392.478 11.7299 392.886 12.1933C393.293 12.6487 393.497 13.264 393.497 14.0391V17.455H392.466V14.1589C392.466 13.6316 392.334 13.2161 392.071 12.9124C391.815 12.6088 391.435 12.457 390.932 12.457C390.429 12.457 390.029 12.6328 389.733 12.9843C389.438 13.3359 389.29 13.8113 389.29 14.4106V17.455ZM396 17.455H394.969V11.63H396V12.469C396.184 12.1813 396.428 11.9496 396.731 11.7738C397.043 11.59 397.418 11.4981 397.858 11.4981C398.609 11.4981 399.188 11.7299 399.596 12.1933C400.003 12.6487 400.207 13.264 400.207 14.0391V17.455H399.176V14.1589C399.176 13.6316 399.044 13.2161 398.781 12.9124C398.525 12.6088 398.145 12.457 397.642 12.457C397.139 12.457 396.739 12.6328 396.444 12.9843C396.148 13.3359 396 13.8113 396 14.4106V17.455ZM404.232 17.5868C403.801 17.5868 403.401 17.5109 403.034 17.3591C402.674 17.2073 402.363 16.9995 402.099 16.7358C401.835 16.4641 401.627 16.1445 401.476 15.777C401.332 15.4014 401.26 14.9899 401.26 14.5425C401.26 14.111 401.332 13.7115 401.476 13.3439C401.627 12.9684 401.831 12.6448 402.087 12.3731C402.351 12.1014 402.658 11.8897 403.01 11.7378C403.361 11.578 403.745 11.4981 404.16 11.4981C404.568 11.4981 404.943 11.578 405.287 11.7378C405.639 11.8897 405.938 12.1014 406.186 12.3731C406.442 12.6448 406.637 12.9644 406.773 13.3319C406.917 13.6915 406.989 14.079 406.989 14.4945C406.989 14.5584 406.985 14.6144 406.977 14.6623C406.977 14.7023 406.977 14.7382 406.977 14.7702V14.8661H402.291C402.307 15.1218 402.371 15.3615 402.482 15.5852C402.594 15.8009 402.738 15.9887 402.914 16.1485C403.09 16.3083 403.289 16.4362 403.513 16.5321C403.745 16.62 403.989 16.6639 404.244 16.6639C404.684 16.6639 405.027 16.572 405.275 16.3882C405.531 16.1965 405.75 15.9568 405.934 15.6691L406.773 16.1006C406.533 16.5401 406.198 16.8996 405.766 17.1793C405.335 17.451 404.824 17.5868 404.232 17.5868ZM405.946 14.0151C405.922 13.7834 405.858 13.5716 405.754 13.3799C405.651 13.1801 405.519 13.0083 405.359 12.8645C405.199 12.7207 405.015 12.6088 404.808 12.5289C404.6 12.441 404.376 12.397 404.136 12.397C403.897 12.397 403.673 12.445 403.465 12.5409C403.257 12.6368 403.07 12.7606 402.902 12.9124C402.742 13.0642 402.61 13.236 402.506 13.4278C402.402 13.6196 402.339 13.8153 402.315 14.0151H405.946ZM409.104 9.06506V17.455H408.073V9.06506H409.104ZM411.023 15.6571C411.111 15.9687 411.271 16.2204 411.502 16.4122C411.742 16.596 412.014 16.6879 412.317 16.6879C412.565 16.6879 412.789 16.616 412.989 16.4721C413.188 16.3283 413.288 16.1286 413.288 15.8729C413.288 15.4973 413.013 15.2177 412.461 15.0339L411.814 14.8181C411.287 14.6423 410.903 14.4186 410.663 14.1469C410.432 13.8673 410.316 13.5397 410.316 13.1641C410.316 12.9164 410.364 12.6927 410.46 12.4929C410.555 12.2852 410.687 12.1094 410.855 11.9656C411.023 11.8138 411.223 11.6979 411.454 11.618C411.686 11.5381 411.938 11.4981 412.209 11.4981C412.689 11.4981 413.1 11.626 413.444 11.8817C413.788 12.1294 414.039 12.473 414.199 12.9124L413.3 13.272C413.196 12.9923 413.048 12.7766 412.857 12.6248C412.665 12.465 412.441 12.3851 412.186 12.3851C411.946 12.3851 411.742 12.453 411.574 12.5888C411.414 12.7167 411.335 12.8845 411.335 13.0922C411.335 13.4358 411.618 13.7075 412.186 13.9072L412.785 14.111C413.312 14.2948 413.696 14.5305 413.935 14.8181C414.183 15.0978 414.307 15.4294 414.307 15.8129C414.307 16.0686 414.255 16.3083 414.151 16.5321C414.047 16.7478 413.903 16.9356 413.72 17.0954C413.544 17.2472 413.332 17.3671 413.084 17.455C412.845 17.5429 412.581 17.5868 412.293 17.5868C411.75 17.5868 411.283 17.443 410.891 17.1553C410.508 16.8677 410.248 16.4841 410.112 16.0047L411.023 15.6571Z" fill="black"/>
</svg>
