<svg width="89" height="89" viewBox="0 0 89 89" fill="none" xmlns="http://www.w3.org/2000/svg">
<g filter="url(#filter0_i_33_703)">
<path d="M87.6163 1.55786C87.5804 1.38397 87.4957 1.22393 87.3721 1.09648C87.2485 0.969027 87.0911 0.879458 86.9184 0.83827C75.403 -1.97718 48.7958 8.0558 34.3804 22.4653C31.8093 25.0156 29.4654 27.7852 27.3752 30.7426C22.9299 30.3493 18.4845 30.6777 14.6959 32.3292C4.00623 37.0341 0.893901 49.3104 0.0268531 54.5913C-0.0223274 54.8803 -0.00377646 55.1768 0.0810463 55.4575C0.165869 55.7382 0.314651 55.9953 0.515689 56.2088C0.716728 56.4222 0.964542 56.586 1.23964 56.6875C1.51474 56.7889 1.80961 56.8251 2.10108 56.7933L19.267 54.9C19.2793 56.1942 19.3574 57.4869 19.501 58.7732C19.5874 59.6664 19.9839 60.5012 20.6217 61.1325L27.2691 67.7641C27.901 68.4011 28.7354 68.7974 29.6284 68.8848C30.9074 69.0279 32.193 69.106 33.4799 69.1188L31.5964 86.2631C31.565 86.5545 31.6015 86.8492 31.7031 87.1241C31.8047 87.399 31.9685 87.6466 32.1819 87.8475C32.3952 88.0485 32.6522 88.1973 32.9326 88.2823C33.2131 88.3672 33.5095 88.3861 33.7985 88.3373C39.0695 87.4919 51.3675 84.3796 56.0448 73.6899C57.6963 69.9013 58.0345 65.4775 57.6531 61.0538C60.6176 58.9635 63.3944 56.619 65.952 54.0467C80.4126 39.6588 90.3885 13.6454 87.6163 1.55786ZM51.5248 36.8827C50.2043 35.5631 49.3049 33.8815 48.9402 32.0507C48.5756 30.2199 48.7621 28.3221 49.4762 26.5973C50.1903 24.8725 51.3999 23.3982 52.952 22.361C54.5041 21.3237 56.3289 20.7701 58.1957 20.7701C60.0625 20.7701 61.8873 21.3237 63.4394 22.361C64.9915 23.3982 66.2011 24.8725 66.9152 26.5973C67.6293 28.3221 67.8158 30.2199 67.4512 32.0507C67.0865 33.8815 66.1871 35.5631 64.8667 36.8827C63.9911 37.7595 62.9512 38.4551 61.8065 38.9298C60.6619 39.4044 59.4349 39.6487 58.1957 39.6487C56.9565 39.6487 55.7295 39.4044 54.5849 38.9298C53.4402 38.4551 52.4003 37.7595 51.5248 36.8827Z" fill="white"/>
<path d="M87.6163 1.55786C87.5804 1.38397 87.4957 1.22393 87.3721 1.09648C87.2485 0.969027 87.0911 0.879458 86.9184 0.83827C75.403 -1.97718 48.7958 8.0558 34.3804 22.4653C31.8093 25.0156 29.4654 27.7852 27.3752 30.7426C22.9299 30.3493 18.4845 30.6777 14.6959 32.3292C4.00623 37.0341 0.893901 49.3104 0.0268531 54.5913C-0.0223274 54.8803 -0.00377646 55.1768 0.0810463 55.4575C0.165869 55.7382 0.314651 55.9953 0.515689 56.2088C0.716728 56.4222 0.964542 56.586 1.23964 56.6875C1.51474 56.7889 1.80961 56.8251 2.10108 56.7933L19.267 54.9C19.2793 56.1942 19.3574 57.4869 19.501 58.7732C19.5874 59.6664 19.9839 60.5012 20.6217 61.1325L27.2691 67.7641C27.901 68.4011 28.7354 68.7974 29.6284 68.8848C30.9074 69.0279 32.193 69.106 33.4799 69.1188L31.5964 86.2631C31.565 86.5545 31.6015 86.8492 31.7031 87.1241C31.8047 87.399 31.9685 87.6466 32.1819 87.8475C32.3952 88.0485 32.6522 88.1973 32.9326 88.2823C33.2131 88.3672 33.5095 88.3861 33.7985 88.3373C39.0695 87.4919 51.3675 84.3796 56.0448 73.6899C57.6963 69.9013 58.0345 65.4775 57.6531 61.0538C60.6176 58.9635 63.3944 56.619 65.952 54.0467C80.4126 39.6588 90.3885 13.6454 87.6163 1.55786ZM51.5248 36.8827C50.2043 35.5631 49.3049 33.8815 48.9402 32.0507C48.5756 30.2199 48.7621 28.3221 49.4762 26.5973C50.1903 24.8725 51.3999 23.3982 52.952 22.361C54.5041 21.3237 56.3289 20.7701 58.1957 20.7701C60.0625 20.7701 61.8873 21.3237 63.4394 22.361C64.9915 23.3982 66.2011 24.8725 66.9152 26.5973C67.6293 28.3221 67.8158 30.2199 67.4512 32.0507C67.0865 33.8815 66.1871 35.5631 64.8667 36.8827C63.9911 37.7595 62.9512 38.4551 61.8065 38.9298C60.6619 39.4044 59.4349 39.6487 58.1957 39.6487C56.9565 39.6487 55.7295 39.4044 54.5849 38.9298C53.4402 38.4551 52.4003 37.7595 51.5248 36.8827Z" fill="#C59CF0"/>
<path d="M26.8168 72.5673C25.7394 73.6466 24.0112 74.0674 21.931 74.4272C17.2576 75.2235 13.1308 71.1851 13.9703 66.4606C14.2908 64.6695 15.2385 62.1588 15.8283 61.5689C15.9572 61.4425 16.043 61.2787 16.0735 61.1007C16.1041 60.9227 16.0777 60.7396 15.9983 60.5775C15.9188 60.4153 15.7903 60.2823 15.631 60.1974C15.4716 60.1124 15.2896 60.0798 15.1107 60.1042C12.4973 60.424 10.0659 61.6088 8.20378 63.4701C3.58149 68.0964 3.14502 85.2623 3.14502 85.2623C3.14502 85.2623 20.3208 84.8259 24.9431 80.1996C26.8102 78.339 27.9966 75.9039 28.311 73.2868C28.3838 72.465 27.383 71.9755 26.8168 72.5673Z" fill="white"/>
<path d="M26.8168 72.5673C25.7394 73.6466 24.0112 74.0674 21.931 74.4272C17.2576 75.2235 13.1308 71.1851 13.9703 66.4606C14.2908 64.6695 15.2385 62.1588 15.8283 61.5689C15.9572 61.4425 16.043 61.2787 16.0735 61.1007C16.1041 60.9227 16.0777 60.7396 15.9983 60.5775C15.9188 60.4153 15.7903 60.2823 15.631 60.1974C15.4716 60.1124 15.2896 60.0798 15.1107 60.1042C12.4973 60.424 10.0659 61.6088 8.20378 63.4701C3.58149 68.0964 3.14502 85.2623 3.14502 85.2623C3.14502 85.2623 20.3208 84.8259 24.9431 80.1996C26.8102 78.339 27.9966 75.9039 28.311 73.2868C28.3838 72.465 27.383 71.9755 26.8168 72.5673Z" fill="#C59CF0"/>
</g>
<defs>
<filter id="filter0_i_33_703" x="0" y="0.36377" width="88.0796" height="92" filterUnits="userSpaceOnUse" color-interpolation-filters="sRGB">
<feFlood flood-opacity="0" result="BackgroundImageFix"/>
<feBlend mode="normal" in="SourceGraphic" in2="BackgroundImageFix" result="shape"/>
<feColorMatrix in="SourceAlpha" type="matrix" values="0 0 0 0 0 0 0 0 0 0 0 0 0 0 0 0 0 0 127 0" result="hardAlpha"/>
<feOffset dy="4"/>
<feGaussianBlur stdDeviation="2"/>
<feComposite in2="hardAlpha" operator="arithmetic" k2="-1" k3="1"/>
<feColorMatrix type="matrix" values="0 0 0 0 0 0 0 0 0 0 0 0 0 0 0 0 0 0 0.25 0"/>
<feBlend mode="normal" in2="shape" result="effect1_innerShadow_33_703"/>
</filter>
</defs>
</svg>
