<svg width="68" height="89" viewBox="0 0 68 89" fill="none" xmlns="http://www.w3.org/2000/svg">
<g filter="url(#filter0_i_33_707)">
<path d="M50.5104 19.4704H67.0399L47.9333 0.36377V16.8933C47.9333 18.3152 49.0886 19.4704 50.5104 19.4704Z" fill="white"/>
<path d="M50.5104 19.4704H67.0399L47.9333 0.36377V16.8933C47.9333 18.3152 49.0886 19.4704 50.5104 19.4704Z" fill="#C59CF0"/>
<path d="M7.73118 88.3637H59.2724C63.5356 88.3637 67.0036 84.8957 67.0036 80.6325V26.1703H48.9642C44.701 26.1703 41.233 22.7022 41.233 18.4391V0.399536H7.73118C3.46804 0.399536 0 3.86759 0 8.13076V80.6325C0 84.8957 3.46804 88.3637 7.73118 88.3637ZM23.1936 41.8046H48.9642C50.3886 41.8046 51.5412 42.9572 51.5412 44.3816C51.5412 45.8061 50.3886 46.9587 48.9642 46.9587H23.1936C21.7691 46.9587 20.6165 45.8061 20.6165 44.3816C20.6165 42.9572 21.7691 41.8046 23.1936 41.8046ZM23.1936 52.1129H48.9642C50.3886 52.1129 51.5412 53.2655 51.5412 54.6899C51.5412 56.1144 50.3886 57.267 48.9642 57.267H23.1936C21.7691 57.267 20.6165 56.1144 20.6165 54.6899C20.6165 53.2655 21.7691 52.1129 23.1936 52.1129ZM23.1936 62.4212H48.9642C50.3886 62.4212 51.5412 63.5738 51.5412 64.9982C51.5412 66.4227 50.3886 67.5753 48.9642 67.5753H23.1936C21.7691 67.5753 20.6165 66.4227 20.6165 64.9982C20.6165 63.5738 21.7691 62.4212 23.1936 62.4212ZM12.8853 41.8046C14.3085 41.8046 15.4624 42.9584 15.4624 44.3816C15.4624 45.8049 14.3085 46.9587 12.8853 46.9587C11.4621 46.9587 10.3082 45.8049 10.3082 44.3816C10.3082 42.9584 11.4621 41.8046 12.8853 41.8046ZM12.8853 52.1129C14.3085 52.1129 15.4624 53.2667 15.4624 54.6899C15.4624 56.1132 14.3085 57.267 12.8853 57.267C11.4621 57.267 10.3082 56.1132 10.3082 54.6899C10.3082 53.2667 11.4621 52.1129 12.8853 52.1129ZM12.8853 62.4212C14.3085 62.4212 15.4624 63.575 15.4624 64.9982C15.4624 66.4215 14.3085 67.5753 12.8853 67.5753C11.4621 67.5753 10.3082 66.4215 10.3082 64.9982C10.3082 63.575 11.4621 62.4212 12.8853 62.4212Z" fill="white"/>
<path d="M7.73118 88.3637H59.2724C63.5356 88.3637 67.0036 84.8957 67.0036 80.6325V26.1703H48.9642C44.701 26.1703 41.233 22.7022 41.233 18.4391V0.399536H7.73118C3.46804 0.399536 0 3.86759 0 8.13076V80.6325C0 84.8957 3.46804 88.3637 7.73118 88.3637ZM23.1936 41.8046H48.9642C50.3886 41.8046 51.5412 42.9572 51.5412 44.3816C51.5412 45.8061 50.3886 46.9587 48.9642 46.9587H23.1936C21.7691 46.9587 20.6165 45.8061 20.6165 44.3816C20.6165 42.9572 21.7691 41.8046 23.1936 41.8046ZM23.1936 52.1129H48.9642C50.3886 52.1129 51.5412 53.2655 51.5412 54.6899C51.5412 56.1144 50.3886 57.267 48.9642 57.267H23.1936C21.7691 57.267 20.6165 56.1144 20.6165 54.6899C20.6165 53.2655 21.7691 52.1129 23.1936 52.1129ZM23.1936 62.4212H48.9642C50.3886 62.4212 51.5412 63.5738 51.5412 64.9982C51.5412 66.4227 50.3886 67.5753 48.9642 67.5753H23.1936C21.7691 67.5753 20.6165 66.4227 20.6165 64.9982C20.6165 63.5738 21.7691 62.4212 23.1936 62.4212ZM12.8853 41.8046C14.3085 41.8046 15.4624 42.9584 15.4624 44.3816C15.4624 45.8049 14.3085 46.9587 12.8853 46.9587C11.4621 46.9587 10.3082 45.8049 10.3082 44.3816C10.3082 42.9584 11.4621 41.8046 12.8853 41.8046ZM12.8853 52.1129C14.3085 52.1129 15.4624 53.2667 15.4624 54.6899C15.4624 56.1132 14.3085 57.267 12.8853 57.267C11.4621 57.267 10.3082 56.1132 10.3082 54.6899C10.3082 53.2667 11.4621 52.1129 12.8853 52.1129ZM12.8853 62.4212C14.3085 62.4212 15.4624 63.575 15.4624 64.9982C15.4624 66.4215 14.3085 67.5753 12.8853 67.5753C11.4621 67.5753 10.3082 66.4215 10.3082 64.9982C10.3082 63.575 11.4621 62.4212 12.8853 62.4212Z" fill="#C59CF0"/>
</g>
<defs>
<filter id="filter0_i_33_707" x="0" y="0.36377" width="67.0398" height="92" filterUnits="userSpaceOnUse" color-interpolation-filters="sRGB">
<feFlood flood-opacity="0" result="BackgroundImageFix"/>
<feBlend mode="normal" in="SourceGraphic" in2="BackgroundImageFix" result="shape"/>
<feColorMatrix in="SourceAlpha" type="matrix" values="0 0 0 0 0 0 0 0 0 0 0 0 0 0 0 0 0 0 127 0" result="hardAlpha"/>
<feOffset dy="4"/>
<feGaussianBlur stdDeviation="2"/>
<feComposite in2="hardAlpha" operator="arithmetic" k2="-1" k3="1"/>
<feColorMatrix type="matrix" values="0 0 0 0 0 0 0 0 0 0 0 0 0 0 0 0 0 0 0.25 0"/>
<feBlend mode="normal" in2="shape" result="effect1_innerShadow_33_707"/>
</filter>
</defs>
</svg>
