<svg width="143" height="52" viewBox="0 0 143 52" fill="none" xmlns="http://www.w3.org/2000/svg">
<path d="M142.524 23.2495H134.792V11.0759H142.524V13.5435H137.457V15.9289H141.948V18.2649H137.457V20.7819H142.524V23.2495Z" fill="black"/>
<path d="M120.001 13.5435V11.0759H129.576V13.5435H126.121V23.2495H123.456V13.5435H120.001Z" fill="black"/>
<path d="M115.881 17.146C115.881 20.8639 113.43 23.4467 109.893 23.4467C106.372 23.4467 103.954 20.8804 103.954 17.1625C103.954 13.4446 106.389 10.8618 109.909 10.8618C113.446 10.8618 115.881 13.4281 115.881 17.146ZM113.068 17.146C113.068 14.8265 111.883 13.4281 109.926 13.4281C107.951 13.4281 106.767 14.8265 106.767 17.146C106.767 19.482 107.951 20.8804 109.926 20.8804C111.883 20.8804 113.068 19.4491 113.068 17.146Z" fill="black"/>
<path d="M88.5828 23.1736H86V11H88.5828L92.202 20.0808L95.8376 11H98.4533V23.1736H95.8705V20.6237C95.8705 17.9916 95.8705 17.4158 96.0021 16.511L93.4193 23.1736H90.9846L88.4183 16.511C88.5663 17.4158 88.5828 18.4358 88.5828 19.7683V23.1736Z" fill="black"/>
<path d="M80.2209 23.2495H72.489V11.0759H80.2209V13.5435H75.154V15.9289H79.6451V18.2649H75.154V20.7819H80.2209V23.2495Z" fill="black"/>
<path d="M60.2089 23.2495H57.5438V11.0759H62.2488C65.2099 11.0759 66.8879 12.5071 66.8879 15.0241C66.8879 16.6034 66.2134 17.7221 64.8644 18.413L67.003 23.2495H64.0912L62.2652 18.9888H60.2089V23.2495ZM60.2089 13.4448V16.6528H62.2323C63.4003 16.6528 64.0748 16.0605 64.0748 15.0241C64.0748 14.0042 63.4332 13.4448 62.2488 13.4448H60.2089Z" fill="black"/>
<path d="M99.8919 32.6288C99.8919 30.4244 101.751 28.8616 104.367 28.8616C106.982 28.8616 108.627 30.3092 108.627 32.6124H105.979C105.979 31.7569 105.337 31.2305 104.334 31.2305C103.248 31.2305 102.557 31.724 102.557 32.5301C102.557 33.2704 102.935 33.6323 103.791 33.8133L105.617 34.1916C107.788 34.6358 108.825 35.6722 108.825 37.5969C108.825 39.9494 106.982 41.4793 104.186 41.4793C101.471 41.4793 99.7109 40.0152 99.7109 37.7286H102.36C102.36 38.6169 103.018 39.1104 104.202 39.1104C105.403 39.1104 106.16 38.6333 106.16 37.8602C106.16 37.1857 105.847 36.8402 105.041 36.6757L103.182 36.2973C101.011 35.8532 99.8919 34.6194 99.8919 32.6288Z" fill="black"/>
<path d="M86.0068 41.2654V29.0918H91.0737C93.5249 29.0918 95.0054 30.375 95.0054 32.4642C95.0054 33.7638 94.4132 34.718 93.311 35.195C94.5119 35.5899 95.1535 36.5276 95.1535 37.9094C95.1535 40.0645 93.7058 41.2654 91.0737 41.2654H86.0068ZM90.794 31.4278H88.6719V34.0764H90.794C91.7482 34.0764 92.2746 33.5993 92.2746 32.7274C92.2746 31.872 91.7646 31.4278 90.794 31.4278ZM90.9256 36.3137H88.6719V38.9294H90.9256C91.9127 38.9294 92.4226 38.4852 92.4226 37.5804C92.4226 36.7579 91.8962 36.3137 90.9256 36.3137Z" fill="black"/>
<path d="M72.4822 41.2654H69.702L74.045 29.0918H76.6443L80.9708 41.2654H78.1413L77.2858 38.6991H73.3541L72.4822 41.2654ZM74.9992 33.8625L74.1273 36.4618H76.5291L75.6572 33.8625C75.5256 33.4513 75.3776 32.9742 75.3282 32.6781C75.2788 32.9577 75.1472 33.4184 74.9992 33.8625Z" fill="black"/>
<path d="M60.4042 29.0918V38.7978H65.2078V41.2654H57.7391V29.0918H60.4042Z" fill="black"/>
<path d="M46.8989 0H47.9417V52H46.8989V0Z" fill="black"/>
<path d="M5.14938 16.1498C7.99298 16.1498 10.2988 18.4556 10.2988 21.2992V41.6706H19.8822C22.7258 41.6706 25.0316 43.9764 25.0316 46.82C25.0316 49.6636 22.7258 51.9694 19.8822 51.9694H10.356C4.63733 51.9694 0 47.3321 0 41.6134V21.2992C0 18.4556 2.30578 16.1498 5.14938 16.1498ZM22.7859 0.195312C31.5056 0.195312 38.8092 7.09556 38.9751 15.8152C39.0552 20.0863 37.4446 23.9855 34.7698 26.892C37.3817 29.7299 38.978 33.5147 38.978 37.6656C38.978 40.5092 36.6722 42.815 33.8286 42.815C30.985 42.815 28.6793 40.5092 28.6792 37.6656C28.6792 34.5589 26.1617 32.0414 23.055 32.0414H20.177C17.3849 32.0414 15.0076 29.8701 14.9074 27.0809C14.8044 24.1515 17.1474 21.7426 20.0539 21.7426H22.9176C25.9643 21.7426 28.5619 19.3795 28.6764 16.3357C28.7965 13.1345 26.2304 10.4941 23.055 10.4941H5.14938C2.30578 10.4941 1.08284e-06 8.18829 0 5.34469C0 2.50109 2.30578 0.195312 5.14938 0.195312H22.7859Z" fill="url(#paint0_radial_17_3381)"/>
<defs>
<radialGradient id="paint0_radial_17_3381" cx="0" cy="0" r="1" gradientUnits="userSpaceOnUse" gradientTransform="translate(6.41304 51.964) rotate(-57.8007) scale(61.1779 81.0002)">
<stop stop-color="#C59CF0"/>
<stop offset="0.642631" stop-color="#5E29FD"/>
<stop offset="1" stop-color="#3336FE"/>
</radialGradient>
</defs>
</svg>
