<svg width="69" height="26" viewBox="0 0 69 26" fill="none" xmlns="http://www.w3.org/2000/svg">
<path d="M68.9322 11.2447H65.1926V5.35693H68.9322V6.55041H66.4816V7.7041H68.6537V8.83392H66.4816V10.0513H68.9322V11.2447Z" fill="white"/>
<path d="M58.0392 6.55041V5.35693H62.6699V6.55041H60.999V11.2447H59.71V6.55041H58.0392Z" fill="white"/>
<path d="M56.0462 8.2928C56.0462 10.091 54.8607 11.3401 53.15 11.3401C51.4473 11.3401 50.2777 10.0989 50.2777 8.30076C50.2777 6.50259 51.4553 5.25342 53.158 5.25342C54.8686 5.25342 56.0462 6.49463 56.0462 8.2928ZM54.6856 8.2928C54.6856 7.17093 54.1127 6.49463 53.1659 6.49463C52.2111 6.49463 51.6383 7.17093 51.6383 8.2928C51.6383 9.42262 52.2111 10.0989 53.1659 10.0989C54.1127 10.0989 54.6856 9.40671 54.6856 8.2928Z" fill="white"/>
<path d="M42.8533 11.2447H41.6041V5.35693H42.8533L44.6037 9.74892L46.3621 5.35693H47.6272V11.2447H46.378V10.0115C46.378 8.73844 46.378 8.45997 46.4417 8.02236L45.1925 11.2447H44.0149L42.7737 8.02236C42.8453 8.45997 42.8533 8.95327 42.8533 9.59774V11.2447Z" fill="white"/>
<path d="M38.7991 11.2447H35.0596V5.35693H38.7991V6.55041H36.3485V7.7041H38.5206V8.83392H36.3485V10.0513H38.7991V11.2447Z" fill="white"/>
<path d="M29.1203 11.2447H27.8313V5.35693H30.1069C31.539 5.35693 32.3506 6.04915 32.3506 7.26649C32.3506 8.03032 32.0244 8.57136 31.3719 8.90553L32.4063 11.2447H30.998L30.1148 9.18401H29.1203V11.2447ZM29.1203 6.50267V8.05419H30.0989C30.6638 8.05419 30.99 7.76775 30.99 7.26649C30.99 6.77319 30.6797 6.50267 30.1069 6.50267H29.1203Z" fill="white"/>
<path d="M48.3131 15.781C48.3131 14.7149 49.2122 13.959 50.4773 13.959C51.7424 13.959 52.538 14.6592 52.538 15.7731H51.257C51.257 15.3593 50.9467 15.1047 50.4614 15.1047C49.9362 15.1047 49.6021 15.3434 49.6021 15.7333C49.6021 16.0913 49.7851 16.2664 50.1988 16.3539L51.082 16.5369C52.1322 16.7517 52.6335 17.253 52.6335 18.1839C52.6335 19.3217 51.7424 20.0616 50.3898 20.0616C49.0769 20.0616 48.2256 19.3535 48.2256 18.2475H49.5066C49.5066 18.6772 49.8248 18.9159 50.3977 18.9159C50.9785 18.9159 51.3445 18.6851 51.3445 18.3112C51.3445 17.985 51.1934 17.8179 50.8035 17.7383L49.9044 17.5553C48.8541 17.3405 48.3131 16.7438 48.3131 15.781Z" fill="white"/>
<path d="M41.5975 19.9581V14.0703H44.0481C45.2337 14.0703 45.9497 14.6909 45.9497 15.7014C45.9497 16.33 45.6633 16.7914 45.1302 17.0222C45.711 17.2131 46.0213 17.6666 46.0213 18.335C46.0213 19.3773 45.3212 19.9581 44.0481 19.9581H41.5975ZM43.9129 15.2001H42.8865V16.4811H43.9129C44.3744 16.4811 44.629 16.2504 44.629 15.8287C44.629 15.415 44.3823 15.2001 43.9129 15.2001ZM43.9765 17.5632H42.8865V18.8283H43.9765C44.4539 18.8283 44.7006 18.6135 44.7006 18.1759C44.7006 17.778 44.446 17.5632 43.9765 17.5632Z" fill="white"/>
<path d="M35.0563 19.9581H33.7117L35.8122 14.0703H37.0693L39.1619 19.9581H37.7934L37.3796 18.7169H35.478L35.0563 19.9581ZM36.2737 16.3777L35.852 17.6348H37.0136L36.5919 16.3777C36.5283 16.1788 36.4567 15.948 36.4328 15.8048C36.4089 15.9401 36.3453 16.1629 36.2737 16.3777Z" fill="white"/>
<path d="M29.2147 14.0703V18.7646H31.538V19.9581H27.9258V14.0703H29.2147Z" fill="white"/>
<path d="M22.6829 0H23.1872V25.15H22.6829V0Z" fill="white"/>
<path d="M2.49052 7.81094C3.86584 7.81094 4.98104 8.92614 4.98104 10.3015V20.1542H9.61612C10.9914 20.1542 12.1066 21.2694 12.1066 22.6447C12.1066 24.02 10.9914 25.1352 9.61612 25.1352H5.00872C2.24286 25.1352 0 22.8924 0 20.1265V10.3015C0 8.92614 1.1152 7.81094 2.49052 7.81094ZM11.0205 0.0944824C15.2378 0.0944824 18.7702 3.43181 18.8505 7.64909C18.8892 9.71481 18.1102 11.6007 16.8166 13.0064C18.0798 14.379 18.8519 16.2095 18.8519 18.2172C18.8519 19.5925 17.7366 20.7077 16.3613 20.7077C14.986 20.7077 13.8708 19.5925 13.8708 18.2172C13.8708 16.7146 12.6532 15.497 11.1506 15.497H9.75869C8.40829 15.497 7.25848 14.4468 7.21003 13.0978C7.16022 11.681 8.29341 10.5159 9.69917 10.5159H11.0842C12.5577 10.5159 13.8141 9.373 13.8694 7.90082C13.9275 6.35258 12.6864 5.07553 11.1506 5.07552H2.49052C1.1152 5.07552 5.23719e-07 3.96032 0 2.585C0 1.20968 1.1152 0.0944824 2.49052 0.0944824H11.0205Z" fill="url(#paint0_radial_17_3349)"/>
<defs>
<radialGradient id="paint0_radial_17_3349" cx="0" cy="0" r="1" gradientUnits="userSpaceOnUse" gradientTransform="translate(3.10169 25.1326) rotate(-57.8007) scale(29.5889 39.1761)">
<stop stop-color="#C59CF0"/>
<stop offset="0.642631" stop-color="#5E29FD"/>
<stop offset="1" stop-color="#3336FE"/>
</radialGradient>
</defs>
</svg>
