<svg width="88" height="89" viewBox="0 0 88 89" fill="none" xmlns="http://www.w3.org/2000/svg">
<g filter="url(#filter0_i_33_711)">
<path d="M16.7944 59.0258H37.5541C35.2675 55.7414 31.4703 53.5795 27.1743 53.5795C22.8644 53.5795 19.0672 55.7414 16.7944 59.0258Z" fill="white"/>
<path d="M16.7944 59.0258H37.5541C35.2675 55.7414 31.4703 53.5795 27.1743 53.5795C22.8644 53.5795 19.0672 55.7414 16.7944 59.0258Z" fill="#C59CF0"/>
<path d="M20.7163 51.2513C18.4852 49.3942 17.0577 46.6087 17.0577 43.4768C17.0577 37.9057 21.5894 33.3741 27.1604 33.3741C32.7315 33.3741 37.2631 37.9057 37.2631 43.4768C37.2631 46.5949 35.8357 49.3942 33.6045 51.2513C37.1661 52.7895 40.0625 55.5612 41.767 59.0257H78.7686H80.5979V20.5136C80.5979 18.1577 79.0874 16.1483 76.9948 15.3722V22.3706C76.9948 27.4289 72.8789 31.5448 67.8206 31.5448H51.3292L45.4672 35.9517C42.654 37.8226 40.4644 36.8664 39.716 36.4783C36.2515 34.6906 36.6672 30.7826 36.6672 30.7826C33.4244 29.3691 31.1655 26.1262 31.1655 22.3845V15.0258H12.7478C9.71287 15.0258 7.24609 17.4925 7.24609 20.5275V59.0396H12.5538C14.2584 55.5612 17.1548 52.7895 20.7163 51.2513Z" fill="white"/>
<path d="M20.7163 51.2513C18.4852 49.3942 17.0577 46.6087 17.0577 43.4768C17.0577 37.9057 21.5894 33.3741 27.1604 33.3741C32.7315 33.3741 37.2631 37.9057 37.2631 43.4768C37.2631 46.5949 35.8357 49.3942 33.6045 51.2513C37.1661 52.7895 40.0625 55.5612 41.767 59.0257H78.7686H80.5979V20.5136C80.5979 18.1577 79.0874 16.1483 76.9948 15.3722V22.3706C76.9948 27.4289 72.8789 31.5448 67.8206 31.5448H51.3292L45.4672 35.9517C42.654 37.8226 40.4644 36.8664 39.716 36.4783C36.2515 34.6906 36.6672 30.7826 36.6672 30.7826C33.4244 29.3691 31.1655 26.1262 31.1655 22.3845V15.0258H12.7478C9.71287 15.0258 7.24609 17.4925 7.24609 20.5275V59.0396H12.5538C14.2584 55.5612 17.1548 52.7895 20.7163 51.2513Z" fill="#C59CF0"/>
<path d="M33.6046 43.4774C33.6046 39.9296 30.7221 37.0471 27.1744 37.0471C23.6267 37.0471 20.7441 39.9296 20.7441 43.4774C20.7441 47.0251 23.6267 49.9076 27.1744 49.9076C30.7082 49.9076 33.6046 47.0251 33.6046 43.4774Z" fill="white"/>
<path d="M33.6046 43.4774C33.6046 39.9296 30.7221 37.0471 27.1744 37.0471C23.6267 37.0471 20.7441 39.9296 20.7441 43.4774C20.7441 47.0251 23.6267 49.9076 27.1744 49.9076C30.7082 49.9076 33.6046 47.0251 33.6046 43.4774Z" fill="#C59CF0"/>
<path d="M37.0967 73.7292L34.5884 77.3324H53.2555L50.7471 73.7292H37.0967Z" fill="white"/>
<path d="M37.0967 73.7292L34.5884 77.3324H53.2555L50.7471 73.7292H37.0967Z" fill="#C59CF0"/>
<path d="M87.5131 80.7417L80.4593 63.8208C80.1683 63.1417 79.5031 62.6982 78.7686 62.6982H9.07534C8.34085 62.6982 7.66179 63.1417 7.38463 63.8208L0.330769 80.7417C-1.30451 86.5483 3.55975 88.3637 5.40289 88.3637H82.4272C87.9982 87.8648 88.6079 82.8897 87.5131 80.7417ZM56.7616 81.005H31.0823C30.3339 81.0604 28.6016 80.1458 29.5717 78.1225L34.6161 70.8469C34.9626 70.348 35.5169 70.057 36.1267 70.057H51.7034C52.2993 70.057 52.8675 70.348 53.2139 70.8469L58.2583 78.1225C58.6602 78.6768 59.0344 80.6447 56.7616 81.005Z" fill="white"/>
<path d="M87.5131 80.7417L80.4593 63.8208C80.1683 63.1417 79.5031 62.6982 78.7686 62.6982H9.07534C8.34085 62.6982 7.66179 63.1417 7.38463 63.8208L0.330769 80.7417C-1.30451 86.5483 3.55975 88.3637 5.40289 88.3637H82.4272C87.9982 87.8648 88.6079 82.8897 87.5131 80.7417ZM56.7616 81.005H31.0823C30.3339 81.0604 28.6016 80.1458 29.5717 78.1225L34.6161 70.8469C34.9626 70.348 35.5169 70.057 36.1267 70.057H51.7034C52.2993 70.057 52.8675 70.348 53.2139 70.8469L58.2583 78.1225C58.6602 78.6768 59.0344 80.6447 56.7616 81.005Z" fill="#C59CF0"/>
<path d="M40.3257 27.8724V31.5449C40.3257 32.2378 40.7137 32.8753 41.3374 33.1801C41.6007 33.3049 42.155 33.6652 43.2637 33L50.1096 27.8724H67.8344C70.8693 27.8724 73.3361 25.4056 73.3361 22.3707V5.8655C73.3361 2.83054 70.8693 0.36377 67.8344 0.36377H40.3257C37.2907 0.36377 34.824 2.83054 34.824 5.8655V22.3707C34.824 25.4056 37.2907 27.8724 40.3257 27.8724ZM51.3292 8.27684L60.5033 14.3052L51.3292 20.3335V8.27684Z" fill="white"/>
<path d="M40.3257 27.8724V31.5449C40.3257 32.2378 40.7137 32.8753 41.3374 33.1801C41.6007 33.3049 42.155 33.6652 43.2637 33L50.1096 27.8724H67.8344C70.8693 27.8724 73.3361 25.4056 73.3361 22.3707V5.8655C73.3361 2.83054 70.8693 0.36377 67.8344 0.36377H40.3257C37.2907 0.36377 34.824 2.83054 34.824 5.8655V22.3707C34.824 25.4056 37.2907 27.8724 40.3257 27.8724ZM51.3292 8.27684L60.5033 14.3052L51.3292 20.3335V8.27684Z" fill="#C59CF0"/>
</g>
<defs>
<filter id="filter0_i_33_711" x="0" y="0.36377" width="87.9641" height="92" filterUnits="userSpaceOnUse" color-interpolation-filters="sRGB">
<feFlood flood-opacity="0" result="BackgroundImageFix"/>
<feBlend mode="normal" in="SourceGraphic" in2="BackgroundImageFix" result="shape"/>
<feColorMatrix in="SourceAlpha" type="matrix" values="0 0 0 0 0 0 0 0 0 0 0 0 0 0 0 0 0 0 127 0" result="hardAlpha"/>
<feOffset dy="4"/>
<feGaussianBlur stdDeviation="2"/>
<feComposite in2="hardAlpha" operator="arithmetic" k2="-1" k3="1"/>
<feColorMatrix type="matrix" values="0 0 0 0 0 0 0 0 0 0 0 0 0 0 0 0 0 0 0.25 0"/>
<feBlend mode="normal" in2="shape" result="effect1_innerShadow_33_711"/>
</filter>
</defs>
</svg>
