<svg width="88" height="87" viewBox="0 0 88 87" fill="none" xmlns="http://www.w3.org/2000/svg">
<g filter="url(#filter0_i_33_679)">
<path fill-rule="evenodd" clip-rule="evenodd" d="M28.6463 42.6919C31.6494 44.5363 33.9374 47.3486 35.1273 50.6322L45.5628 43.5957C47.3925 41.7514 49.8456 40.8732 52.4435 41.3242C53.857 41.568 55.1935 42.1877 56.3156 43.0751C56.3522 43.1062 56.3944 43.1374 56.4292 43.1686L59.755 30.0563H36C35.6058 35.3162 32.7824 39.8997 28.6463 42.6901V42.6919ZM43.7075 42.3747H35.6681C34.9604 42.3747 34.3848 41.8027 34.3848 41.0914C34.3848 40.38 34.9623 39.808 35.6681 39.808H43.7075C44.4188 39.808 44.9908 40.3855 44.9908 41.0914C44.9908 41.7972 44.4188 42.3747 43.7075 42.3747ZM40.9537 33.8H48.9931C49.7044 33.8 50.2764 34.3721 50.2764 35.0834C50.2764 35.7947 49.7044 36.3668 48.9931 36.3668H40.9537C40.2479 36.3668 39.6704 35.7892 39.6704 35.0834C39.6704 34.3775 40.2479 33.8 40.9537 33.8ZM45.4125 63.9627L52.5168 58.6L51.1546 63.9627H45.4125ZM64.4686 0V23.5313H87.9999V0H64.4686ZM82.8188 8.89735L75.2671 16.4545C74.7629 16.9532 73.9526 16.9532 73.4484 16.4545L69.6497 12.6503C69.151 12.1516 69.151 11.3412 69.6497 10.8371C70.1483 10.3384 70.9642 10.3384 71.4629 10.8371L74.3578 13.732L81.0056 7.08598C81.5097 6.5818 82.3201 6.5818 82.8188 7.08598C83.323 7.58466 83.323 8.40051 82.8188 8.89919V8.89735ZM64.4686 55.1295H87.9999V31.5982H64.4686V55.1295ZM69.6497 42.4334C70.1483 41.9347 70.9642 41.9347 71.4629 42.4334L74.3578 45.3283L81.0056 38.6823C81.5097 38.1781 82.3201 38.1781 82.8188 38.6823C83.323 39.181 83.323 39.9968 82.8188 40.4955L75.2671 48.0527C74.7629 48.5513 73.9526 48.5513 73.4484 48.0527L69.6497 44.2539C69.151 43.7497 69.151 42.9394 69.6497 42.4352V42.4334ZM64.4686 86.7276H87.9999V63.1963H64.4686V86.7276ZM69.6497 74.0315C70.1483 73.5329 70.9642 73.5329 71.4629 74.0315L74.3578 76.9264L81.0056 70.2786C81.5097 69.7745 82.3201 69.7745 82.8188 70.2786C83.323 70.7773 83.323 71.5932 82.8188 72.0918L75.2671 79.649C74.7629 80.1477 73.9526 80.1477 73.4484 79.649L69.6497 75.8503C69.151 75.3461 69.151 74.5357 69.6497 74.0315ZM55.4612 53.1604L38.8875 65.675C38.783 65.7264 38.684 65.7887 38.596 65.873C38.497 65.9555 38.3925 66.0454 38.2898 66.1279L38.0148 66.3405C37.8957 66.4285 37.7765 66.5165 37.6555 66.6064C35.769 67.9209 33.4351 68.6598 31.0187 68.8559C27.979 69.1053 24.8347 68.5186 22.2625 67.1674L12.8408 62.2356C12.212 61.9075 11.4438 62.1476 11.1156 62.7765C10.7874 63.3998 11.0331 64.1735 11.6565 64.5017L21.0781 69.4334C24.0867 71.0083 27.7296 71.705 31.2332 71.4135C31.9867 71.3512 32.7402 71.2411 33.4791 71.0853V86.7276H-0.00012207V55.8738C-0.00012207 49.534 4.64014 44.2228 10.6903 43.1667C13.2057 44.6738 16.1464 45.541 19.2961 45.541C21.6667 45.541 23.9217 45.0478 25.9641 44.1586C29.2642 45.6913 31.8217 48.5752 32.9126 52.0898L27.1704 58.1435C26.6864 58.6532 26.7084 59.4636 27.2163 59.9512C27.7315 60.4389 28.5418 60.4188 29.024 59.9036L34.4599 54.1761L47.2239 45.5703C52.0566 40.3213 60.4755 47.7117 55.4612 53.1586V53.1604ZM5.10948 28.7913C5.10948 20.9811 11.4805 14.6083 19.2979 14.6083C27.1154 14.6083 33.4809 20.9793 33.4809 28.7913C33.4809 36.6033 27.1099 42.9742 19.2979 42.9742C11.486 42.9742 5.10948 36.6033 5.10948 28.7913Z" fill="white"/>
<path fill-rule="evenodd" clip-rule="evenodd" d="M28.6463 42.6919C31.6494 44.5363 33.9374 47.3486 35.1273 50.6322L45.5628 43.5957C47.3925 41.7514 49.8456 40.8732 52.4435 41.3242C53.857 41.568 55.1935 42.1877 56.3156 43.0751C56.3522 43.1062 56.3944 43.1374 56.4292 43.1686L59.755 30.0563H36C35.6058 35.3162 32.7824 39.8997 28.6463 42.6901V42.6919ZM43.7075 42.3747H35.6681C34.9604 42.3747 34.3848 41.8027 34.3848 41.0914C34.3848 40.38 34.9623 39.808 35.6681 39.808H43.7075C44.4188 39.808 44.9908 40.3855 44.9908 41.0914C44.9908 41.7972 44.4188 42.3747 43.7075 42.3747ZM40.9537 33.8H48.9931C49.7044 33.8 50.2764 34.3721 50.2764 35.0834C50.2764 35.7947 49.7044 36.3668 48.9931 36.3668H40.9537C40.2479 36.3668 39.6704 35.7892 39.6704 35.0834C39.6704 34.3775 40.2479 33.8 40.9537 33.8ZM45.4125 63.9627L52.5168 58.6L51.1546 63.9627H45.4125ZM64.4686 0V23.5313H87.9999V0H64.4686ZM82.8188 8.89735L75.2671 16.4545C74.7629 16.9532 73.9526 16.9532 73.4484 16.4545L69.6497 12.6503C69.151 12.1516 69.151 11.3412 69.6497 10.8371C70.1483 10.3384 70.9642 10.3384 71.4629 10.8371L74.3578 13.732L81.0056 7.08598C81.5097 6.5818 82.3201 6.5818 82.8188 7.08598C83.323 7.58466 83.323 8.40051 82.8188 8.89919V8.89735ZM64.4686 55.1295H87.9999V31.5982H64.4686V55.1295ZM69.6497 42.4334C70.1483 41.9347 70.9642 41.9347 71.4629 42.4334L74.3578 45.3283L81.0056 38.6823C81.5097 38.1781 82.3201 38.1781 82.8188 38.6823C83.323 39.181 83.323 39.9968 82.8188 40.4955L75.2671 48.0527C74.7629 48.5513 73.9526 48.5513 73.4484 48.0527L69.6497 44.2539C69.151 43.7497 69.151 42.9394 69.6497 42.4352V42.4334ZM64.4686 86.7276H87.9999V63.1963H64.4686V86.7276ZM69.6497 74.0315C70.1483 73.5329 70.9642 73.5329 71.4629 74.0315L74.3578 76.9264L81.0056 70.2786C81.5097 69.7745 82.3201 69.7745 82.8188 70.2786C83.323 70.7773 83.323 71.5932 82.8188 72.0918L75.2671 79.649C74.7629 80.1477 73.9526 80.1477 73.4484 79.649L69.6497 75.8503C69.151 75.3461 69.151 74.5357 69.6497 74.0315ZM55.4612 53.1604L38.8875 65.675C38.783 65.7264 38.684 65.7887 38.596 65.873C38.497 65.9555 38.3925 66.0454 38.2898 66.1279L38.0148 66.3405C37.8957 66.4285 37.7765 66.5165 37.6555 66.6064C35.769 67.9209 33.4351 68.6598 31.0187 68.8559C27.979 69.1053 24.8347 68.5186 22.2625 67.1674L12.8408 62.2356C12.212 61.9075 11.4438 62.1476 11.1156 62.7765C10.7874 63.3998 11.0331 64.1735 11.6565 64.5017L21.0781 69.4334C24.0867 71.0083 27.7296 71.705 31.2332 71.4135C31.9867 71.3512 32.7402 71.2411 33.4791 71.0853V86.7276H-0.00012207V55.8738C-0.00012207 49.534 4.64014 44.2228 10.6903 43.1667C13.2057 44.6738 16.1464 45.541 19.2961 45.541C21.6667 45.541 23.9217 45.0478 25.9641 44.1586C29.2642 45.6913 31.8217 48.5752 32.9126 52.0898L27.1704 58.1435C26.6864 58.6532 26.7084 59.4636 27.2163 59.9512C27.7315 60.4389 28.5418 60.4188 29.024 59.9036L34.4599 54.1761L47.2239 45.5703C52.0566 40.3213 60.4755 47.7117 55.4612 53.1586V53.1604ZM5.10948 28.7913C5.10948 20.9811 11.4805 14.6083 19.2979 14.6083C27.1154 14.6083 33.4809 20.9793 33.4809 28.7913C33.4809 36.6033 27.1099 42.9742 19.2979 42.9742C11.486 42.9742 5.10948 36.6033 5.10948 28.7913Z" fill="#C59CF0"/>
</g>
<defs>
<filter id="filter0_i_33_679" x="-0.00012207" y="0" width="88.0001" height="90.7277" filterUnits="userSpaceOnUse" color-interpolation-filters="sRGB">
<feFlood flood-opacity="0" result="BackgroundImageFix"/>
<feBlend mode="normal" in="SourceGraphic" in2="BackgroundImageFix" result="shape"/>
<feColorMatrix in="SourceAlpha" type="matrix" values="0 0 0 0 0 0 0 0 0 0 0 0 0 0 0 0 0 0 127 0" result="hardAlpha"/>
<feOffset dy="4"/>
<feGaussianBlur stdDeviation="2"/>
<feComposite in2="hardAlpha" operator="arithmetic" k2="-1" k3="1"/>
<feColorMatrix type="matrix" values="0 0 0 0 0 0 0 0 0 0 0 0 0 0 0 0 0 0 0.25 0"/>
<feBlend mode="normal" in2="shape" result="effect1_innerShadow_33_679"/>
</filter>
</defs>
</svg>
